<!--?xml version="1.0" encoding="UTF-8" standalone="no"?-->
<!-- Created with Inkscape (http://www.inkscape.org/) -->

<svg width="85.712288mm" height="63.444515mm" viewBox="0 0 85.712288 63.444515" version="1.1" id="svg1702" sodipodi:docname="globe-drawing.svg" inkscape:version="1.1.1 (3bf5ae0d25, 2021-09-20)" xmlns:inkscape="http://www.inkscape.org/namespaces/inkscape" xmlns:sodipodi="http://sodipodi.sourceforge.net/DTD/sodipodi-0.dtd" xmlns="http://www.w3.org/2000/svg" xmlns:svg="http://www.w3.org/2000/svg" style="">
  <sodipodi:namedview id="namedview1704" pagecolor="#ffffff" bordercolor="#666666" borderopacity="1.0" inkscape:pageshadow="2" inkscape:pageopacity="0.0" inkscape:pagecheckerboard="0" inkscape:document-units="mm" showgrid="false" inkscape:zoom="1.8116734" inkscape:cx="155.93318" inkscape:cy="137.71798" inkscape:window-width="1920" inkscape:window-height="1017" inkscape:window-x="-8" inkscape:window-y="-8" inkscape:window-maximized="1" inkscape:current-layer="layer4"></sodipodi:namedview>
  <defs id="defs1699"></defs>
  <g inkscape:groupmode="layer" id="layer4" inkscape:label="path" transform="translate(-68.685266,-108.48705)">
    <path style="fill: none; stroke: rgb(4, 15, 34); stroke-width: 0.5; stroke-linecap: butt; stroke-linejoin: miter; stroke-opacity: 1; stroke-miterlimit: 4;" d="m 68.7135,167.877 c 0,0 0.4486,-0.098 1.1743,-0.284 0.3355,-0.086 0.7302,-0.191 1.1671,-0.314 0.3611,-0.101 0.751,-0.215 1.1601,-0.34 0.3702,-0.114 0.7562,-0.237 1.1509,-0.369 0.374,-0.125 0.7558,-0.259 1.1395,-0.4 0.3755,-0.138 0.7527,-0.284 1.126,-0.437 0.3748,-0.154 0.7457,-0.315 1.1068,-0.483 0.3723,-0.174 0.7343,-0.354 1.0798,-0.542 0.3668,-0.2 0.7149,-0.407 1.0369,-0.622 0.3543,-0.236 0.677,-0.482 0.9579,-0.736 0.0839,-0.076 0.164,-0.149 0.2406,-0.22 0.0838,-0.077 0.1633,-0.15 0.2387,-0.221 0.0839,-0.079 0.1627,-0.154 0.2366,-0.225 0.084,-0.08 0.1618,-0.156 0.2337,-0.228 0.084,-0.084 0.16,-0.161 0.2287,-0.233 0.0845,-0.088 0.1578,-0.168 0.2212,-0.24 0.0866,-0.098 0.1545,-0.182 0.2065,-0.253 0.1036,-0.141 0.1441,-0.232 0.1434,-0.288 -0.0013,-0.1 -0.1387,-0.084 -0.2796,-0.04 -0.1488,0.046 -0.3014,0.122 -0.3014,0.122 0,0 -0.1155,0.042 -0.2662,0.132 -0.0754,0.045 -0.1596,0.102 -0.2426,0.172 -0.0719,0.061 -0.1429,0.132 -0.2065,0.212 -0.0592,0.076 -0.1121,0.16 -0.1532,0.253 -0.0383,0.087 -0.0665,0.183 -0.0804,0.286 -0.0124,0.093 -0.0134,0.192 -2e-4,0.298 0.0114,0.09 0.0333,0.186 0.0675,0.288 0.0295,0.087 0.0681,0.178 0.1171,0.273 0.0424,0.082 0.0924,0.167 0.151,0.255 0.0516,0.078 0.1099,0.158 0.1754,0.241 0.2974,0.376 0.7223,0.852 1.3264,1.344 0.4293,0.35 0.949,0.707 1.5779,1.042 0.505,0.27 1.0803,0.524 1.7357,0.749 0.5505,0.188 1.1574,0.355 1.8265,0.492 0.5764,0.117 1.1989,0.212 1.8712,0.278 0.5906,0.058 1.2196,0.094 1.8894,0.104 0.5976,0.008 1.2277,-0.004 1.8921,-0.04 0.6007,-0.033 1.2295,-0.085 1.8876,-0.159 0.6003,-0.067 1.2251,-0.152 1.8753,-0.257 0.5989,-0.096 1.2194,-0.209 1.8621,-0.34 0.556,-0.113 1.0938,-0.227 1.6139,-0.34 0.5558,-0.121 1.0918,-0.242 1.6088,-0.363 0.556,-0.13 1.09,-0.259 1.602,-0.388 0.557,-0.14 1.089,-0.279 1.595,-0.417 0.559,-0.152 1.087,-0.302 1.586,-0.449 0.562,-0.167 1.086,-0.329 1.575,-0.488 0.566,-0.184 1.086,-0.362 1.56,-0.534 0.577,-0.208 1.088,-0.405 1.539,-0.59 0.607,-0.248 1.105,-0.473 1.508,-0.667 1.032,-0.499 1.439,-0.803 1.439,-0.803 0,0 0.047,-0.047 0.113,-0.124 0.032,-0.038 0.068,-0.082 0.105,-0.131 0.032,-0.042 0.065,-0.088 0.096,-0.137 0.031,-0.046 0.06,-0.095 0.087,-0.145 0.026,-0.049 0.05,-0.1 0.069,-0.152 0.021,-0.053 0.037,-0.107 0.047,-0.16 0.01,-0.057 0.013,-0.113 0.007,-0.168 -0.007,-0.055 -0.023,-0.108 -0.051,-0.157 -0.026,-0.046 -0.062,-0.088 -0.11,-0.126 -0.039,-0.032 -0.087,-0.061 -0.144,-0.087 -0.115,-0.052 -0.285,-0.176 -0.492,-0.35 -0.137,-0.115 -0.289,-0.251 -0.453,-0.403 -0.139,-0.129 -0.286,-0.27 -0.437,-0.418 -0.14,-0.136 -0.284,-0.279 -0.43,-0.426 -0.141,-0.141 -0.283,-0.286 -0.425,-0.432 -0.142,-0.146 -0.283,-0.292 -0.42,-0.436 -0.144,-0.15 -0.284,-0.297 -0.417,-0.439 -0.147,-0.155 -0.286,-0.303 -0.414,-0.441 -0.155,-0.166 -0.294,-0.316 -0.412,-0.444 -0.253,-0.275 -0.408,-0.446 -0.408,-0.446 0,0 -0.081,-0.072 -0.167,-0.171 -0.05,-0.058 -0.102,-0.125 -0.141,-0.192 -0.047,-0.081 -0.073,-0.163 -0.049,-0.226 0.02,-0.056 0.079,-0.097 0.197,-0.113 0.062,-0.008 0.14,-0.009 0.238,-0.001 0.069,0.005 0.147,0.015 0.236,0.031 0.072,0.012 0.15,0.027 0.235,0.047 0.072,0.016 0.149,0.034 0.232,0.056 0.073,0.019 0.149,0.04 0.231,0.063 0.073,0.021 0.149,0.043 0.229,0.068 0.235,0.071 0.459,0.143 0.674,0.213 0.233,0.076 0.456,0.151 0.671,0.221 0.232,0.076 0.456,0.147 0.674,0.211 0.233,0.069 0.459,0.129 0.684,0.178 0.233,0.05 0.464,0.088 0.698,0.111 0.231,0.022 0.464,0.029 0.705,0.017 0.226,-0.012 0.458,-0.04 0.7,-0.087 0.219,-0.042 0.446,-0.101 0.684,-0.177 0.211,-0.067 0.43,-0.149 0.66,-0.245 0.205,-0.087 0.418,-0.185 0.641,-0.296 0.24,-0.12 0.488,-0.249 0.742,-0.385 0.24,-0.129 0.485,-0.263 0.732,-0.402 0.24,-0.135 0.483,-0.274 0.726,-0.415 0.24,-0.14 0.481,-0.281 0.719,-0.424 0.242,-0.144 0.481,-0.289 0.716,-0.432 0.243,-0.149 0.481,-0.296 0.712,-0.44 0.245,-0.153 0.482,-0.302 0.707,-0.444 0.251,-0.159 0.488,-0.311 0.705,-0.451 0.265,-0.17 0.501,-0.324 0.7,-0.454 0.437,-0.286 0.697,-0.462 0.697,-0.462 0,0 0.106,-0.045 0.246,-0.125 0.072,-0.04 0.153,-0.09 0.234,-0.147 0.074,-0.052 0.148,-0.11 0.214,-0.174 0.07,-0.066 0.13,-0.138 0.173,-0.214 0.047,-0.084 0.072,-0.173 0.063,-0.264 -0.008,-0.081 -0.043,-0.164 -0.113,-0.247 -0.05,-0.059 -0.119,-0.119 -0.208,-0.178 -0.068,-0.045 -0.147,-0.09 -0.241,-0.134 -0.075,-0.036 -0.159,-0.072 -0.253,-0.107 -0.08,-0.03 -0.166,-0.06 -0.261,-0.089 -0.304,-0.095 -0.744,-0.249 -1.279,-0.444 -0.38,-0.139 -0.808,-0.298 -1.27,-0.473 -0.4,-0.151 -0.825,-0.314 -1.265,-0.483 -0.41,-0.158 -0.834,-0.323 -1.263,-0.49 -0.418,-0.163 -0.841,-0.328 -1.263,-0.494 -0.424,-0.167 -0.846,-0.334 -1.26,-0.497 -0.432,-0.171 -0.855,-0.339 -1.26,-0.5 -0.444,-0.177 -0.867,-0.346 -1.258,-0.502 -0.471,-0.188 -0.896,-0.359 -1.257,-0.504 -0.777,-0.311 -1.257,-0.506 -1.257,-0.506 0,0 -0.087,-0.011 -0.199,-0.039 -0.061,-0.015 -0.129,-0.035 -0.194,-0.06 -0.065,-0.026 -0.128,-0.057 -0.179,-0.095 -0.06,-0.044 -0.103,-0.098 -0.112,-0.162 -0.008,-0.055 0.009,-0.117 0.06,-0.188 0.033,-0.045 0.079,-0.094 0.142,-0.146 0.046,-0.037 0.1,-0.077 0.164,-0.118 0.052,-0.034 0.11,-0.069 0.175,-0.105 0.054,-0.03 0.114,-0.062 0.178,-0.094 0.057,-0.029 0.118,-0.058 0.184,-0.088 0.151,-0.07 0.293,-0.136 0.427,-0.197 0.152,-0.07 0.293,-0.135 0.427,-0.194 0.154,-0.068 0.297,-0.13 0.434,-0.184 0.154,-0.061 0.3,-0.113 0.444,-0.157 0.153,-0.046 0.303,-0.083 0.458,-0.11 0.15,-0.027 0.304,-0.044 0.467,-0.052 0.148,-0.007 0.303,-0.007 0.471,10e-4 0.146,0.006 0.301,0.018 0.469,0.035 0.145,0.015 0.3,0.035 0.466,0.058 0.146,0.02 0.3,0.043 0.464,0.07 0.22,0.035 0.468,0.072 0.735,0.11 0.232,0.033 0.479,0.066 0.736,0.1 0.239,0.031 0.485,0.062 0.737,0.093 0.243,0.03 0.49,0.06 0.738,0.09 0.246,0.029 0.493,0.058 0.738,0.086 0.249,0.028 0.496,0.056 0.736,0.083 0.255,0.028 0.502,0.056 0.739,0.081 0.262,0.029 0.51,0.056 0.739,0.08 0.277,0.029 0.527,0.055 0.738,0.077 0.459,0.048 0.739,0.076 0.739,0.076 0,0 0.347,0.045 0.906,0.117 0.26,0.034 0.566,0.073 0.905,0.117 0.282,0.036 0.586,0.075 0.904,0.116 0.292,0.038 0.596,0.077 0.905,0.117 0.298,0.039 0.602,0.078 0.905,0.117 0.304,0.039 0.608,0.078 0.907,0.117 0.31,0.04 0.614,0.079 0.905,0.117 0.319,0.041 0.624,0.08 0.906,0.117 0.339,0.043 0.646,0.083 0.906,0.117 0.559,0.072 0.906,0.116 0.906,0.116 0,0 0.053,0.014 0.138,0.037 0.04,0.01 0.086,0.023 0.138,0.036 0.044,0.012 0.091,0.024 0.14,0.037 0.044,0.012 0.091,0.024 0.138,0.036 0.046,0.012 0.093,0.025 0.139,0.037 0.047,0.012 0.094,0.025 0.14,0.037 0.047,0.012 0.093,0.024 0.138,0.036 0.049,0.013 0.096,0.025 0.139,0.037 0.052,0.013 0.1,0.026 0.14,0.036 0.085,0.023 0.137,0.037 0.137,0.037 0,0 0.067,0.01 0.141,0.04 0.043,0.018 0.088,0.042 0.124,0.075 0.035,0.033 0.061,0.074 0.066,0.126 0.004,0.04 -0.006,0.087 -0.033,0.141 -0.019,0.036 -0.046,0.076 -0.083,0.119 -0.029,0.033 -0.063,0.068 -0.103,0.105 -0.033,0.03 -0.07,0.061 -0.112,0.094 -0.036,0.028 -0.075,0.057 -0.118,0.088 -0.038,0.026 -0.079,0.054 -0.122,0.082 -0.039,0.026 -0.081,0.052 -0.125,0.079 -0.066,0.04 -0.13,0.079 -0.193,0.117 -0.067,0.04 -0.131,0.079 -0.194,0.116 -0.067,0.04 -0.132,0.078 -0.195,0.115 -0.067,0.039 -0.132,0.077 -0.195,0.113 -0.068,0.039 -0.134,0.076 -0.196,0.112 -0.07,0.039 -0.136,0.075 -0.198,0.11 -0.071,0.039 -0.137,0.075 -0.199,0.108 -0.072,0.039 -0.139,0.074 -0.198,0.105 -0.079,0.04 -0.145,0.074 -0.201,0.102 -0.135,0.067 -0.202,0.097 -0.202,0.097 0,0 -0.123,0.05 -0.245,0.081 -0.113,0.029 -0.224,0.041 -0.24,-0.017 -0.01,-0.038 0.022,-0.106 0.122,-0.22 0.046,-0.051 0.105,-0.112 0.182,-0.184 0.054,-0.052 0.118,-0.109 0.191,-0.172 0.059,-0.052 0.125,-0.107 0.197,-0.166 0.062,-0.052 0.129,-0.106 0.201,-0.163 0.064,-0.051 0.131,-0.104 0.203,-0.16 0.065,-0.05 0.133,-0.103 0.205,-0.158 0.066,-0.05 0.134,-0.101 0.206,-0.155 0.175,-0.132 0.351,-0.264 0.526,-0.395 0.176,-0.132 0.352,-0.264 0.526,-0.394 0.177,-0.133 0.353,-0.265 0.526,-0.395 0.178,-0.133 0.354,-0.265 0.525,-0.394 0.18,-0.134 0.355,-0.266 0.526,-0.394 0.181,-0.136 0.357,-0.268 0.525,-0.394 0.185,-0.138 0.36,-0.27 0.526,-0.395 0.189,-0.141 0.365,-0.273 0.526,-0.394 0.2,-0.15 0.377,-0.282 0.525,-0.394 0.334,-0.25 0.526,-0.394 0.526,-0.394 0,0 0.216,-0.138 0.573,-0.355 0.165,-0.101 0.36,-0.219 0.577,-0.348 0.18,-0.107 0.375,-0.222 0.582,-0.341 0.187,-0.108 0.384,-0.22 0.586,-0.334 0.193,-0.107 0.391,-0.217 0.592,-0.325 0.197,-0.107 0.397,-0.212 0.597,-0.315 0.202,-0.104 0.404,-0.205 0.604,-0.302 0.208,-0.1 0.413,-0.195 0.612,-0.283 0.216,-0.095 0.425,-0.181 0.623,-0.256 0.231,-0.087 0.446,-0.158 0.642,-0.208 0.205,-0.053 0.41,-0.103 0.616,-0.15 0.206,-0.047 0.412,-0.091 0.62,-0.132 0.207,-0.04 0.414,-0.078 0.623,-0.112 0.207,-0.034 0.416,-0.065 0.627,-0.092 0.207,-0.028 0.417,-0.052 0.628,-0.073 0.209,-0.021 0.419,-0.04 0.632,-0.055 0.208,-0.014 0.419,-0.026 0.632,-0.035 0.208,-0.009 0.42,-0.015 0.633,-0.019 0.209,-0.003 0.42,-0.004 0.635,-0.002 0.208,0.002 0.42,0.006 0.634,0.012 0.151,0.005 0.298,0.01 0.441,0.015 0.151,0.005 0.297,0.011 0.439,0.018 0.152,0.007 0.298,0.015 0.439,0.025 0.153,0.011 0.299,0.024 0.438,0.039 0.155,0.017 0.301,0.038 0.435,0.063 0.158,0.03 0.3,0.065 0.426,0.108 0.156,0.055 0.287,0.121 0.388,0.203 0.121,0.097 0.2,0.216 0.233,0.363 0.028,0.124 0.022,0.268 -0.019,0.435 -0.031,0.124 -0.081,0.26 -0.153,0.411 -0.089,0.188 -0.191,0.384 -0.304,0.585 -0.104,0.184 -0.217,0.373 -0.34,0.565 -0.116,0.18 -0.239,0.363 -0.371,0.546 -0.125,0.175 -0.257,0.351 -0.397,0.527 -0.134,0.17 -0.275,0.339 -0.422,0.507 -0.144,0.163 -0.293,0.325 -0.447,0.485 -0.152,0.156 -0.309,0.311 -0.471,0.461 -0.16,0.149 -0.325,0.295 -0.495,0.436 -0.169,0.14 -0.342,0.276 -0.52,0.407 -0.176,0.13 -0.356,0.255 -0.541,0.373 -0.295,0.19 -0.77,0.467 -1.373,0.803 -0.412,0.231 -0.883,0.489 -1.395,0.767 -0.441,0.238 -0.912,0.49 -1.403,0.752 -0.455,0.241 -0.927,0.491 -1.407,0.743 -0.465,0.244 -0.937,0.491 -1.41,0.737 -0.473,0.246 -0.947,0.492 -1.412,0.732 -0.484,0.249 -0.958,0.492 -1.415,0.726 -0.498,0.254 -0.975,0.496 -1.419,0.72 -0.528,0.267 -1.009,0.507 -1.422,0.712 -0.708,0.349 -1.22,0.594 -1.437,0.684 -0.086,0.035 -0.172,0.07 -0.257,0.106 -0.087,0.036 -0.172,0.072 -0.258,0.108 -0.086,0.036 -0.172,0.072 -0.256,0.108 -0.087,0.036 -0.172,0.073 -0.255,0.108 -0.087,0.037 -0.172,0.074 -0.255,0.109 -0.088,0.038 -0.173,0.075 -0.255,0.11 -0.09,0.039 -0.175,0.076 -0.256,0.111 -0.091,0.04 -0.176,0.077 -0.254,0.111 -0.097,0.042 -0.182,0.079 -0.255,0.111 -0.161,0.071 -0.255,0.113 -0.255,0.113 0,0 0.192,-0.121 0.503,-0.313 0.144,-0.09 0.315,-0.196 0.504,-0.312 0.157,-0.097 0.327,-0.202 0.505,-0.311 0.163,-0.099 0.333,-0.203 0.506,-0.309 0.167,-0.101 0.337,-0.204 0.508,-0.306 0.17,-0.103 0.341,-0.205 0.51,-0.305 0.173,-0.103 0.344,-0.204 0.51,-0.3 0.179,-0.104 0.351,-0.204 0.513,-0.295 0.189,-0.107 0.364,-0.204 0.518,-0.286 0.234,-0.125 0.42,-0.215 0.534,-0.257 0.112,-0.041 0.24,-0.096 0.375,-0.151 0.123,-0.051 0.251,-0.101 0.379,-0.142 0.136,-0.043 0.271,-0.074 0.396,-0.081 0.145,-0.008 0.278,0.016 0.387,0.091 0.096,0.066 0.172,0.172 0.223,0.33 0.034,0.107 0.056,0.239 0.063,0.398 0.005,0.119 0.003,0.253 -0.009,0.405 -0.01,0.122 -0.026,0.255 -0.048,0.401 -0.019,0.124 -0.043,0.257 -0.072,0.399 -0.025,0.124 -0.054,0.256 -0.087,0.395 -0.073,0.304 -0.154,0.624 -0.24,0.956 -0.081,0.309 -0.167,0.628 -0.257,0.952 -0.087,0.312 -0.177,0.629 -0.27,0.948 -0.092,0.314 -0.186,0.63 -0.281,0.945 -0.096,0.316 -0.193,0.631 -0.291,0.94 -0.101,0.319 -0.202,0.633 -0.302,0.937 -0.106,0.324 -0.211,0.636 -0.313,0.934 -0.114,0.331 -0.224,0.643 -0.329,0.93 -0.127,0.346 -0.245,0.656 -0.353,0.92 -0.181,0.443 -0.33,0.755 -0.431,0.884 -0.053,0.069 -0.12,0.141 -0.198,0.217 -0.065,0.064 -0.139,0.13 -0.217,0.197 -0.072,0.062 -0.148,0.124 -0.227,0.186 -0.076,0.06 -0.154,0.119 -0.233,0.178 -0.078,0.058 -0.157,0.116 -0.236,0.172 -0.081,0.057 -0.161,0.113 -0.24,0.167 -0.083,0.057 -0.164,0.111 -0.242,0.163 -0.087,0.058 -0.169,0.111 -0.245,0.161 -0.093,0.059 -0.177,0.113 -0.248,0.157 -0.155,0.097 -0.251,0.155 -0.251,0.155 0,0 -0.032,0.016 -0.111,-0.288 -0.02,-0.079 -0.043,-0.179 -0.07,-0.305 -0.019,-0.089 -0.039,-0.191 -0.062,-0.308 -0.017,-0.093 -0.036,-0.196 -0.056,-0.308 -0.016,-0.096 -0.034,-0.199 -0.052,-0.31 -0.016,-0.096 -0.033,-0.199 -0.05,-0.309 -0.015,-0.097 -0.031,-0.201 -0.048,-0.309 -0.015,-0.099 -0.03,-0.202 -0.046,-0.31 -0.015,-0.1 -0.03,-0.203 -0.045,-0.311 -0.015,-0.099 -0.029,-0.202 -0.044,-0.309 -0.028,-0.203 -0.058,-0.403 -0.088,-0.601 -0.032,-0.203 -0.065,-0.403 -0.098,-0.599 -0.034,-0.203 -0.07,-0.402 -0.106,-0.597 -0.037,-0.204 -0.076,-0.403 -0.114,-0.596 -0.041,-0.204 -0.082,-0.402 -0.123,-0.594 -0.044,-0.205 -0.089,-0.403 -0.132,-0.592 -0.048,-0.208 -0.095,-0.405 -0.141,-0.59 -0.053,-0.212 -0.104,-0.409 -0.152,-0.587 -0.06,-0.224 -0.115,-0.42 -0.164,-0.584 -0.092,-0.305 -0.161,-0.504 -0.196,-0.575 -0.03,-0.06 0.121,-0.203 0.389,-0.394 0.133,-0.094 0.295,-0.2 0.477,-0.314 0.15,-0.094 0.315,-0.193 0.489,-0.294 0.159,-0.093 0.326,-0.188 0.497,-0.283 0.164,-0.091 0.332,-0.182 0.502,-0.272 0.169,-0.09 0.339,-0.178 0.507,-0.263 0.173,-0.088 0.345,-0.173 0.511,-0.253 0.18,-0.087 0.355,-0.168 0.52,-0.241 0.191,-0.085 0.368,-0.16 0.527,-0.221 0.229,-0.088 0.417,-0.147 0.546,-0.166 0.123,-0.019 0.239,-0.027 0.343,-0.023 0.133,0.006 0.246,0.033 0.329,0.083 0.099,0.06 0.155,0.155 0.15,0.29 -0.004,0.09 -0.035,0.198 -0.1,0.325 -0.044,0.088 -0.104,0.185 -0.182,0.292 -0.06,0.083 -0.131,0.172 -0.214,0.268 -0.069,0.08 -0.146,0.164 -0.232,0.253 -0.074,0.077 -0.155,0.158 -0.242,0.241 -0.079,0.075 -0.162,0.153 -0.251,0.234 -0.082,0.073 -0.167,0.149 -0.258,0.227 -0.139,0.12 -0.277,0.238 -0.414,0.353 -0.142,0.119 -0.282,0.234 -0.42,0.347 -0.145,0.117 -0.287,0.23 -0.427,0.338 -0.148,0.114 -0.294,0.224 -0.436,0.327 -0.153,0.11 -0.302,0.214 -0.447,0.309 -0.161,0.106 -0.315,0.201 -0.464,0.285 -0.171,0.096 -0.334,0.176 -0.487,0.24 -0.189,0.078 -0.364,0.129 -0.522,0.149 -0.206,0.027 -0.384,0 -0.527,-0.089 -0.136,-0.085 -0.241,-0.226 -0.31,-0.433 -0.033,-0.099 -0.064,-0.194 -0.094,-0.285 -0.032,-0.1 -0.063,-0.195 -0.093,-0.284 -0.034,-0.101 -0.067,-0.194 -0.1,-0.281 -0.04,-0.101 -0.079,-0.192 -0.122,-0.272 -0.052,-0.097 -0.108,-0.179 -0.172,-0.244 -0.072,-0.074 -0.155,-0.126 -0.253,-0.154 -0.086,-0.025 -0.183,-0.031 -0.296,-0.018 -0.088,0.01 -0.184,0.031 -0.292,0.065 -0.085,0.027 -0.178,0.062 -0.279,0.105 -0.085,0.036 -0.175,0.078 -0.271,0.126 -0.225,0.113 -0.586,0.293 -1.044,0.518 -0.309,0.152 -0.663,0.325 -1.047,0.511 -0.33,0.16 -0.682,0.33 -1.05,0.506 -0.34,0.162 -0.694,0.33 -1.054,0.5 -0.348,0.163 -0.702,0.328 -1.057,0.491 -0.354,0.163 -0.71,0.325 -1.061,0.482 -0.362,0.162 -0.72,0.32 -1.067,0.469 -0.373,0.161 -0.734,0.312 -1.075,0.45 -0.393,0.159 -0.76,0.3 -1.089,0.417 -0.456,0.163 -0.839,0.278 -1.117,0.33 -0.134,0.025 -0.268,0.05 -0.402,0.075 -0.135,0.025 -0.269,0.051 -0.402,0.077 -0.135,0.026 -0.269,0.052 -0.402,0.077 -0.136,0.027 -0.27,0.053 -0.402,0.08 -0.137,0.027 -0.271,0.054 -0.402,0.08 -0.139,0.028 -0.273,0.055 -0.402,0.081 -0.141,0.028 -0.275,0.056 -0.401,0.082 -0.144,0.029 -0.278,0.057 -0.401,0.082 -0.152,0.032 -0.287,0.06 -0.401,0.084 -0.254,0.053 -0.401,0.085 -0.401,0.085 0,0 -0.05,0.012 -0.129,0.008 -0.037,-0.002 -0.08,-0.007 -0.128,-0.019 -0.038,-0.01 -0.08,-0.023 -0.122,-0.043 -0.037,-0.016 -0.075,-0.037 -0.114,-0.063 -0.033,-0.022 -0.067,-0.048 -0.102,-0.079 -0.03,-0.027 -0.061,-0.058 -0.091,-0.092 -0.027,-0.031 -0.053,-0.065 -0.08,-0.102 -0.023,-0.034 -0.047,-0.07 -0.07,-0.109 -0.021,-0.036 -0.041,-0.074 -0.061,-0.114 -0.018,-0.037 -0.036,-0.076 -0.053,-0.117 -0.031,-0.076 -0.068,-0.144 -0.109,-0.208 -0.045,-0.069 -0.093,-0.131 -0.143,-0.188 -0.055,-0.062 -0.11,-0.118 -0.163,-0.169 -0.064,-0.061 -0.123,-0.115 -0.169,-0.164 -0.073,-0.075 -0.117,-0.139 -0.105,-0.202 0.011,-0.051 0.06,-0.102 0.164,-0.158 0.055,-0.029 0.126,-0.06 0.215,-0.093 0.065,-0.024 0.139,-0.049 0.223,-0.075 0.068,-0.022 0.143,-0.044 0.225,-0.068 0.071,-0.02 0.146,-0.041 0.227,-0.063 0.126,-0.034 0.254,-0.066 0.381,-0.098 0.128,-0.032 0.257,-0.062 0.384,-0.092 0.129,-0.03 0.258,-0.06 0.384,-0.088 0.131,-0.03 0.259,-0.059 0.383,-0.088 0.134,-0.03 0.263,-0.06 0.385,-0.09 0.136,-0.033 0.264,-0.065 0.381,-0.098 0.144,-0.04 0.271,-0.08 0.376,-0.121 0.173,-0.067 0.288,-0.135 0.324,-0.209 0.04,-0.085 -0.024,-0.176 -0.224,-0.28 -0.091,-0.047 -0.212,-0.097 -0.364,-0.15 -0.194,-0.067 -0.44,-0.15 -0.725,-0.242 -0.222,-0.072 -0.466,-0.15 -0.727,-0.233 -0.232,-0.073 -0.477,-0.15 -0.729,-0.229 -0.238,-0.074 -0.483,-0.15 -0.731,-0.227 -0.242,-0.075 -0.488,-0.15 -0.732,-0.225 -0.246,-0.076 -0.491,-0.15 -0.731,-0.224 -0.25,-0.076 -0.496,-0.151 -0.73,-0.222 -0.259,-0.078 -0.504,-0.152 -0.732,-0.221 -0.275,-0.083 -0.523,-0.158 -0.733,-0.221 -0.453,-0.136 -0.732,-0.22 -0.732,-0.22 0,0 -0.162,0 -0.413,0.007 -0.119,0.003 -0.259,0.007 -0.412,0.014 -0.13,0.005 -0.268,0.012 -0.411,0.021 -0.134,0.009 -0.272,0.019 -0.41,0.031 -0.138,0.012 -0.275,0.027 -0.409,0.043 -0.142,0.018 -0.28,0.039 -0.408,0.063 -0.149,0.027 -0.285,0.059 -0.4,0.097 -0.173,0.055 -0.299,0.122 -0.35,0.203 -0.06,0.093 -0.022,0.204 0.156,0.337 0.085,0.064 0.202,0.133 0.355,0.207 0.183,0.088 0.377,0.175 0.579,0.26 0.189,0.081 0.387,0.16 0.588,0.238 0.195,0.076 0.394,0.15 0.595,0.223 0.199,0.071 0.399,0.142 0.599,0.211 0.202,0.069 0.403,0.137 0.602,0.203 0.205,0.069 0.408,0.136 0.604,0.2 0.209,0.069 0.412,0.135 0.604,0.199 0.215,0.071 0.417,0.139 0.603,0.203 0.227,0.078 0.428,0.151 0.597,0.218 0.313,0.125 0.512,0.229 0.544,0.308 0.04,0.101 -0.07,0.029 -0.289,-0.106 -0.091,-0.057 -0.201,-0.124 -0.327,-0.194 -0.102,-0.057 -0.215,-0.117 -0.337,-0.174 -0.11,-0.052 -0.228,-0.102 -0.351,-0.147 -0.116,-0.042 -0.238,-0.08 -0.363,-0.111 -0.121,-0.029 -0.245,-0.053 -0.373,-0.067 -0.123,-0.015 -0.25,-0.021 -0.378,-0.016 -0.124,0.003 -0.25,0.017 -0.377,0.042 -0.121,0.023 -0.243,0.057 -0.366,0.103 -0.114,0.042 -0.229,0.095 -0.344,0.159 -0.31,0.174 -0.923,0.486 -1.747,0.888 -0.515,0.251 -1.112,0.537 -1.768,0.846 -0.555,0.26 -1.152,0.537 -1.778,0.823 -0.575,0.263 -1.175,0.533 -1.788,0.805 -0.589,0.261 -1.191,0.524 -1.797,0.784 -0.602,0.258 -1.2072,0.513 -1.807,0.759 -0.6161,0.254 -1.226,0.499 -1.8198,0.729 -0.6343,0.247 -1.2503,0.477 -1.8357,0.685 -0.6657,0.237 -1.2919,0.444 -1.8608,0.613 -0.7491,0.222 -1.3988,0.377 -1.9083,0.443 -0.3427,0.045 -0.692,0.081 -1.045,0.109 -0.3468,0.027 -0.697,0.046 -1.048,0.057 -0.3501,0.011 -0.701,0.013 -1.0497,0.008 -0.3525,-0.006 -0.703,-0.021 -1.0483,-0.044 -0.3548,-0.023 -0.7043,-0.056 -1.0454,-0.098 -0.356,-0.044 -0.7028,-0.098 -1.0369,-0.163 -0.3562,-0.068 -0.6978,-0.149 -1.0206,-0.241 -0.3544,-0.102 -0.6861,-0.218 -0.9893,-0.348 -0.3464,-0.149 -0.6557,-0.317 -0.9194,-0.505 -0.3109,-0.221 -0.5583,-0.47 -0.7283,-0.746 -0.0984,-0.16 -0.1891,-0.334 -0.2713,-0.515 -0.0791,-0.175 -0.1504,-0.357 -0.2134,-0.542 -0.0628,-0.185 -0.1175,-0.373 -0.1633,-0.559 -0.0477,-0.194 -0.0859,-0.386 -0.1139,-0.571 -0.031,-0.204 -0.0497,-0.4 -0.0553,-0.581 -0.0069,-0.22 0.0057,-0.418 0.0393,-0.58 0.0517,-0.251 0.1534,-0.419 0.3104,-0.457 0.1333,-0.032 0.3066,0.029 0.5231,0.212 0.1202,0.102 0.2537,0.241 0.4011,0.422 0.108,0.133 0.2234,0.289 0.3465,0.469 0.2446,0.358 0.4986,0.739 0.7648,1.136 0.246,0.366 0.5024,0.745 0.7714,1.132 0.2551,0.366 0.5214,0.739 0.8009,1.112 0.2692,0.36 0.5505,0.721 0.8457,1.077 0.2877,0.348 0.5887,0.693 0.9043,1.029 0.3097,0.33 0.6335,0.653 0.973,0.964 0.3342,0.306 0.6835,0.601 1.0493,0.88 0.36,0.275 0.7359,0.536 1.1291,0.778 0.3845,0.236 0.7856,0.455 1.2044,0.653 0.406,0.192 0.8286,0.364 1.269,0.513 0.5983,0.202 1.2591,0.4 1.9691,0.588 0.6309,0.168 1.3006,0.327 1.9998,0.475 0.6499,0.137 1.3254,0.264 2.0189,0.378 0.6637,0.109 1.344,0.206 2.0346,0.288 0.674,0.08 1.358,0.146 2.046,0.195 0.682,0.048 1.369,0.08 2.053,0.093 0.689,0.013 1.376,0.006 2.054,-0.023 0.693,-0.029 1.378,-0.082 2.047,-0.16 0.695,-0.082 1.373,-0.191 2.027,-0.332 0.69,-0.148 1.352,-0.332 1.978,-0.553 0.599,-0.212 1.231,-0.449 1.883,-0.707 0.604,-0.239 1.227,-0.497 1.859,-0.769 0.606,-0.261 1.22,-0.535 1.837,-0.821 0.604,-0.281 1.211,-0.572 1.813,-0.872 0.603,-0.3 1.201,-0.609 1.788,-0.923 0.6,-0.322 1.188,-0.651 1.757,-0.982 0.596,-0.348 1.17,-0.7 1.715,-1.052 0.59,-0.382 1.146,-0.764 1.656,-1.144 0.581,-0.433 1.102,-0.862 1.55,-1.282 0.562,-0.527 1.006,-1.039 1.302,-1.525 0.138,-0.228 0.277,-0.454 0.414,-0.68 0.14,-0.229 0.279,-0.456 0.415,-0.681 0.14,-0.23 0.278,-0.458 0.413,-0.682 0.139,-0.232 0.275,-0.46 0.406,-0.684 0.139,-0.235 0.272,-0.466 0.399,-0.69 0.136,-0.24 0.265,-0.473 0.385,-0.698 0.132,-0.248 0.253,-0.485 0.361,-0.709 0.126,-0.262 0.233,-0.506 0.318,-0.73 0.112,-0.293 0.186,-0.551 0.215,-0.767 0.046,-0.35 -0.029,-0.59 -0.259,-0.689 -0.219,-0.094 -0.448,-0.124 -0.716,-0.095 -0.208,0.022 -0.44,0.08 -0.71,0.171 -0.204,0.069 -0.429,0.157 -0.683,0.264 -0.204,0.086 -0.426,0.183 -0.669,0.292 -0.207,0.093 -0.428,0.194 -0.667,0.302 -0.208,0.095 -0.429,0.196 -0.665,0.303 -0.211,0.095 -0.433,0.196 -0.668,0.3 -0.213,0.095 -0.436,0.194 -0.669,0.296 -0.215,0.094 -0.438,0.191 -0.672,0.291 -0.216,0.093 -0.44,0.188 -0.672,0.286 -0.215,0.09 -0.423,0.177 -0.625,0.261 -0.215,0.09 -0.424,0.177 -0.625,0.261 -0.217,0.09 -0.425,0.176 -0.626,0.259 -0.218,0.091 -0.427,0.177 -0.627,0.259 -0.22,0.091 -0.429,0.176 -0.627,0.258 -0.223,0.091 -0.432,0.176 -0.628,0.256 -0.226,0.092 -0.436,0.177 -0.63,0.255 -0.232,0.093 -0.442,0.177 -0.629,0.252 -0.249,0.099 -0.459,0.182 -0.631,0.25 -0.434,0.17 -0.632,0.244 -0.632,0.244 0,0 -0.144,0.068 -0.318,0.132 -0.107,0.04 -0.226,0.078 -0.329,0.098 -0.162,0.031 -0.284,0.018 -0.267,-0.104 0.01,-0.065 0.059,-0.161 0.164,-0.298 0.058,-0.074 0.131,-0.16 0.224,-0.26 0.069,-0.075 0.149,-0.157 0.24,-0.247 0.074,-0.074 0.157,-0.154 0.248,-0.239 0.078,-0.073 0.162,-0.151 0.253,-0.233 0.08,-0.073 0.165,-0.149 0.256,-0.229 0.082,-0.072 0.168,-0.148 0.259,-0.226 0.227,-0.196 0.454,-0.395 0.68,-0.597 0.225,-0.2 0.449,-0.403 0.671,-0.606 0.223,-0.204 0.445,-0.409 0.664,-0.614 0.222,-0.208 0.442,-0.416 0.657,-0.621 0.222,-0.212 0.44,-0.422 0.651,-0.627 0.223,-0.217 0.439,-0.428 0.646,-0.633 0.224,-0.222 0.438,-0.435 0.64,-0.638 0.228,-0.229 0.441,-0.444 0.635,-0.642 0.241,-0.245 0.453,-0.464 0.631,-0.648 0.395,-0.41 0.624,-0.654 0.624,-0.654 0,0 0.143,-0.17 0.16,-0.315 0.012,-0.101 -0.036,-0.191 -0.234,-0.204 -0.086,-0.006 -0.202,0.002 -0.354,0.031 -0.1,0.019 -0.215,0.046 -0.347,0.083 -0.103,0.029 -0.217,0.064 -0.342,0.106 -0.105,0.035 -0.217,0.075 -0.338,0.12 -0.104,0.038 -0.215,0.081 -0.333,0.127 -0.105,0.042 -0.215,0.086 -0.331,0.134 -0.105,0.044 -0.214,0.09 -0.329,0.14 -0.105,0.045 -0.214,0.093 -0.327,0.143 -0.194,0.087 -0.369,0.157 -0.525,0.213 -0.216,0.077 -0.397,0.126 -0.547,0.151 -0.279,0.047 -0.449,0.008 -0.536,-0.092 -0.098,-0.113 -0.089,-0.306 -0.011,-0.542 0.052,-0.156 0.134,-0.331 0.236,-0.516 0.086,-0.156 0.186,-0.32 0.294,-0.484 0.102,-0.156 0.212,-0.314 0.323,-0.467 0.114,-0.157 0.229,-0.31 0.34,-0.453 0.127,-0.164 0.248,-0.315 0.353,-0.443 0.216,-0.264 0.365,-0.434 0.365,-0.434 0,0 0.135,-0.151 0.356,-0.392 0.102,-0.112 0.223,-0.244 0.357,-0.388 0.112,-0.121 0.234,-0.251 0.362,-0.387 0.117,-0.124 0.239,-0.253 0.364,-0.384 0.121,-0.125 0.244,-0.252 0.368,-0.379 0.124,-0.126 0.249,-0.252 0.373,-0.375 0.128,-0.127 0.255,-0.251 0.378,-0.369 0.134,-0.128 0.265,-0.249 0.388,-0.359 0.145,-0.13 0.281,-0.245 0.403,-0.341 0.188,-0.146 0.343,-0.245 0.448,-0.277 0.101,-0.03 0.25,-0.038 0.43,-0.026 0.129,0.008 0.274,0.027 0.428,0.055 0.135,0.025 0.277,0.058 0.42,0.097 0.137,0.038 0.276,0.081 0.412,0.131 0.137,0.05 0.271,0.105 0.398,0.167 0.135,0.065 0.262,0.136 0.375,0.212 0.129,0.087 0.241,0.181 0.328,0.281 0.103,0.118 0.172,0.246 0.194,0.38 0.022,0.132 -0.001,0.271 -0.081,0.416 -0.059,0.108 -0.149,0.218 -0.275,0.332 -0.098,0.088 -0.198,0.176 -0.298,0.261 -0.102,0.087 -0.204,0.172 -0.306,0.255 -0.104,0.085 -0.208,0.167 -0.312,0.248 -0.106,0.083 -0.212,0.163 -0.316,0.241 -0.109,0.082 -0.216,0.16 -0.321,0.236 -0.111,0.081 -0.22,0.157 -0.325,0.231 -0.114,0.079 -0.224,0.154 -0.328,0.224 -0.118,0.08 -0.229,0.153 -0.331,0.219 -0.127,0.082 -0.24,0.154 -0.335,0.214 -0.214,0.133 -0.341,0.207 -0.341,0.207 0,0 -0.093,0.047 -0.255,0.107 -0.074,0.027 -0.162,0.057 -0.263,0.087 -0.082,0.024 -0.171,0.048 -0.268,0.07 -0.085,0.02 -0.176,0.038 -0.272,0.054 -0.088,0.014 -0.18,0.026 -0.275,0.035 -0.089,0.008 -0.182,0.014 -0.276,0.016 -0.091,0.002 -0.183,0.001 -0.277,-0.004 -0.09,-0.005 -0.183,-0.013 -0.276,-0.026 -0.09,-0.012 -0.181,-0.028 -0.272,-0.048 -0.089,-0.02 -0.178,-0.043 -0.268,-0.072 -0.152,-0.048 -0.291,-0.098 -0.422,-0.148 -0.148,-0.057 -0.285,-0.113 -0.416,-0.163 -0.146,-0.054 -0.285,-0.102 -0.426,-0.134 -0.142,-0.033 -0.287,-0.051 -0.442,-0.047 -0.137,0.004 -0.282,0.025 -0.441,0.068 -0.13,0.035 -0.269,0.084 -0.42,0.151 -0.124,0.054 -0.257,0.12 -0.4,0.199 -0.12,0.066 -0.248,0.142 -0.384,0.228 -0.118,0.074 -0.242,0.156 -0.374,0.246 -0.115,0.079 -0.237,0.165 -0.364,0.258 -0.16,0.116 -0.311,0.221 -0.454,0.316 -0.169,0.112 -0.326,0.209 -0.47,0.291 -0.187,0.105 -0.352,0.185 -0.496,0.24 -0.241,0.091 -0.421,0.111 -0.538,0.059 -0.14,-0.062 -0.189,-0.226 -0.143,-0.491 0.025,-0.145 0.078,-0.321 0.161,-0.527 0.061,-0.151 0.137,-0.319 0.23,-0.502 0.076,-0.152 0.163,-0.314 0.261,-0.487 0.085,-0.15 0.178,-0.309 0.279,-0.476 0.092,-0.149 0.189,-0.305 0.294,-0.468 0.103,-0.161 0.205,-0.317 0.305,-0.468 0.105,-0.16 0.209,-0.315 0.31,-0.464 0.108,-0.16 0.214,-0.313 0.317,-0.461 0.111,-0.159 0.218,-0.31 0.323,-0.456 0.113,-0.158 0.223,-0.308 0.329,-0.451 0.117,-0.158 0.23,-0.307 0.337,-0.447 0.121,-0.157 0.236,-0.304 0.344,-0.439 0.127,-0.16 0.245,-0.304 0.352,-0.433 0.139,-0.166 0.261,-0.308 0.363,-0.424 0.245,-0.277 0.379,-0.411 0.379,-0.411 0,0 0.086,-0.035 0.228,-0.078 0.066,-0.02 0.144,-0.043 0.232,-0.065 0.072,-0.018 0.151,-0.035 0.235,-0.051 0.076,-0.015 0.156,-0.028 0.239,-0.039 0.078,-0.01 0.159,-0.017 0.241,-0.022 0.08,-0.005 0.16,-0.006 0.242,-0.004 0.08,0.002 0.161,0.008 0.241,0.019 0.08,0.01 0.159,0.026 0.237,0.046 0.078,0.02 0.154,0.046 0.228,0.078 0.074,0.032 0.146,0.07 0.214,0.116 0.071,0.047 0.135,0.096 0.193,0.147 0.064,0.057 0.12,0.115 0.169,0.175 0.054,0.066 0.099,0.134 0.136,0.204 0.039,0.074 0.069,0.149 0.09,0.226 0.022,0.079 0.035,0.16 0.04,0.241 0.004,0.081 0.001,0.162 -0.01,0.243 -0.011,0.08 -0.029,0.16 -0.054,0.239 -0.024,0.077 -0.053,0.153 -0.089,0.228 -0.034,0.072 -0.073,0.144 -0.116,0.214 -0.043,0.068 -0.09,0.135 -0.14,0.2 -0.093,0.12 -0.176,0.174 -0.237,0.178 -0.085,0.005 -0.125,-0.09 -0.083,-0.245 0.021,-0.078 0.063,-0.171 0.13,-0.274 0.048,-0.075 0.11,-0.155 0.187,-0.239 0.063,-0.068 0.135,-0.138 0.219,-0.209 0.072,-0.061 0.152,-0.124 0.24,-0.186 0.079,-0.055 0.164,-0.11 0.256,-0.165 0.083,-0.049 0.171,-0.098 0.266,-0.146 0.086,-0.044 0.177,-0.088 0.274,-0.13 0.089,-0.04 0.183,-0.079 0.281,-0.117 0.174,-0.067 0.337,-0.129 0.489,-0.184 0.177,-0.065 0.34,-0.121 0.493,-0.171 0.18,-0.058 0.345,-0.107 0.502,-0.147 0.18,-0.045 0.349,-0.08 0.512,-0.104 0.176,-0.026 0.347,-0.04 0.521,-0.044 0.168,-0.005 0.34,0.001 0.523,0.014 0.162,0.011 0.334,0.029 0.52,0.051 0.16,0.02 0.331,0.043 0.517,0.07 0.16,0.023 0.332,0.048 0.517,0.075 0.162,0.023 0.334,0.049 0.518,0.075 0.162,0.023 0.324,0.04 0.482,0.05 0.165,0.011 0.326,0.015 0.485,0.014 0.165,-0.002 0.327,-0.009 0.485,-0.021 0.165,-0.013 0.326,-0.032 0.483,-0.055 0.164,-0.024 0.323,-0.053 0.477,-0.086 0.164,-0.034 0.322,-0.073 0.472,-0.115 0.163,-0.045 0.318,-0.093 0.463,-0.142 0.164,-0.057 0.316,-0.114 0.454,-0.17 0.171,-0.07 0.32,-0.137 0.444,-0.197 0.274,-0.132 0.428,-0.227 0.428,-0.227 0,0 -0.025,0.071 -0.071,0.166 -0.023,0.049 -0.052,0.104 -0.085,0.159 -0.031,0.051 -0.067,0.101 -0.106,0.146 -0.041,0.048 -0.087,0.089 -0.136,0.117 -0.054,0.031 -0.112,0.046 -0.174,0.037 -0.051,-0.008 -0.104,-0.033 -0.159,-0.079 -0.04,-0.033 -0.08,-0.078 -0.122,-0.135 -0.031,-0.044 -0.063,-0.095 -0.095,-0.155 -0.026,-0.048 -0.052,-0.102 -0.079,-0.162 -0.023,-0.052 -0.045,-0.107 -0.068,-0.167 -0.075,-0.196 -0.14,-0.48 -0.197,-0.826 -0.041,-0.252 -0.078,-0.537 -0.111,-0.845 -0.028,-0.267 -0.054,-0.551 -0.077,-0.847 -0.021,-0.275 -0.041,-0.56 -0.058,-0.849 -0.016,-0.281 -0.031,-0.567 -0.044,-0.851 -0.013,-0.286 -0.024,-0.571 -0.034,-0.85 -0.01,-0.292 -0.019,-0.577 -0.026,-0.851 -0.008,-0.3 -0.014,-0.586 -0.019,-0.851 -0.006,-0.318 -0.01,-0.606 -0.013,-0.85 -0.005,-0.526 -0.005,-0.851 -0.005,-0.851 0,0 -0.211,-0.696 -0.595,-1.816 -0.178,-0.518 -0.393,-1.126 -0.642,-1.799 -0.205,-0.556 -0.434,-1.156 -0.684,-1.784 -0.226,-0.57 -0.469,-1.162 -0.728,-1.767 -0.246,-0.574 -0.506,-1.159 -0.779,-1.746 -0.268,-0.574 -0.548,-1.15 -0.838,-1.718 -0.293,-0.571 -0.597,-1.134 -0.911,-1.68 -0.324,-0.564 -0.659,-1.109 -1.003,-1.626 -0.366,-0.55 -0.743,-1.068 -1.128,-1.542 -0.426,-0.523 -0.863,-0.992 -1.309,-1.39 -0.264,-0.236 -0.523,-0.459 -0.776,-0.67 -0.274,-0.228 -0.541,-0.441 -0.802,-0.641 -0.284,-0.217 -0.561,-0.417 -0.829,-0.601 -0.299,-0.205 -0.588,-0.389 -0.866,-0.552 -0.316,-0.186 -0.618,-0.346 -0.905,-0.48 -0.341,-0.159 -0.66,-0.281 -0.956,-0.367 -0.376,-0.109 -0.713,-0.16 -1.01,-0.154 -0.393,0.008 -0.713,0.115 -0.955,0.317 -0.24,0.201 -0.402,0.498 -0.476,0.885 -0.056,0.29 -0.064,0.631 -0.019,1.022 0.021,0.185 0.043,0.363 0.065,0.535 0.025,0.185 0.05,0.363 0.075,0.534 0.028,0.186 0.055,0.363 0.083,0.533 0.03,0.187 0.06,0.364 0.088,0.532 0.032,0.189 0.063,0.366 0.09,0.533 0.032,0.19 0.06,0.367 0.083,0.533 0.027,0.194 0.046,0.372 0.056,0.537 0.011,0.198 0.008,0.376 -0.014,0.538 -0.027,0.19 -0.08,0.357 -0.168,0.509 -0.085,0.146 -0.202,0.277 -0.358,0.4 -0.064,0.05 -0.124,0.097 -0.181,0.139 -0.066,0.05 -0.126,0.095 -0.183,0.136 -0.067,0.05 -0.127,0.094 -0.182,0.135 -0.069,0.051 -0.128,0.096 -0.179,0.139 -0.066,0.057 -0.118,0.109 -0.156,0.165 -0.044,0.062 -0.072,0.129 -0.086,0.209 -0.011,0.065 -0.013,0.139 -0.008,0.227 0.004,0.066 0.012,0.141 0.024,0.227 0.01,0.067 0.022,0.142 0.035,0.224 0.012,0.069 0.025,0.144 0.039,0.225 0.021,0.119 0.043,0.232 0.062,0.341 0.022,0.119 0.041,0.233 0.056,0.342 0.017,0.12 0.029,0.235 0.033,0.345 0.004,0.119 -0.001,0.233 -0.02,0.345 -0.018,0.112 -0.049,0.221 -0.097,0.331 -0.043,0.099 -0.099,0.198 -0.172,0.299 -0.062,0.087 -0.136,0.174 -0.223,0.264 -0.074,0.077 -0.158,0.156 -0.253,0.237 -0.083,0.07 -0.173,0.141 -0.271,0.215 -0.088,0.066 -0.182,0.133 -0.283,0.202 -0.101,0.068 -0.199,0.134 -0.295,0.195 -0.103,0.067 -0.203,0.13 -0.301,0.188 -0.106,0.064 -0.209,0.122 -0.308,0.176 -0.11,0.059 -0.216,0.112 -0.318,0.158 -0.114,0.053 -0.224,0.097 -0.329,0.133 -0.12,0.041 -0.233,0.071 -0.341,0.09 -0.126,0.023 -0.244,0.03 -0.353,0.02 -0.124,-0.01 -0.237,-0.04 -0.341,-0.092 -0.102,-0.05 -0.195,-0.122 -0.28,-0.214 -0.073,-0.08 -0.14,-0.177 -0.201,-0.289 -0.039,-0.074 -0.081,-0.144 -0.126,-0.211 -0.046,-0.069 -0.094,-0.135 -0.144,-0.197 -0.053,-0.065 -0.107,-0.126 -0.163,-0.182 -0.059,-0.059 -0.12,-0.114 -0.182,-0.162 -0.067,-0.053 -0.135,-0.099 -0.203,-0.138 -0.073,-0.042 -0.147,-0.076 -0.22,-0.101 -0.081,-0.028 -0.161,-0.045 -0.239,-0.051 -0.084,-0.006 -0.165,0.001 -0.242,0.022 -0.076,0.022 -0.149,0.058 -0.215,0.109 -0.06,0.047 -0.116,0.107 -0.164,0.18 -0.058,0.086 -0.134,0.17 -0.217,0.253 -0.078,0.076 -0.161,0.152 -0.242,0.229 -0.083,0.078 -0.163,0.158 -0.231,0.239 -0.076,0.091 -0.137,0.185 -0.169,0.284 -0.034,0.103 -0.037,0.212 0.005,0.328 0.032,0.088 0.09,0.18 0.18,0.278 0.065,0.071 0.147,0.145 0.249,0.221 0.08,0.061 0.172,0.123 0.277,0.188 0.087,0.054 0.183,0.109 0.288,0.166 0.092,0.049 0.191,0.099 0.298,0.151 0.117,0.057 0.229,0.11 0.337,0.159 0.119,0.055 0.232,0.105 0.34,0.152 0.121,0.053 0.235,0.101 0.343,0.145 0.124,0.051 0.239,0.097 0.346,0.139 0.127,0.051 0.243,0.095 0.347,0.137 0.133,0.052 0.247,0.099 0.344,0.144 0.142,0.066 0.245,0.129 0.312,0.2 0.086,0.092 0.113,0.198 0.088,0.347 -0.016,0.097 -0.054,0.212 -0.113,0.354 -0.041,0.1 -0.093,0.212 -0.154,0.341 -0.044,0.094 -0.088,0.182 -0.131,0.264 -0.049,0.093 -0.096,0.178 -0.142,0.258 -0.053,0.091 -0.103,0.175 -0.151,0.253 -0.056,0.09 -0.109,0.173 -0.157,0.25 -0.056,0.089 -0.107,0.172 -0.151,0.252 -0.05,0.09 -0.091,0.177 -0.122,0.267 -0.032,0.09 -0.054,0.184 -0.064,0.287 -0.009,0.089 -0.009,0.186 0.001,0.294 0.008,0.088 0.022,0.185 0.044,0.291 0.018,0.088 0.042,0.183 0.07,0.286 0.025,0.089 0.046,0.177 0.064,0.261 0.02,0.091 0.035,0.179 0.048,0.265 0.014,0.092 0.024,0.181 0.031,0.266 0.008,0.093 0.012,0.182 0.015,0.268 0.003,0.094 0.003,0.184 0.002,0.27 -10e-4,0.093 -0.003,0.183 -0.005,0.268 -0.002,0.094 -0.003,0.184 -0.002,0.269 0.002,0.093 0.007,0.182 0.018,0.267 0.013,0.091 0.033,0.177 0.065,0.259 0.031,0.082 0.073,0.16 0.129,0.235 0.077,0.102 0.144,0.214 0.219,0.328 0.068,0.105 0.141,0.212 0.232,0.318 0.079,0.092 0.171,0.183 0.284,0.271 0.094,0.073 0.203,0.144 0.331,0.21 0.106,0.055 0.226,0.107 0.361,0.156 0.113,0.041 0.238,0.079 0.375,0.114 0.119,0.03 0.247,0.057 0.385,0.083 0.122,0.021 0.251,0.041 0.389,0.059 0.123,0.015 0.254,0.029 0.391,0.041 0.125,0.011 0.255,0.02 0.392,0.027 0.136,0.007 0.267,0.014 0.395,0.02 0.136,0.007 0.267,0.014 0.394,0.02 0.136,0.006 0.267,0.012 0.394,0.018 0.137,0.006 0.268,0.012 0.394,0.017 0.138,0.006 0.269,0.012 0.394,0.017 0.139,0.005 0.27,0.01 0.393,0.015 0.142,0.005 0.274,0.009 0.396,0.013 0.145,0.005 0.277,0.008 0.394,0.012 0.155,0.004 0.287,0.007 0.395,0.009 0.268,0.005 0.394,0.005 0.394,0.005 0,0 0.08,-0.017 0.171,-0.01 0.055,0.004 0.115,0.018 0.163,0.049 0.044,0.029 0.079,0.072 0.093,0.139 0.01,0.045 0.01,0.102 -0.004,0.171 -0.01,0.048 -0.027,0.102 -0.051,0.163 -0.019,0.047 -0.043,0.099 -0.072,0.156 -0.024,0.046 -0.051,0.096 -0.083,0.148 -0.027,0.046 -0.058,0.094 -0.091,0.145 -0.03,0.045 -0.062,0.092 -0.097,0.141 -0.031,0.044 -0.065,0.091 -0.102,0.139 -0.067,0.09 -0.134,0.179 -0.201,0.265 -0.068,0.09 -0.136,0.178 -0.203,0.263 -0.07,0.089 -0.138,0.176 -0.206,0.261 -0.071,0.088 -0.14,0.175 -0.208,0.258 -0.072,0.089 -0.142,0.174 -0.211,0.257 -0.073,0.088 -0.144,0.173 -0.212,0.254 -0.076,0.09 -0.148,0.174 -0.216,0.253 -0.078,0.091 -0.151,0.175 -0.217,0.251 -0.084,0.095 -0.157,0.178 -0.22,0.248 -0.142,0.158 -0.223,0.246 -0.223,0.246 0,0 0.038,-0.109 0.123,-0.264 0.041,-0.074 0.093,-0.159 0.156,-0.247 0.053,-0.074 0.115,-0.151 0.185,-0.226 0.064,-0.068 0.135,-0.135 0.214,-0.198 0.074,-0.058 0.154,-0.113 0.242,-0.162 0.082,-0.046 0.17,-0.086 0.265,-0.12 0.089,-0.031 0.183,-0.055 0.283,-0.072 0.092,-0.016 0.189,-0.024 0.291,-0.025 0.093,-0.001 0.189,0.005 0.29,0.018 0.092,0.012 0.188,0.03 0.287,0.055 0.111,0.027 0.214,0.056 0.31,0.086 0.109,0.034 0.21,0.069 0.303,0.106 0.107,0.042 0.204,0.087 0.292,0.132 0.102,0.053 0.193,0.108 0.275,0.166 0.093,0.065 0.175,0.132 0.248,0.202 0.08,0.076 0.151,0.155 0.218,0.235 0.068,0.083 0.131,0.168 0.196,0.254 0.062,0.085 0.126,0.17 0.195,0.257 0.064,0.08 0.133,0.16 0.211,0.242 0.07,0.072 0.148,0.145 0.235,0.218 0.139,0.116 0.395,0.238 0.732,0.353 0.228,0.078 0.493,0.153 0.785,0.221 0.249,0.058 0.518,0.112 0.8,0.158 0.26,0.043 0.532,0.08 0.808,0.108 0.268,0.028 0.54,0.048 0.812,0.059 0.274,0.011 0.547,0.012 0.816,0.003 0.277,-0.01 0.55,-0.031 0.812,-0.065 0.281,-0.038 0.55,-0.09 0.8,-0.16 0.278,-0.078 0.533,-0.178 0.756,-0.303 0.251,-0.14 0.462,-0.312 0.62,-0.52 0.097,-0.128 0.19,-0.261 0.277,-0.396 0.088,-0.135 0.171,-0.273 0.249,-0.412 0.08,-0.142 0.154,-0.285 0.224,-0.429 0.072,-0.146 0.139,-0.293 0.201,-0.438 0.065,-0.152 0.125,-0.302 0.18,-0.45 0.059,-0.154 0.112,-0.307 0.161,-0.454 0.052,-0.16 0.1,-0.314 0.142,-0.462 0.048,-0.165 0.089,-0.322 0.125,-0.466 0.044,-0.178 0.079,-0.337 0.107,-0.472 0.061,-0.296 0.086,-0.475 0.086,-0.475 0,0 0.014,-0.333 -0.057,-0.948 -0.03,-0.263 -0.075,-0.577 -0.144,-0.938 -0.053,-0.281 -0.12,-0.591 -0.204,-0.927 -0.072,-0.286 -0.156,-0.591 -0.255,-0.914 -0.088,-0.286 -0.188,-0.587 -0.3,-0.901 -0.102,-0.285 -0.215,-0.581 -0.34,-0.887 -0.115,-0.281 -0.24,-0.572 -0.376,-0.871 -0.127,-0.278 -0.263,-0.563 -0.409,-0.856 -0.138,-0.274 -0.285,-0.555 -0.441,-0.842 -0.147,-0.27 -0.303,-0.545 -0.468,-0.825 -0.21,-0.356 -0.418,-0.71 -0.623,-1.06 -0.21,-0.358 -0.417,-0.713 -0.62,-1.062 -0.21,-0.36 -0.416,-0.714 -0.617,-1.062 -0.21,-0.363 -0.415,-0.719 -0.615,-1.066 -0.21,-0.365 -0.414,-0.721 -0.611,-1.066 -0.21,-0.37 -0.413,-0.727 -0.606,-1.07 -0.212,-0.376 -0.413,-0.734 -0.601,-1.073 -0.216,-0.386 -0.414,-0.747 -0.594,-1.078 -0.223,-0.41 -0.418,-0.775 -0.579,-1.085 -0.289,-0.557 -0.471,-0.942 -0.522,-1.112 -0.044,-0.148 -0.085,-0.389 -0.157,-0.69 -0.048,-0.203 -0.109,-0.433 -0.194,-0.681 -0.072,-0.208 -0.16,-0.427 -0.27,-0.653 -0.099,-0.201 -0.215,-0.407 -0.353,-0.614 -0.125,-0.187 -0.268,-0.374 -0.432,-0.56 -0.149,-0.168 -0.316,-0.335 -0.503,-0.497 -0.17,-0.147 -0.356,-0.291 -0.561,-0.43 -0.186,-0.126 -0.388,-0.248 -0.606,-0.364 -0.199,-0.106 -0.412,-0.207 -0.64,-0.303 -0.209,-0.087 -0.43,-0.17 -0.665,-0.247 -0.581,-0.19 -1.284,-0.427 -2.085,-0.688 -0.64,-0.208 -1.342,-0.431 -2.094,-0.656 -0.669,-0.2 -1.376,-0.402 -2.114,-0.597 -0.687,-0.182 -1.401,-0.357 -2.134,-0.52 -0.702,-0.156 -1.422,-0.3 -2.154,-0.425 -0.715,-0.123 -1.441,-0.229 -2.173,-0.312 -0.726,-0.082 -1.458,-0.142 -2.189,-0.173 -0.734,-0.031 -1.468,-0.034 -2.195,-0.002 -0.737,0.032 -1.468,0.099 -2.186,0.208 -0.73,0.11 -1.4467,0.262 -2.1443,0.464 -0.3342,0.096 -0.6543,0.187 -0.961,0.274 -0.3366,0.094 -0.6571,0.183 -0.9625,0.267 -0.3403,0.093 -0.6618,0.179 -0.9658,0.26 -0.3442,0.091 -0.666,0.174 -0.9673,0.25 -0.3501,0.089 -0.6726,0.169 -0.9706,0.242 -0.3573,0.087 -0.6794,0.162 -0.9715,0.23 -0.369,0.086 -0.6902,0.158 -0.9744,0.223 -0.3822,0.087 -0.6974,0.16 -0.9718,0.231 -0.3684,0.097 -0.6631,0.191 -0.9474,0.315 -0.281,0.122 -0.5519,0.273 -0.8736,0.482 -0.132,0.087 -0.2641,0.173 -0.3935,0.259 -0.1334,0.089 -0.2641,0.177 -0.3892,0.263 -0.1355,0.094 -0.2644,0.185 -0.3834,0.273 -0.1383,0.103 -0.2631,0.201 -0.3689,0.292 -0.1506,0.13 -0.2627,0.247 -0.3202,0.344 -0.0927,0.156 -0.0435,0.261 0.2147,0.289 0.114,0.012 0.2687,0.009 0.4699,-0.011 0.134,-0.013 0.2886,-0.034 0.4655,-0.064 0.1404,-0.023 0.2949,-0.052 0.4643,-0.086 0.1425,-0.028 0.2957,-0.061 0.4599,-0.098 0.1284,-0.029 0.2506,-0.055 0.3668,-0.079 0.1304,-0.027 0.2532,-0.051 0.3689,-0.073 0.1329,-0.024 0.2563,-0.045 0.3707,-0.063 0.1368,-0.021 0.2608,-0.037 0.3729,-0.049 0.1441,-0.015 0.2684,-0.023 0.3747,-0.025 0.1648,-0.002 0.2865,0.01 0.3721,0.033 0.1851,0.05 0.2011,0.153 0.117,0.272 -0.0557,0.079 -0.1553,0.165 -0.2788,0.247 -0.0975,0.065 -0.2099,0.128 -0.3273,0.184 -0.1148,0.054 -0.2344,0.102 -0.3496,0.137 -0.0825,0.025 -0.17,0.051 -0.2601,0.077 -0.0851,0.024 -0.1726,0.048 -0.2604,0.073 -0.087,0.025 -0.1744,0.05 -0.2603,0.076 -0.0884,0.027 -0.1752,0.054 -0.2585,0.083 -0.0896,0.03 -0.1751,0.062 -0.2539,0.095 -0.0909,0.039 -0.173,0.079 -0.2422,0.122 -0.0908,0.056 -0.1596,0.117 -0.1977,0.182 -0.0451,0.078 -0.0472,0.164 0.0083,0.258 0.0359,0.062 0.096,0.127 0.1842,0.197 0.0614,0.048 0.1363,0.099 0.2262,0.151 0.1109,0.066 0.2288,0.139 0.3516,0.217 0.1118,0.072 0.2277,0.148 0.3459,0.227 0.1118,0.076 0.2258,0.154 0.3406,0.234 0.1123,0.078 0.2254,0.158 0.338,0.238 0.1127,0.081 0.2249,0.162 0.3352,0.243 0.1136,0.083 0.2253,0.165 0.3337,0.246 0.1144,0.085 0.2251,0.168 0.3306,0.247 0.1173,0.089 0.228,0.173 0.3299,0.251 0.1234,0.094 0.2338,0.18 0.3272,0.252 0.2036,0.158 0.3263,0.255 0.3263,0.255 0,0 0.1163,0.058 0.3063,0.093 0.091,0.016 0.199,0.027 0.3192,0.023 0.0986,-0.003 0.2054,-0.015 0.3178,-0.043 0.097,-0.024 0.1983,-0.058 0.3021,-0.107 0.0906,-0.043 0.1832,-0.097 0.2766,-0.163 0.0815,-0.058 0.1637,-0.126 0.2457,-0.206 0.0721,-0.069 0.1441,-0.148 0.2155,-0.236 0.0636,-0.078 0.1267,-0.165 0.1891,-0.259 0.0557,-0.085 0.1108,-0.176 0.1649,-0.275 0.0494,-0.09 0.0979,-0.185 0.1455,-0.287 0.0455,-0.098 0.0861,-0.189 0.1226,-0.274 0.0432,-0.1 0.0805,-0.193 0.1128,-0.278 0.0405,-0.106 0.073,-0.2 0.0994,-0.283 0.0371,-0.117 0.0621,-0.212 0.0797,-0.289 0.0441,-0.192 0.0431,-0.27 0.0738,-0.289 0.032,-0.019 0.0987,0.027 0.2876,0.077 0.0764,0.02 0.1728,0.04 0.2949,0.058 0.0863,0.012 0.1854,0.022 0.2993,0.029 0.0905,0.006 0.1903,0.01 0.3005,0.011 0.0928,10e-4 0.1929,0 0.301,-0.004 0.0884,-0.002 0.1717,-0.005 0.2502,-0.006 0.0897,-0.002 0.1731,-0.004 0.2507,-0.005 0.091,-0.001 0.1741,-0.002 0.25,-0.002 0.0939,0 0.1767,0 0.2501,0 0.1001,0.001 0.1825,0.002 0.2507,0.003 0.1208,0.001 0.1974,-10e-4 0.2503,-0.009 0.0968,-0.016 0.1149,-0.057 0.1806,-0.158 0.0329,-0.051 0.0778,-0.116 0.1505,-0.201 0.0453,-0.053 0.1015,-0.113 0.1724,-0.182 0.053,-0.052 0.1142,-0.108 0.1852,-0.17 0.1361,-0.118 0.3051,-0.227 0.5011,-0.33 0.166,-0.086 0.35,-0.167 0.548,-0.243 0.18,-0.068 0.371,-0.132 0.569,-0.192 0.187,-0.056 0.382,-0.108 0.58,-0.156 0.192,-0.047 0.389,-0.091 0.586,-0.13 0.198,-0.04 0.396,-0.076 0.593,-0.109 0.201,-0.033 0.4,-0.062 0.595,-0.088 0.205,-0.027 0.405,-0.051 0.596,-0.07 0.212,-0.021 0.413,-0.037 0.599,-0.049 0.225,-0.013 0.428,-0.02 0.602,-0.02 0.074,0 0.144,0.001 0.208,0.004 0.076,0.002 0.145,0.007 0.208,0.013 0.076,0.008 0.144,0.017 0.206,0.029 0.077,0.015 0.143,0.034 0.199,0.056 0.074,0.029 0.133,0.063 0.181,0.102 0.056,0.046 0.099,0.1 0.135,0.159 0.035,0.057 0.064,0.119 0.093,0.187 0.027,0.06 0.054,0.123 0.086,0.191 0.028,0.058 0.06,0.119 0.099,0.183 0.033,0.055 0.072,0.112 0.118,0.171 0.074,0.095 0.189,0.19 0.335,0.28 0.113,0.07 0.245,0.137 0.391,0.199 0.128,0.054 0.267,0.104 0.413,0.149 0.136,0.042 0.278,0.078 0.425,0.109 0.141,0.03 0.287,0.054 0.433,0.072 0.146,0.017 0.293,0.028 0.439,0.031 0.148,0.003 0.294,-0.002 0.438,-0.016 0.149,-0.014 0.294,-0.038 0.433,-0.073 0.146,-0.036 0.285,-0.085 0.414,-0.147 0.134,-0.064 0.258,-0.144 0.368,-0.239 0.08,-0.069 0.149,-0.133 0.208,-0.193 0.08,-0.08 0.142,-0.151 0.187,-0.211 0.121,-0.158 0.132,-0.242 0.075,-0.23 -0.04,0.009 -0.115,0.068 -0.21,0.185 -0.05,0.061 -0.105,0.139 -0.163,0.233 -0.044,0.073 -0.091,0.155 -0.138,0.249 -0.039,0.078 -0.079,0.164 -0.12,0.258 -0.035,0.082 -0.07,0.17 -0.104,0.263 -0.031,0.085 -0.062,0.175 -0.092,0.269 -0.028,0.087 -0.055,0.177 -0.081,0.273 -0.034,0.124 -0.067,0.241 -0.098,0.352 -0.035,0.124 -0.068,0.241 -0.1,0.35 -0.036,0.126 -0.071,0.242 -0.106,0.35 -0.04,0.126 -0.079,0.24 -0.118,0.344 -0.048,0.127 -0.096,0.238 -0.147,0.336 -0.061,0.119 -0.125,0.219 -0.197,0.306 -0.08,0.095 -0.168,0.175 -0.271,0.245 -0.093,0.064 -0.199,0.12 -0.32,0.173 -0.102,0.045 -0.215,0.088 -0.341,0.132 -0.106,0.036 -0.221,0.074 -0.346,0.113 -0.093,0.03 -0.179,0.053 -0.257,0.072 -0.097,0.023 -0.184,0.039 -0.262,0.05 -0.102,0.014 -0.189,0.02 -0.265,0.023 -0.106,0.003 -0.191,0 -0.266,0.003 -0.096,0.003 -0.174,0.017 -0.254,0.066 -0.06,0.038 -0.121,0.095 -0.191,0.185 -0.046,0.059 -0.096,0.131 -0.152,0.219 -0.042,0.067 -0.088,0.142 -0.138,0.229 -0.04,0.07 -0.084,0.147 -0.131,0.232 -0.04,0.073 -0.083,0.151 -0.129,0.236 -0.077,0.142 -0.151,0.283 -0.222,0.422 -0.074,0.145 -0.146,0.287 -0.216,0.426 -0.073,0.146 -0.145,0.289 -0.217,0.426 -0.077,0.146 -0.153,0.286 -0.23,0.419 -0.083,0.143 -0.168,0.277 -0.257,0.401 -0.097,0.136 -0.197,0.259 -0.305,0.366 -0.117,0.117 -0.241,0.215 -0.377,0.292 -0.136,0.077 -0.284,0.133 -0.446,0.164 -0.145,0.028 -0.303,0.035 -0.474,0.02 -0.146,-0.012 -0.302,-0.042 -0.469,-0.088 -0.141,-0.04 -0.267,-0.08 -0.379,-0.122 -0.142,-0.053 -0.262,-0.108 -0.363,-0.166 -0.134,-0.077 -0.234,-0.161 -0.306,-0.253 -0.084,-0.109 -0.129,-0.23 -0.143,-0.367 -0.012,-0.119 -0.002,-0.25 0.026,-0.397 0.022,-0.118 0.056,-0.247 0.098,-0.387 0.035,-0.118 0.076,-0.245 0.121,-0.38 0.039,-0.119 0.081,-0.245 0.125,-0.379 0.04,-0.121 0.081,-0.247 0.123,-0.381 0.038,-0.121 0.076,-0.248 0.114,-0.381 0.034,-0.12 0.067,-0.235 0.098,-0.344 0.034,-0.121 0.066,-0.236 0.096,-0.345 0.033,-0.123 0.063,-0.238 0.09,-0.346 0.03,-0.126 0.056,-0.242 0.077,-0.35 0.024,-0.13 0.04,-0.247 0.047,-0.354 0.009,-0.135 0.002,-0.253 -0.022,-0.354 -0.031,-0.124 -0.088,-0.223 -0.177,-0.304 -0.078,-0.072 -0.18,-0.129 -0.311,-0.174 -0.099,-0.035 -0.214,-0.063 -0.347,-0.085 -0.107,-0.019 -0.224,-0.034 -0.354,-0.046 -0.169,-0.016 -0.355,-0.045 -0.553,-0.079 -0.175,-0.03 -0.36,-0.065 -0.55,-0.1 -0.18,-0.033 -0.365,-0.066 -0.55,-0.095 -0.185,-0.029 -0.371,-0.054 -0.554,-0.071 -0.1905,-0.018 -0.3777,-0.027 -0.5569,-0.022 -0.1956,0.005 -0.3818,0.026 -0.553,0.069 -0.1885,0.048 -0.3588,0.122 -0.5033,0.231 -0.1427,0.107 -0.2602,0.248 -0.3454,0.431 -0.07,0.15 -0.1182,0.329 -0.1405,0.539 -0.0174,0.165 -0.019,0.35 -0.0026,0.557 0.0081,0.103 0.0158,0.201 0.0231,0.293 0.0082,0.104 0.0158,0.201 0.0228,0.292 0.0081,0.105 0.0154,0.203 0.0218,0.292 0.0078,0.108 0.0142,0.206 0.0192,0.293 0.0064,0.113 0.0105,0.21 0.0118,0.293 0.0021,0.128 -0.0022,0.222 -0.0141,0.293 -0.0245,0.144 -0.0811,0.185 -0.1796,0.197 -0.0731,0.01 -0.1694,0.003 -0.2928,0.013 -0.083,0.006 -0.1783,0.02 -0.2872,0.05 -0.0833,0.023 -0.1746,0.055 -0.2743,0.102 -0.061,0.028 -0.1156,0.051 -0.1646,0.069 -0.0674,0.025 -0.1242,0.041 -0.1721,0.049 -0.0796,0.012 -0.1349,0.003 -0.1743,-0.022 -0.0479,-0.03 -0.0723,-0.084 -0.0883,-0.15 -0.0128,-0.053 -0.0201,-0.113 -0.0299,-0.176 -0.009,-0.058 -0.0199,-0.118 -0.0389,-0.175 -0.0186,-0.056 -0.045,-0.109 -0.0847,-0.156 -0.0353,-0.042 -0.0811,-0.078 -0.1414,-0.106 -0.0473,-0.023 -0.1034,-0.04 -0.1704,-0.05 -0.0521,-0.009 -0.1107,-0.013 -0.1768,-0.013 -0.1027,0 -0.1983,-0.008 -0.2884,-0.021 -0.1003,-0.015 -0.1938,-0.036 -0.2824,-0.06 -0.097,-0.027 -0.1882,-0.058 -0.2765,-0.089 -0.0937,-0.033 -0.184,-0.065 -0.2742,-0.093 -0.0931,-0.028 -0.186,-0.05 -0.2824,-0.061 -0.0918,-0.011 -0.1868,-0.011 -0.288,0.003 -0.0875,0.013 -0.1797,0.037 -0.2786,0.076 -0.082,0.032 -0.1686,0.073 -0.261,0.127 -0.0765,0.044 -0.1569,0.097 -0.2418,0.158 -0.0727,0.053 -0.1487,0.112 -0.2285,0.179 -0.1059,0.088 -0.2113,0.171 -0.3162,0.251 -0.1105,0.083 -0.2204,0.161 -0.3297,0.235 -0.1145,0.077 -0.2283,0.149 -0.3413,0.216 -0.1186,0.071 -0.2365,0.136 -0.3534,0.196 -0.1224,0.064 -0.2438,0.122 -0.3642,0.175 -0.1262,0.056 -0.2512,0.107 -0.3751,0.153 -0.1293,0.047 -0.2572,0.09 -0.3838,0.128 -0.1318,0.04 -0.262,0.075 -0.3907,0.106 -0.1338,0.032 -0.266,0.06 -0.3963,0.083 -0.1355,0.025 -0.269,0.046 -0.4004,0.063 -0.1433,0.019 -0.2466,0.097 -0.318,0.218 -0.059,0.1 -0.0961,0.23 -0.1158,0.38 -0.0159,0.121 -0.0206,0.255 -0.0163,0.398 0.0038,0.128 0.0146,0.262 0.0308,0.4 0.0153,0.129 0.0353,0.262 0.0586,0.395 0.023,0.132 0.0493,0.264 0.0776,0.393 0.029,0.134 0.06,0.265 0.0916,0.391 0.0342,0.135 0.069,0.265 0.1027,0.386 0.0401,0.143 0.0787,0.273 0.1125,0.383 0.0717,0.234 0.1224,0.38 0.1224,0.38 0,0 -0.0363,0.308 0.2521,0.13 0.0767,-0.047 0.1762,-0.129 0.3055,-0.26 0.0786,-0.079 0.1682,-0.177 0.2703,-0.296 0.0777,-0.091 0.1626,-0.194 0.2555,-0.312 0.0763,-0.096 0.1578,-0.202 0.2451,-0.317 0.0752,-0.1 0.1547,-0.208 0.2386,-0.323 0.0744,-0.103 0.1523,-0.212 0.2339,-0.327 0.0737,-0.105 0.1504,-0.215 0.2303,-0.33 0.073,-0.106 0.1486,-0.217 0.227,-0.332 0.0725,-0.107 0.1472,-0.219 0.2244,-0.334 0.1088,-0.164 0.2122,-0.311 0.3105,-0.442 0.1209,-0.162 0.234,-0.301 0.3399,-0.419 0.1439,-0.161 0.2743,-0.282 0.3926,-0.37 0.1967,-0.146 0.3597,-0.199 0.4945,-0.181 0.1673,0.022 0.2911,0.153 0.3821,0.349 0.0666,0.143 0.1156,0.321 0.1513,0.517 0.0308,0.169 0.0516,0.351 0.0651,0.535 0.0133,0.182 0.0195,0.365 0.0212,0.539 0.0019,0.196 -0.0019,0.38 -0.0077,0.54 -0.0117,0.319 -0.0319,0.538 -0.0319,0.538 0,0 0.0732,0.043 0.2038,0.123 0.0568,0.035 0.1244,0.077 0.2015,0.125 0.061,0.039 0.128,0.081 0.2004,0.128 0.0624,0.04 0.1289,0.083 0.1989,0.129 0.063,0.041 0.1289,0.085 0.1974,0.131 0.063,0.042 0.1283,0.086 0.1955,0.131 0.0634,0.044 0.1287,0.088 0.1954,0.135 0.0635,0.044 0.1285,0.089 0.1946,0.136 0.063,0.044 0.1272,0.09 0.1923,0.137 0.0631,0.045 0.1271,0.092 0.1918,0.139 0.0599,0.044 0.1161,0.087 0.1688,0.13 0.0586,0.047 0.1129,0.093 0.163,0.138 0.0562,0.05 0.1071,0.099 0.1533,0.147 0.0528,0.055 0.0992,0.108 0.1398,0.16 0.0476,0.061 0.0873,0.12 0.1197,0.177 0.0385,0.068 0.0669,0.133 0.0867,0.196 0.0229,0.074 0.0342,0.144 0.036,0.211 0.0019,0.073 -0.0074,0.144 -0.025,0.211 -0.0179,0.069 -0.0443,0.135 -0.0764,0.199 -0.0317,0.063 -0.0688,0.124 -0.1087,0.184 -0.085,0.127 -0.0896,0.113 -0.1002,0.048 -0.0072,-0.045 -0.0171,-0.112 -0.0563,-0.173 -0.0282,-0.045 -0.0715,-0.086 -0.1398,-0.115 -0.047,-0.019 -0.1059,-0.033 -0.1798,-0.036 -0.053,-0.003 -0.1137,-10e-4 -0.1833,0.008 -0.0543,0.006 -0.114,0.017 -0.1797,0.032 -0.0547,0.012 -0.1135,0.027 -0.1767,0.046 -0.0552,0.017 -0.1137,0.035 -0.1759,0.057 -0.0542,0.019 -0.1112,0.04 -0.171,0.063 -0.0545,0.022 -0.1114,0.045 -0.1707,0.07 -0.1512,0.064 -0.2995,0.14 -0.4445,0.227 -0.1409,0.084 -0.2787,0.177 -0.4128,0.278 -0.1319,0.099 -0.2603,0.206 -0.3848,0.317 -0.124,0.111 -0.2442,0.226 -0.36,0.345 -0.1173,0.12 -0.2303,0.243 -0.3383,0.367 -0.1113,0.128 -0.2174,0.257 -0.3178,0.384 -0.1068,0.135 -0.2072,0.269 -0.3005,0.398 -0.1035,0.143 -0.1983,0.281 -0.2836,0.41 -0.1037,0.156 -0.1934,0.298 -0.2676,0.42 -0.1611,0.265 -0.2491,0.432 -0.2491,0.432 0,0 -0.0765,0.06 -0.2144,0.156 -0.0616,0.043 -0.1354,0.093 -0.2202,0.149 -0.068,0.044 -0.1431,0.092 -0.2246,0.141 -0.0715,0.044 -0.1479,0.09 -0.2288,0.136 -0.0741,0.042 -0.1519,0.086 -0.2331,0.129 -0.0755,0.041 -0.154,0.081 -0.2351,0.122 -0.0776,0.038 -0.1576,0.077 -0.2397,0.114 -0.0792,0.037 -0.1604,0.072 -0.2434,0.107 -0.0805,0.034 -0.1627,0.067 -0.2463,0.098 -0.0824,0.031 -0.1662,0.061 -0.2511,0.089 -0.1457,0.049 -0.2744,0.141 -0.388,0.265 -0.0987,0.108 -0.1861,0.242 -0.2634,0.393 -0.068,0.133 -0.1282,0.28 -0.1815,0.437 -0.0494,0.145 -0.0928,0.299 -0.131,0.457 -0.0366,0.151 -0.0685,0.307 -0.0962,0.464 -0.0276,0.157 -0.0511,0.315 -0.0711,0.47 -0.0206,0.161 -0.0374,0.319 -0.0511,0.472 -0.0149,0.166 -0.0262,0.326 -0.0347,0.474 -0.0101,0.177 -0.0163,0.338 -0.02,0.475 -0.0078,0.291 -0.0044,0.475 -0.0044,0.475 0,0 0.0461,0.088 0.0925,0.209 0.0254,0.065 0.0509,0.141 0.069,0.217 0.0186,0.078 0.0292,0.157 0.0237,0.225 -0.0069,0.085 -0.0381,0.154 -0.1089,0.19 -0.0515,0.026 -0.1239,0.034 -0.223,0.018 -0.0622,-0.011 -0.1348,-0.031 -0.2195,-0.063 -0.063,-0.023 -0.1326,-0.053 -0.2095,-0.091 -0.0625,-0.03 -0.1297,-0.065 -0.202,-0.105 -0.0619,-0.034 -0.1276,-0.072 -0.1971,-0.114 -0.0614,-0.038 -0.1259,-0.078 -0.1936,-0.121 -0.1213,-0.078 -0.2403,-0.155 -0.3565,-0.231 -0.1211,-0.079 -0.2393,-0.157 -0.354,-0.232 -0.1224,-0.08 -0.2409,-0.158 -0.355,-0.233 -0.1245,-0.081 -0.2438,-0.159 -0.3571,-0.231 -0.1278,-0.082 -0.2482,-0.158 -0.3599,-0.226 -0.136,-0.082 -0.2593,-0.153 -0.3681,-0.21 -0.1693,-0.088 -0.3036,-0.142 -0.3958,-0.15 -0.1427,-0.014 -0.185,0.08 -0.1014,0.32 0.0354,0.101 0.0934,0.228 0.1759,0.385 0.0573,0.109 0.1265,0.232 0.2083,0.37 0.0764,0.129 0.1525,0.258 0.2275,0.386 0.0761,0.131 0.1511,0.261 0.224,0.388 0.0759,0.133 0.1496,0.264 0.2202,0.392 0.0753,0.136 0.147,0.268 0.2139,0.395 0.074,0.14 0.1421,0.273 0.2029,0.398 0.0729,0.15 0.1352,0.287 0.1841,0.409 0.0747,0.185 0.1182,0.333 0.1208,0.43 0.0042,0.154 -0.0942,0.181 -0.3337,0.032 -0.0959,-0.06 -0.2144,-0.149 -0.3579,-0.269 -0.0999,-0.084 -0.2118,-0.182 -0.3367,-0.298 -0.0946,-0.087 -0.1826,-0.17 -0.2648,-0.25 -0.0941,-0.091 -0.1805,-0.176 -0.2601,-0.257 -0.0931,-0.095 -0.1769,-0.183 -0.253,-0.264 -0.0933,-0.099 -0.175,-0.189 -0.2478,-0.268 -0.0963,-0.106 -0.1771,-0.195 -0.2489,-0.267 -0.1086,-0.11 -0.1965,-0.183 -0.2863,-0.223 -0.1046,-0.045 -0.2116,-0.045 -0.3567,-0.004 -0.094,0.027 -0.2039,0.071 -0.3395,0.131 -0.0966,0.043 -0.2062,0.094 -0.3323,0.153 -0.0996,0.047 -0.2095,0.098 -0.3315,0.154 -0.1035,0.047 -0.201,0.095 -0.2925,0.144 -0.101,0.053 -0.1948,0.107 -0.2816,0.161 -0.0978,0.062 -0.1867,0.123 -0.2671,0.185 -0.0925,0.071 -0.1737,0.143 -0.2441,0.214 -0.0829,0.084 -0.1508,0.168 -0.2047,0.252 -0.064,0.099 -0.1083,0.198 -0.1341,0.295 -0.0292,0.11 -0.0349,0.218 -0.0192,0.323 0.0158,0.105 0.0532,0.207 0.1101,0.304 0.0517,0.089 0.1195,0.174 0.2018,0.254 0.0738,0.072 0.1592,0.141 0.2551,0.205 0.0728,0.048 0.146,0.09 0.2188,0.126 0.0778,0.038 0.1551,0.071 0.2308,0.099 0.0822,0.031 0.1626,0.057 0.2396,0.08 0.0852,0.026 0.1664,0.05 0.2415,0.074 0.0871,0.028 0.1662,0.058 0.2341,0.093 0.08,0.043 0.1446,0.094 0.189,0.163 0.0404,0.063 0.064,0.141 0.0673,0.24 0.0024,0.072 -0.0058,0.154 -0.026,0.251 -0.0152,0.073 -0.0372,0.153 -0.0666,0.243 -0.024,0.073 -0.0529,0.152 -0.0871,0.237 -0.0394,0.099 -0.0771,0.188 -0.1126,0.271 -0.0433,0.1 -0.0833,0.188 -0.1194,0.268 -0.047,0.104 -0.0872,0.192 -0.1184,0.268 -0.0473,0.116 -0.0741,0.205 -0.0734,0.282 8e-4,0.092 0.0416,0.167 0.1346,0.25 0.0579,0.052 0.1362,0.107 0.2378,0.172 0.0713,0.045 0.1541,0.095 0.2494,0.152 0.0758,0.045 0.1596,0.095 0.2518,0.15 0.0775,0.046 0.1611,0.097 0.251,0.151 0.078,0.048 0.1608,0.099 0.2485,0.154 0.1087,0.068 0.2072,0.131 0.2971,0.189 0.1108,0.071 0.2085,0.136 0.2955,0.194 0.1139,0.076 0.2097,0.14 0.2933,0.195 0.1204,0.079 0.2154,0.138 0.3029,0.18 0.1126,0.054 0.2127,0.081 0.338,0.09 0.0968,0.007 0.2086,0.004 0.3528,-0.007 0.0998,-0.007 0.2151,-0.017 0.3516,-0.03 0.1039,-0.009 0.2201,-0.019 0.3511,-0.03 0.1066,-0.009 0.2231,-0.018 0.3508,-0.028 0.1091,-0.007 0.2265,-0.015 0.3529,-0.023 0.0941,-0.006 0.1847,-0.01 0.2718,-0.013 0.0942,-0.003 0.1844,-0.005 0.2707,-0.005 0.095,0 0.1853,0.002 0.2711,0.005 0.0954,0.003 0.1853,0.009 0.27,0.016 0.0963,0.008 0.1859,0.018 0.2693,0.03 0.0972,0.014 0.186,0.031 0.2672,0.049 0.0978,0.023 0.1845,0.047 0.2614,0.074 0.0975,0.034 0.1792,0.071 0.2477,0.109 0.0968,0.053 0.1671,0.109 0.2182,0.16 0.1258,0.127 0.1353,0.232 0.1353,0.232 0,0 0.2279,-0.013 0.5948,-0.026 0.1709,-0.006 0.372,-0.011 0.5942,-0.015 0.1853,-0.003 0.3853,-0.006 0.5948,-0.006 0.1912,0 0.3903,0.002 0.5934,0.006 0.1955,0.004 0.3947,0.01 0.5941,0.019 0.1988,0.009 0.3977,0.021 0.5932,0.036 0.2019,0.015 0.4003,0.034 0.5913,0.057 0.2059,0.025 0.4032,0.055 0.5871,0.09 0.2121,0.041 0.4064,0.09 0.5756,0.147 0.2245,0.076 0.4046,0.167 0.5233,0.276 0.1265,0.117 0.2569,0.238 0.3871,0.366 0.1232,0.121 0.2461,0.249 0.3653,0.386 0.1134,0.131 0.2235,0.27 0.3271,0.42 0.0976,0.142 0.1894,0.293 0.273,0.457 0.0778,0.152 0.1484,0.314 0.2099,0.489 0.0564,0.159 0.1051,0.329 0.1445,0.511 0.036,0.165 0.0643,0.34 0.0837,0.526 0.0176,0.168 0.0279,0.345 0.03,0.531 0.0019,0.17 -0.003,0.347 -0.0154,0.533 -0.0112,0.169 -0.0286,0.345 -0.0527,0.528 -0.0146,0.111 -0.0273,0.218 -0.038,0.321 -0.0118,0.113 -0.0213,0.221 -0.0288,0.324 -0.0082,0.113 -0.014,0.221 -0.0176,0.324 -0.004,0.115 -0.0053,0.223 -0.0043,0.326 0.0013,0.115 0.0055,0.223 0.0124,0.325 0.0079,0.116 0.0192,0.223 0.0332,0.322 0.0167,0.117 0.0373,0.223 0.0606,0.317 0.0295,0.12 0.0633,0.222 0.0991,0.31 0.0499,0.122 0.1037,0.215 0.155,0.285 0.1273,0.175 0.2395,0.213 0.2395,0.213 0,0 0.0676,0.159 0.1101,0.44 0.0193,0.127 0.0334,0.279 0.0337,0.452 2e-4,0.139 -0.0084,0.29 -0.0302,0.454 -0.0187,0.14 -0.0472,0.289 -0.0883,0.445 -0.0364,0.139 -0.0826,0.283 -0.1407,0.433 -0.0521,0.134 -0.1138,0.272 -0.1864,0.414 -0.0661,0.128 -0.1412,0.26 -0.2265,0.394 -0.0779,0.123 -0.1644,0.247 -0.2601,0.374 -0.0879,0.116 -0.1836,0.233 -0.2878,0.352 -0.0963,0.109 -0.1999,0.22 -0.3112,0.331 -0.1444,0.144 -0.2821,0.283 -0.4135,0.416 -0.144,0.146 -0.2803,0.285 -0.4092,0.419 -0.1426,0.149 -0.2762,0.29 -0.4012,0.426 -0.1396,0.153 -0.2686,0.298 -0.3874,0.438 -0.1341,0.159 -0.2553,0.311 -0.3646,0.459 -0.1225,0.166 -0.2301,0.328 -0.3238,0.488 -0.1021,0.175 -0.1879,0.348 -0.2591,0.524 -0.0731,0.181 -0.1308,0.366 -0.1748,0.559 -0.0419,0.184 -0.0713,0.376 -0.0898,0.579 -0.0167,0.184 -0.0244,0.378 -0.0244,0.584 0,0.103 0.0034,0.203 0.0099,0.298 0.007,0.103 0.0175,0.202 0.0311,0.297 0.0149,0.103 0.0334,0.201 0.055,0.293 0.0238,0.102 0.0514,0.198 0.0818,0.286 0.0348,0.101 0.0732,0.193 0.114,0.276 0.0492,0.099 0.1017,0.184 0.1553,0.254 0.0719,0.094 0.1456,0.162 0.2155,0.202 0.1067,0.061 0.2044,0.057 0.273,-0.017 0.0499,-0.055 0.0843,-0.147 0.0954,-0.278 0.007,-0.083 0.0048,-0.181 -0.0087,-0.296 -0.0241,-0.205 -0.0641,-0.388 -0.1286,-0.56 -0.0651,-0.174 -0.1552,-0.338 -0.2791,-0.501 -0.1042,-0.138 -0.2323,-0.276 -0.3895,-0.421 -0.1271,-0.118 -0.2733,-0.24 -0.4412,-0.371 -0.1385,-0.108 -0.2918,-0.221 -0.4615,-0.342 -0.1451,-0.104 -0.3021,-0.213 -0.472,-0.329 -0.1487,-0.101 -0.3073,-0.208 -0.4764,-0.321 -0.1512,-0.101 -0.3108,-0.207 -0.4793,-0.318 -0.1527,-0.101 -0.3128,-0.207 -0.4805,-0.317 -0.1538,-0.102 -0.3141,-0.207 -0.4812,-0.317 -0.1843,-0.122 -0.3566,-0.244 -0.5178,-0.365 -0.1771,-0.134 -0.3408,-0.268 -0.4921,-0.401 -0.167,-0.147 -0.319,-0.294 -0.4576,-0.44 -0.1536,-0.161 -0.2907,-0.322 -0.4134,-0.481 -0.1366,-0.176 -0.2553,-0.351 -0.3591,-0.522 -0.1157,-0.191 -0.2128,-0.379 -0.2953,-0.561 -0.0925,-0.204 -0.1667,-0.401 -0.2283,-0.591 -0.0699,-0.215 -0.1236,-0.42 -0.1695,-0.612 -0.0536,-0.224 -0.0965,-0.431 -0.1417,-0.617 -0.0575,-0.236 -0.1188,-0.437 -0.2111,-0.595 -0.0604,-0.103 -0.1259,-0.188 -0.197,-0.257 -0.0808,-0.079 -0.1688,-0.139 -0.2648,-0.186 -0.0938,-0.046 -0.1952,-0.081 -0.3049,-0.11 -0.0989,-0.026 -0.2045,-0.047 -0.3173,-0.069 -0.1008,-0.019 -0.2074,-0.039 -0.3201,-0.061 -0.1008,-0.021 -0.2066,-0.044 -0.3175,-0.072 -0.0996,-0.025 -0.2034,-0.055 -0.3114,-0.09 -0.0981,-0.032 -0.1996,-0.069 -0.3049,-0.112 -0.0958,-0.038 -0.1946,-0.082 -0.2966,-0.132 -0.0928,-0.046 -0.1883,-0.096 -0.2864,-0.152 -0.1288,-0.074 -0.2535,-0.142 -0.3732,-0.206 -0.132,-0.07 -0.2579,-0.136 -0.3768,-0.2 -0.1332,-0.071 -0.2575,-0.139 -0.3713,-0.208 -0.131,-0.079 -0.2482,-0.158 -0.3491,-0.243 -0.1149,-0.097 -0.2087,-0.201 -0.2779,-0.32 -0.0683,-0.118 -0.1128,-0.25 -0.1299,-0.403 -0.0141,-0.126 -0.0099,-0.266 0.0145,-0.425 0.0193,-0.126 0.0513,-0.264 0.097,-0.415 0.0374,-0.124 0.084,-0.258 0.1403,-0.401 0.0481,-0.123 0.1034,-0.254 0.166,-0.392 0.0601,-0.133 0.122,-0.261 0.1853,-0.383 0.0672,-0.13 0.1358,-0.254 0.2055,-0.373 0.074,-0.126 0.1492,-0.246 0.2248,-0.359 0.0812,-0.123 0.1629,-0.238 0.2442,-0.347 0.0883,-0.119 0.1762,-0.23 0.2628,-0.334 0.0952,-0.115 0.1888,-0.221 0.2795,-0.321 0.1015,-0.111 0.1992,-0.214 0.2913,-0.309 0.1083,-0.111 0.2087,-0.212 0.2982,-0.304 0.115,-0.118 0.2119,-0.221 0.2842,-0.315 0.1139,-0.148 0.167,-0.271 0.1339,-0.387 -0.0243,-0.085 -0.0807,-0.176 -0.1633,-0.271 -0.0625,-0.071 -0.1399,-0.145 -0.2296,-0.219 -0.0762,-0.064 -0.1614,-0.128 -0.2538,-0.192 -0.0832,-0.058 -0.1723,-0.116 -0.2661,-0.174 -0.0877,-0.054 -0.1795,-0.108 -0.2745,-0.161 -0.0907,-0.051 -0.1844,-0.101 -0.2802,-0.15 -0.0932,-0.048 -0.1883,-0.095 -0.2848,-0.14 -0.095,-0.046 -0.1912,-0.09 -0.2878,-0.132 -0.0974,-0.043 -0.1952,-0.085 -0.2928,-0.125 -0.0992,-0.04 -0.198,-0.079 -0.2959,-0.116 -0.0707,-0.026 -0.1343,-0.052 -0.1912,-0.078 -0.0707,-0.032 -0.1311,-0.063 -0.1826,-0.094 -0.0699,-0.042 -0.1231,-0.084 -0.1627,-0.126 -0.0547,-0.059 -0.0833,-0.118 -0.0934,-0.181 -0.0104,-0.064 -0.0017,-0.131 0.0179,-0.204 0.0163,-0.061 0.04,-0.125 0.0664,-0.195 0.0228,-0.061 0.0477,-0.125 0.0714,-0.195 0.0212,-0.062 0.0416,-0.128 0.0588,-0.198 0.0156,-0.064 0.0286,-0.131 0.0375,-0.202 0.0081,-0.065 0.0128,-0.134 0.0128,-0.206 0,-0.149 -0.0668,-0.304 -0.1811,-0.466 -0.087,-0.123 -0.2016,-0.25 -0.3352,-0.381 -0.1127,-0.111 -0.2389,-0.225 -0.3734,-0.343 -0.1227,-0.108 -0.2524,-0.218 -0.3852,-0.332 -0.1262,-0.108 -0.2552,-0.219 -0.3837,-0.333 -0.1257,-0.112 -0.251,-0.227 -0.3726,-0.345 -0.1219,-0.119 -0.2402,-0.241 -0.3518,-0.366 -0.114,-0.128 -0.221,-0.26 -0.3176,-0.396 -0.0996,-0.14 -0.1881,-0.285 -0.2619,-0.433 -0.0761,-0.154 -0.1366,-0.312 -0.1775,-0.475 -0.0599,-0.24 -0.1102,-0.527 -0.1502,-0.851 -0.0327,-0.265 -0.0585,-0.553 -0.0771,-0.86 -0.0166,-0.274 -0.0274,-0.564 -0.0321,-0.863 -0.0043,-0.28 -0.0034,-0.569 0.0031,-0.863 0.0063,-0.284 0.0178,-0.574 0.0347,-0.864 0.0166,-0.287 0.0385,-0.575 0.0657,-0.861 0.0274,-0.289 0.0604,-0.576 0.099,-0.859 0.0395,-0.289 0.085,-0.574 0.1368,-0.851 0.0544,-0.292 0.1157,-0.575 0.1841,-0.845 0.074,-0.292 0.1562,-0.569 0.2472,-0.827 0.0505,-0.143 0.0952,-0.282 0.1345,-0.418 0.0426,-0.146 0.079,-0.288 0.1097,-0.426 0.0333,-0.149 0.0601,-0.292 0.0811,-0.431 0.023,-0.152 0.0392,-0.298 0.0495,-0.438 0.0113,-0.153 0.0157,-0.3 0.0145,-0.439 -0.0014,-0.155 -0.0096,-0.301 -0.0228,-0.439 -0.0147,-0.155 -0.0357,-0.3 -0.0603,-0.435 -0.0284,-0.156 -0.0615,-0.298 -0.0953,-0.429 -0.0416,-0.16 -0.0842,-0.301 -0.1202,-0.424 -0.0525,-0.181 -0.0907,-0.322 -0.0907,-0.429 0,-0.067 0.0125,-0.15 0.0344,-0.245 0.0169,-0.073 0.0394,-0.153 0.0661,-0.238 0.0235,-0.076 0.0504,-0.154 0.0795,-0.236 0.0272,-0.076 0.0564,-0.154 0.0868,-0.233 0.0294,-0.076 0.0599,-0.153 0.0908,-0.23 0.0311,-0.077 0.0625,-0.154 0.0936,-0.23 0.032,-0.078 0.0636,-0.155 0.094,-0.228 0.0329,-0.08 0.0645,-0.157 0.0935,-0.229 0.034,-0.085 0.0646,-0.163 0.0902,-0.232 0.0368,-0.099 0.0632,-0.18 0.0743,-0.236 0.0102,-0.051 0.0034,-0.103 -0.0155,-0.156 -0.016,-0.046 -0.0408,-0.092 -0.0716,-0.14 -0.0269,-0.042 -0.0584,-0.085 -0.0925,-0.129 -0.031,-0.041 -0.0642,-0.081 -0.0981,-0.123 -0.0324,-0.04 -0.0654,-0.081 -0.0979,-0.123 -0.0323,-0.042 -0.064,-0.084 -0.0938,-0.128 -0.0303,-0.044 -0.0586,-0.089 -0.0838,-0.135 -0.0256,-0.046 -0.0479,-0.094 -0.0655,-0.143 -0.0179,-0.05 -0.0309,-0.101 -0.0378,-0.153 -0.0067,-0.051 -0.0074,-0.104 -7e-4,-0.157 0.0137,-0.11 0.0659,-0.284 0.1566,-0.497 0.0599,-0.142 0.1366,-0.3 0.23,-0.469 0.0787,-0.143 0.1693,-0.293 0.2718,-0.446 0.0929,-0.139 0.1956,-0.281 0.308,-0.422 0.1054,-0.133 0.2193,-0.265 0.3419,-0.394 0.1175,-0.124 0.2429,-0.246 0.3761,-0.362 0.1292,-0.113 0.2657,-0.222 0.4096,-0.324 0.1406,-0.099 0.2883,-0.193 0.4431,-0.278 0.1506,-0.083 0.308,-0.158 0.4721,-0.224 0.159,-0.063 0.3243,-0.118 0.4959,-0.162 0.1619,-0.042 0.3186,-0.085 0.4702,-0.129 0.1609,-0.047 0.316,-0.095 0.4655,-0.144 0.1598,-0.053 0.3131,-0.107 0.4602,-0.163 0.1576,-0.06 0.3079,-0.122 0.4513,-0.185 0.1541,-0.069 0.3001,-0.139 0.4382,-0.212 0.1499,-0.078 0.2904,-0.16 0.422,-0.244 0.1424,-0.091 0.2742,-0.185 0.3959,-0.282 0.132,-0.105 0.2521,-0.214 0.3608,-0.328 0.1156,-0.12 0.2183,-0.245 0.3085,-0.374 0.0946,-0.136 0.1756,-0.276 0.2436,-0.422 0.0472,-0.101 0.0987,-0.211 0.1519,-0.326 0.0486,-0.106 0.0986,-0.215 0.148,-0.327 0.0482,-0.109 0.0958,-0.22 0.141,-0.331 0.0461,-0.113 0.0896,-0.226 0.1287,-0.336 0.0421,-0.118 0.079,-0.233 0.1083,-0.343 0.0342,-0.127 0.058,-0.246 0.0676,-0.353 0.0131,-0.145 -2e-4,-0.266 -0.0497,-0.351 -0.055,-0.094 -0.1547,-0.144 -0.3126,-0.134 -0.0943,0.006 -0.2093,0.034 -0.3479,0.087 -0.0972,0.037 -0.206,0.087 -0.3274,0.15 -0.3447,0.179 -0.9551,0.557 -1.7293,1.105 -0.4895,0.346 -1.0446,0.761 -1.6394,1.237 -0.4997,0.401 -1.0275,0.844 -1.568,1.327 -0.491,0.439 -0.9925,0.91 -1.4932,1.41 -0.4731,0.473 -0.9456,0.972 -1.4075,1.495 -0.4476,0.507 -0.8854,1.036 -1.3046,1.585 -0.4135,0.541 -0.809,1.102 -1.1779,1.68 -0.3688,0.577 -0.7112,1.172 -1.0187,1.782 -0.3094,0.613 -0.5835,1.242 -0.8137,1.884 -0.232,0.646 -0.4195,1.306 -0.5535,1.976 -0.1318,0.659 -0.2645,1.283 -0.3956,1.877 -0.1446,0.657 -0.2872,1.278 -0.424,1.871 -0.151,0.654 -0.2949,1.274 -0.4271,1.87 -0.1443,0.65 -0.2744,1.272 -0.3841,1.879 -0.1165,0.645 -0.2099,1.272 -0.2726,1.898 -0.0636,0.634 -0.0956,1.266 -0.0883,1.914 0.007,0.619 0.05,1.252 0.1358,1.913 0.0782,0.602 0.1918,1.227 0.3462,1.887 0.1372,0.586 0.3067,1.2 0.512,1.848 0.1819,0.574 0.3919,1.175 0.6326,1.809 0.2173,0.573 0.4299,1.133 0.6387,1.681 0.2186,0.574 0.4329,1.134 0.6439,1.68 0.2216,0.574 0.4396,1.132 0.6549,1.674 0.2278,0.574 0.4526,1.13 0.6755,1.667 0.2377,0.572 0.4733,1.124 0.7083,1.653 0.2529,0.569 0.5051,1.113 0.7584,1.63 0.276,0.564 0.5532,1.096 0.834,1.594 0.3101,0.551 0.6246,1.061 0.9465,1.529 0.3605,0.524 0.7304,0.994 1.1141,1.409 0.4306,0.466 0.8786,0.862 1.3502,1.183 0.433,0.295 0.9018,0.616 1.4064,0.95 0.4481,0.297 0.9244,0.606 1.4289,0.917 0.4636,0.286 0.9509,0.575 1.4621,0.861 0.4799,0.269 0.9807,0.534 1.5025,0.792 0.495,0.245 1.0088,0.482 1.5416,0.709 0.5098,0.216 1.037,0.422 1.5814,0.615 0.5234,0.185 1.0627,0.356 1.618,0.512 0.5348,0.15 1.0844,0.285 1.6488,0.402 0.544,0.112 1.1018,0.208 1.6733,0.284 0.5508,0.074 1.1143,0.13 1.6906,0.165 0.3634,0.022 0.7125,0.043 1.048,0.062 0.3652,0.021 0.7143,0.04 1.0483,0.058 0.3672,0.019 0.7166,0.036 1.0486,0.051 0.369,0.017 0.718,0.032 1.047,0.044 0.374,0.013 0.722,0.024 1.048,0.031 0.379,0.008 0.727,0.013 1.049,0.013 0.385,0.001 0.732,-0.004 1.049,-0.015 0.392,-0.013 0.736,-0.034 1.047,-0.062 0.392,-0.037 0.729,-0.085 1.039,-0.145 0.364,-0.07 0.69,-0.156 1.018,-0.256 0.145,-0.044 0.285,-0.088 0.418,-0.132 0.144,-0.047 0.282,-0.095 0.414,-0.144 0.142,-0.053 0.278,-0.107 0.407,-0.164 0.137,-0.061 0.268,-0.124 0.393,-0.193 0.13,-0.071 0.253,-0.147 0.371,-0.231 0.119,-0.083 0.233,-0.174 0.341,-0.273 0.106,-0.097 0.207,-0.201 0.306,-0.315 0.091,-0.107 0.181,-0.222 0.267,-0.347 0.08,-0.115 0.158,-0.239 0.235,-0.371 0.07,-0.121 0.139,-0.249 0.207,-0.386 0.08,-0.159 0.153,-0.312 0.223,-0.457 0.078,-0.162 0.152,-0.314 0.228,-0.456 0.084,-0.159 0.17,-0.305 0.264,-0.436 0.102,-0.143 0.214,-0.268 0.344,-0.374 0.127,-0.103 0.272,-0.188 0.442,-0.251 0.145,-0.054 0.309,-0.092 0.496,-0.114 0.153,-0.018 0.321,-0.024 0.508,-0.019 0.155,0.004 0.324,0.016 0.507,0.037 0.158,0.018 0.326,0.043 0.505,0.074 0.157,0.027 0.324,0.06 0.499,0.098 0.208,0.044 0.41,0.086 0.606,0.124 0.209,0.042 0.411,0.079 0.607,0.113 0.212,0.036 0.416,0.067 0.612,0.093 0.214,0.028 0.419,0.049 0.614,0.063 0.218,0.016 0.425,0.022 0.619,0.017 0.22,-0.005 0.425,-0.025 0.615,-0.06 0.217,-0.04 0.413,-0.101 0.588,-0.186 0.191,-0.092 0.356,-0.212 0.496,-0.364 0.133,-0.144 0.243,-0.316 0.33,-0.52 0.074,-0.174 0.131,-0.372 0.171,-0.595 0.024,-0.133 0.041,-0.262 0.052,-0.387 0.013,-0.136 0.018,-0.267 0.018,-0.392 0,-0.138 -0.008,-0.268 -0.022,-0.391 -0.016,-0.14 -0.04,-0.269 -0.07,-0.385 -0.037,-0.143 -0.084,-0.266 -0.137,-0.366 -0.078,-0.145 -0.169,-0.242 -0.264,-0.278 -0.112,-0.043 -0.229,-0.003 -0.336,0.137 -0.062,0.081 -0.121,0.196 -0.174,0.348 -0.037,0.108 -0.07,0.233 -0.1,0.379 -0.024,0.116 -0.045,0.244 -0.062,0.386 -0.032,0.251 -0.062,0.489 -0.086,0.712 -0.026,0.257 -0.044,0.495 -0.041,0.715 0.003,0.26 0.033,0.495 0.107,0.706 0.077,0.222 0.204,0.418 0.397,0.587 0.157,0.137 0.358,0.258 0.614,0.362 0.195,0.079 0.422,0.149 0.685,0.209 0.211,0.049 0.445,0.091 0.705,0.128 0.219,0.031 0.456,0.057 0.713,0.08 0.223,0.02 0.462,0.036 0.716,0.05 0.226,0.012 0.465,0.022 0.717,0.029 0.421,0.012 0.865,0.02 1.323,0.023 0.43,0.004 0.873,0.004 1.324,0.001 0.434,-0.003 0.877,-0.008 1.321,-0.016 0.44,-0.007 0.883,-0.017 1.323,-0.028 0.444,-0.011 0.887,-0.024 1.322,-0.038 0.45,-0.015 0.892,-0.031 1.321,-0.047 0.457,-0.018 0.9,-0.037 1.322,-0.055 0.469,-0.021 0.912,-0.041 1.32,-0.061 0.498,-0.025 0.943,-0.048 1.32,-0.069 0.824,-0.044 1.321,-0.075 1.321,-0.075" id="path1805" class="DxjmZCKJ_0"></path>
  </g>
<style data-made-with="vivus-instant">.DxjmZCKJ_0{stroke-dasharray:973 975;stroke-dashoffset:974;animation:DxjmZCKJ_draw_0 15200ms linear 0ms infinite,DxjmZCKJ_fade 15200ms linear 0ms infinite;}@keyframes DxjmZCKJ_draw{100%{stroke-dashoffset:0;}}@keyframes DxjmZCKJ_fade{0%{stroke-opacity:1;}97.36842105263158%{stroke-opacity:1;}100%{stroke-opacity:0;}}@keyframes DxjmZCKJ_draw_0{5.263157894736842%{stroke-dashoffset: 974}31.57894736842105%{ stroke-dashoffset: 0;}100%{ stroke-dashoffset: 0;}}</style></svg>
