<!--?xml version="1.0" encoding="UTF-8" standalone="no"?-->
<!-- Created with Inkscape (http://www.inkscape.org/) -->

<svg width="94.251083mm" height="132.16957mm" viewBox="0 0 94.251083 132.16957" version="1.1" id="svg5" sodipodi:docname="owl-drawing.svg" inkscape:version="1.1.1 (3bf5ae0d25, 2021-09-20)" xmlns:inkscape="http://www.inkscape.org/namespaces/inkscape" xmlns:sodipodi="http://sodipodi.sourceforge.net/DTD/sodipodi-0.dtd" xmlns="http://www.w3.org/2000/svg" xmlns:svg="http://www.w3.org/2000/svg" style="">
  <sodipodi:namedview id="namedview7" pagecolor="#ffffff" bordercolor="#666666" borderopacity="1.0" inkscape:pageshadow="2" inkscape:pageopacity="0.0" inkscape:pagecheckerboard="0" inkscape:document-units="mm" showgrid="false" inkscape:zoom="0.64052329" inkscape:cx="180.32131" inkscape:cy="355.17834" inkscape:window-width="1920" inkscape:window-height="1017" inkscape:window-x="-8" inkscape:window-y="-8" inkscape:window-maximized="1" inkscape:current-layer="layer3"></sodipodi:namedview>
  <defs id="defs2"></defs>
  <g inkscape:groupmode="layer" id="layer3" inkscape:label="path" transform="translate(-56.883101,-71.172062)">
    <path style="fill: none; stroke: rgb(4, 15, 34); stroke-width: 1; stroke-linecap: butt; stroke-linejoin: miter; stroke-miterlimit: 4; stroke-opacity: 1;" d="m 78.4254,193.07 c 0,0 -0.2459,-0.17 -0.6829,-0.496 -0.1894,-0.141 -0.4147,-0.311 -0.6714,-0.51 -0.2022,-0.157 -0.4239,-0.331 -0.6629,-0.522 -0.206,-0.165 -0.4248,-0.342 -0.6552,-0.531 -0.2071,-0.171 -0.4236,-0.351 -0.6483,-0.541 -0.2069,-0.175 -0.4208,-0.358 -0.641,-0.549 -0.2062,-0.179 -0.4178,-0.365 -0.6343,-0.558 -0.2048,-0.183 -0.4138,-0.371 -0.6266,-0.566 -0.2032,-0.186 -0.4097,-0.377 -0.6192,-0.573 -0.2014,-0.189 -0.4056,-0.383 -0.6121,-0.582 -0.1992,-0.192 -0.4006,-0.388 -0.6038,-0.589 -0.1975,-0.195 -0.3966,-0.395 -0.5971,-0.598 -0.1949,-0.198 -0.391,-0.4 -0.588,-0.605 -0.1926,-0.201 -0.3861,-0.405 -0.5802,-0.613 -0.1901,-0.204 -0.3807,-0.411 -0.5715,-0.621 -0.1876,-0.207 -0.3754,-0.417 -0.5632,-0.63 -0.1845,-0.209 -0.3689,-0.422 -0.5531,-0.637 -0.1819,-0.212 -0.3635,-0.428 -0.5447,-0.646 -0.1785,-0.215 -0.3565,-0.433 -0.5338,-0.654 -0.1753,-0.218 -0.3498,-0.439 -0.5234,-0.662 -0.1718,-0.221 -0.3427,-0.445 -0.5125,-0.67 -0.1681,-0.224 -0.3351,-0.451 -0.5008,-0.679 -0.1645,-0.227 -0.3277,-0.456 -0.4894,-0.688 -0.1605,-0.23 -0.3195,-0.462 -0.4769,-0.696 -0.1562,-0.233 -0.3108,-0.468 -0.4635,-0.705 -0.152,-0.236 -0.3021,-0.474 -0.4502,-0.714 -0.1474,-0.239 -0.2928,-0.48 -0.4359,-0.723 -0.1425,-0.242 -0.2828,-0.486 -0.4207,-0.732 -0.1375,-0.245 -0.2725,-0.492 -0.405,-0.741 -0.132,-0.248 -0.2614,-0.497 -0.388,-0.749 -0.1263,-0.251 -0.2498,-0.504 -0.3705,-0.758 -0.1205,-0.254 -0.2381,-0.51 -0.3526,-0.768 -0.1141,-0.256 -0.2252,-0.515 -0.3329,-0.775 -0.1076,-0.259 -0.2119,-0.521 -0.3127,-0.783 -0.1008,-0.263 -0.1982,-0.527 -0.2919,-0.793 -0.0935,-0.265 -0.1834,-0.531 -0.2696,-0.799 -0.0861,-0.268 -0.1684,-0.537 -0.2468,-0.808 -0.0781,-0.27 -0.1523,-0.542 -0.2224,-0.814 -0.07,-0.273 -0.1359,-0.547 -0.1976,-0.822 -0.0613,-0.274 -0.1185,-0.549 -0.1712,-0.826 -0.0483,-0.254 -0.0954,-0.507 -0.1411,-0.759 -0.0461,-0.254 -0.0909,-0.507 -0.1344,-0.76 -0.0439,-0.255 -0.0865,-0.509 -0.1279,-0.762 -0.0417,-0.255 -0.0821,-0.509 -0.1213,-0.762 -0.0395,-0.255 -0.0777,-0.51 -0.1147,-0.763 -0.0373,-0.256 -0.0733,-0.51 -0.1082,-0.764 -0.0351,-0.256 -0.0691,-0.511 -0.1018,-0.765 -0.033,-0.256 -0.0648,-0.511 -0.0954,-0.766 -0.031,-0.257 -0.0607,-0.513 -0.0892,-0.768 -0.0288,-0.257 -0.0563,-0.512 -0.0827,-0.767 -0.0266,-0.257 -0.052,-0.513 -0.0763,-0.767 -0.0245,-0.258 -0.0478,-0.514 -0.07,-0.769 -0.0224,-0.258 -0.0437,-0.514 -0.0638,-0.769 -0.0204,-0.259 -0.0395,-0.516 -0.0575,-0.771 -0.0182,-0.258 -0.0353,-0.514 -0.0512,-0.769 -0.0161,-0.259 -0.0311,-0.516 -0.045,-0.772 -0.014,-0.258 -0.0268,-0.515 -0.0386,-0.77 -0.0119,-0.259 -0.0227,-0.516 -0.0324,-0.772 -0.0098,-0.259 -0.0184,-0.516 -0.026,-0.772 -0.0077,-0.259 -0.0142,-0.516 -0.0197,-0.771 -0.0056,-0.259 -0.01,-0.517 -0.0133,-0.772 -0.0035,-0.259 -0.0057,-0.516 -0.007,-0.771 -0.0012,-0.26 -0.0013,-0.518 -4e-4,-0.773 0.001,-0.26 0.0031,-0.517 0.0062,-0.771 0.0032,-0.261 0.0075,-0.518 0.0128,-0.773 0.0055,-0.261 0.0121,-0.518 0.0197,-0.772 0.0078,-0.261 0.0166,-0.518 0.0265,-0.771 0.0102,-0.261 0.0214,-0.518 0.0337,-0.771 0.0126,-0.261 0.0263,-0.518 0.041,-0.771 0.0152,-0.261 0.0314,-0.518 0.0486,-0.77 0.0179,-0.262 0.0368,-0.519 0.0566,-0.77 0.0207,-0.263 0.0424,-0.519 0.065,-0.77 0.0237,-0.263 0.0485,-0.519 0.074,-0.768 0.027,-0.264 0.0549,-0.519 0.0836,-0.767 0.0307,-0.265 0.0623,-0.52 0.0946,-0.766 0.035,-0.267 0.0707,-0.522 0.1069,-0.765 0.0401,-0.269 0.0808,-0.523 0.1217,-0.762 0.0468,-0.273 0.0939,-0.526 0.1407,-0.759 0.0569,-0.282 0.1134,-0.533 0.1685,-0.752 0.079,-0.314 0.1552,-0.561 0.2257,-0.737 0.1108,-0.277 0.2263,-0.578 0.3533,-0.881 0.1209,-0.29 0.2523,-0.582 0.4,-0.86 0.1522,-0.286 0.3219,-0.558 0.5153,-0.795 0.2068,-0.253 0.4409,-0.467 0.71,-0.619 0.2657,-0.149 0.5655,-0.238 0.9072,-0.242 0.2799,-0.004 0.588,0.048 0.9282,0.168 0.2641,0.094 0.5477,0.228 0.8526,0.41 0.2465,0.147 0.507,0.325 0.7824,0.536 0.2319,0.178 0.4744,0.38 0.7281,0.607 0.2204,0.198 0.4492,0.415 0.687,0.653 0.2097,0.21 0.426,0.433 0.6481,0.669 0.2053,0.218 0.4155,0.446 0.6299,0.685 0.2017,0.224 0.407,0.458 0.6156,0.699 0.1982,0.229 0.3992,0.466 0.6025,0.709 0.1953,0.233 0.3927,0.473 0.5919,0.719 0.1925,0.237 0.3867,0.48 0.582,0.727 0.1895,0.24 0.3802,0.485 0.5717,0.734 0.1873,0.243 0.3753,0.491 0.5638,0.742 0.1845,0.246 0.3695,0.495 0.5545,0.747 0.1821,0.249 0.3643,0.5 0.5463,0.754 0.1796,0.251 0.3591,0.504 0.538,0.76 0.1771,0.253 0.3536,0.508 0.5294,0.765 0.1747,0.256 0.3485,0.513 0.5214,0.772 0.172,0.257 0.3429,0.516 0.5126,0.777 0.1694,0.26 0.3375,0.521 0.504,0.783 0.1666,0.262 0.3316,0.525 0.4948,0.788 0.1636,0.264 0.3253,0.529 0.4849,0.794 0.1605,0.267 0.3189,0.534 0.4748,0.8 0.1574,0.27 0.3122,0.539 0.4643,0.808 0.1539,0.272 0.305,0.543 0.4529,0.814 0.1499,0.274 0.2966,0.548 0.4397,0.821 0.1457,0.277 0.2878,0.553 0.4259,0.828 0.1409,0.28 0.2778,0.559 0.4102,0.836 0.1356,0.283 0.2665,0.565 0.3924,0.844 0.1295,0.287 0.2536,0.571 0.3719,0.853 0.1226,0.291 0.2389,0.579 0.3486,0.863 0.1143,0.296 0.2214,0.588 0.3209,0.875 0.104,0.3 0.1996,0.595 0.2862,0.884 0.0917,0.306 0.1733,0.606 0.244,0.898 0.0757,0.313 0.139,0.617 0.1891,0.911 0.0487,0.286 0.0921,0.593 0.1304,0.92 0.0345,0.293 0.0649,0.601 0.0915,0.923 0.0245,0.297 0.0458,0.606 0.0641,0.925 0.0171,0.301 0.0315,0.61 0.0434,0.928 0.0113,0.302 0.0202,0.611 0.027,0.927 0.0065,0.304 0.011,0.614 0.0136,0.93 0.0026,0.304 0.0033,0.614 0.0024,0.928 -9e-4,0.305 -0.0034,0.615 -0.0074,0.928 -0.0039,0.306 -0.0093,0.616 -0.0159,0.928 -0.0066,0.308 -0.0144,0.618 -0.0235,0.93 -0.0089,0.307 -0.019,0.617 -0.0302,0.927 -0.0111,0.309 -0.0233,0.618 -0.0364,0.929 -0.0131,0.308 -0.0271,0.617 -0.0421,0.927 -0.0149,0.309 -0.0308,0.618 -0.0474,0.928 -0.0167,0.309 -0.0342,0.618 -0.0524,0.927 -0.0183,0.31 -0.0373,0.619 -0.0571,0.927 -0.0199,0.31 -0.0404,0.62 -0.0616,0.927 -0.0214,0.311 -0.0434,0.62 -0.066,0.927 -0.0229,0.311 -0.0463,0.619 -0.0702,0.925 -0.0243,0.312 -0.0492,0.62 -0.0744,0.925 -0.0258,0.312 -0.0521,0.621 -0.0787,0.925 -0.0274,0.313 -0.0551,0.621 -0.083,0.924 -0.029,0.315 -0.0583,0.623 -0.0877,0.925 -0.0307,0.315 -0.0616,0.624 -0.0924,0.924 -0.0327,0.317 -0.0654,0.626 -0.0979,0.924 -0.0349,0.319 -0.0696,0.627 -0.1039,0.922 -0.0377,0.324 -0.075,0.631 -0.1115,0.921 -0.0417,0.332 -0.0825,0.64 -0.1219,0.921 -0.0484,0.347 -0.0948,0.655 -0.1384,0.918 -0.0708,0.427 -0.1341,0.738 -0.1868,0.909 -0.02,0.065 -0.0391,0.128 -0.0574,0.188 -0.0197,0.065 -0.0384,0.128 -0.0563,0.188 -0.0193,0.065 -0.0376,0.128 -0.0549,0.188 -0.0192,0.066 -0.0371,0.13 -0.0539,0.19 -0.0187,0.067 -0.036,0.13 -0.052,0.189 -0.0182,0.068 -0.0347,0.131 -0.0496,0.19 -0.0176,0.07 -0.0329,0.133 -0.0463,0.19 -0.0168,0.073 -0.0305,0.136 -0.0415,0.191 -0.0159,0.08 -0.0263,0.143 -0.0328,0.193 -0.0251,0.191 0.0065,0.191 0.0065,0.191 0,0 -0.2397,-0.13 -0.6616,-0.396 -0.1829,-0.115 -0.3999,-0.256 -0.6464,-0.422 -0.1937,-0.131 -0.4055,-0.278 -0.6333,-0.44 -0.1962,-0.141 -0.4043,-0.293 -0.6227,-0.457 -0.1958,-0.147 -0.3998,-0.304 -0.6112,-0.47 -0.194,-0.153 -0.3941,-0.315 -0.5995,-0.484 -0.1921,-0.158 -0.3888,-0.324 -0.5895,-0.497 -0.1897,-0.164 -0.383,-0.334 -0.5793,-0.51 -0.1866,-0.168 -0.3758,-0.342 -0.5673,-0.522 -0.1835,-0.172 -0.369,-0.35 -0.5562,-0.533 -0.1805,-0.177 -0.3626,-0.358 -0.5458,-0.545 -0.1769,-0.181 -0.355,-0.366 -0.5338,-0.557 -0.1733,-0.184 -0.3474,-0.373 -0.5218,-0.567 -0.1698,-0.189 -0.3399,-0.381 -0.5101,-0.579 -0.1658,-0.192 -0.3317,-0.388 -0.4975,-0.589 -0.162,-0.196 -0.3238,-0.396 -0.4853,-0.6 -0.1576,-0.199 -0.3149,-0.402 -0.4716,-0.609 -0.1537,-0.203 -0.3067,-0.41 -0.4589,-0.62 -0.1494,-0.207 -0.2979,-0.417 -0.4454,-0.63 -0.1446,-0.21 -0.2883,-0.423 -0.4309,-0.639 -0.1401,-0.213 -0.2791,-0.429 -0.4168,-0.648 -0.1356,-0.216 -0.27,-0.436 -0.4029,-0.658 -0.1306,-0.219 -0.2598,-0.441 -0.3875,-0.666 -0.1258,-0.222 -0.2501,-0.446 -0.3727,-0.674 -0.1211,-0.225 -0.2406,-0.453 -0.3583,-0.685 -0.1158,-0.227 -0.2299,-0.457 -0.3422,-0.691 -0.1107,-0.23 -0.2197,-0.463 -0.3267,-0.699 -0.1055,-0.232 -0.209,-0.468 -0.3106,-0.706 -0.1002,-0.235 -0.1985,-0.473 -0.2947,-0.713 -0.0947,-0.237 -0.1873,-0.477 -0.2778,-0.719 -0.1034,-0.277 -0.2042,-0.557 -0.3023,-0.84 -0.0969,-0.279 -0.1913,-0.561 -0.2832,-0.846 -0.0908,-0.281 -0.1792,-0.565 -0.2652,-0.851 -0.0851,-0.284 -0.1679,-0.57 -0.2484,-0.857 -0.0798,-0.286 -0.1572,-0.573 -0.2325,-0.862 -0.0745,-0.286 -0.1469,-0.574 -0.2171,-0.864 -0.0698,-0.288 -0.1374,-0.578 -0.203,-0.869 -0.0652,-0.29 -0.1283,-0.58 -0.1894,-0.872 -0.0608,-0.291 -0.1196,-0.582 -0.1764,-0.875 -0.0565,-0.291 -0.1111,-0.584 -0.1638,-0.877 -0.0525,-0.292 -0.1031,-0.585 -0.1518,-0.879 -0.0487,-0.293 -0.0955,-0.587 -0.1405,-0.882 -0.0449,-0.293 -0.0879,-0.587 -0.1292,-0.882 -0.0413,-0.294 -0.0807,-0.589 -0.1185,-0.883 -0.0378,-0.296 -0.0739,-0.591 -0.1082,-0.886 -0.0344,-0.296 -0.067,-0.591 -0.098,-0.887 -0.0311,-0.296 -0.0605,-0.592 -0.0882,-0.887 -0.0279,-0.297 -0.0541,-0.593 -0.0786,-0.889 -0.0247,-0.297 -0.0477,-0.594 -0.0691,-0.889 -0.0215,-0.298 -0.0415,-0.595 -0.0598,-0.891 -0.0185,-0.298 -0.0353,-0.595 -0.0506,-0.89 -0.0154,-0.299 -0.0292,-0.596 -0.0414,-0.891 -0.0124,-0.299 -0.0232,-0.596 -0.0324,-0.891 -0.0094,-0.3 -0.0171,-0.597 -0.0233,-0.893 -0.0063,-0.299 -0.011,-0.597 -0.0141,-0.892 -0.0032,-0.299 -0.0048,-0.597 -0.0049,-0.892 -10e-5,-0.3 0.0014,-0.597 0.0045,-0.892 0.0031,-0.3 0.0079,-0.597 0.0142,-0.892 0.0064,-0.3 0.0145,-0.598 0.0241,-0.892 0.0098,-0.3 0.0213,-0.597 0.0344,-0.89 0.0135,-0.301 0.0286,-0.598 0.0453,-0.89 0.0173,-0.303 0.0363,-0.6 0.057,-0.892 0.0214,-0.302 0.0445,-0.598 0.0693,-0.889 0.026,-0.303 0.0537,-0.599 0.0832,-0.888 0.0309,-0.304 0.0638,-0.599 0.0984,-0.886 0.0369,-0.305 0.0757,-0.601 0.1164,-0.886 0.0437,-0.306 0.0895,-0.6 0.1374,-0.882 0.0523,-0.307 0.1069,-0.6 0.1638,-0.876 0.0637,-0.311 0.1301,-0.601 0.199,-0.869 0.0809,-0.316 0.1652,-0.602 0.2523,-0.856 0.0706,-0.206 0.1398,-0.404 0.2075,-0.596 0.0729,-0.206 0.1442,-0.404 0.2138,-0.594 0.0754,-0.205 0.149,-0.402 0.2205,-0.59 0.0786,-0.206 0.1549,-0.401 0.2288,-0.587 0.0827,-0.207 0.1625,-0.401 0.2393,-0.584 0.0875,-0.208 0.1713,-0.401 0.2512,-0.579 0.0941,-0.21 0.1829,-0.399 0.2665,-0.571 0.104,-0.214 0.1999,-0.4 0.2876,-0.561 0.1226,-0.225 0.2295,-0.403 0.3205,-0.543 0.262,-0.403 0.393,-0.49 0.393,-0.49 0,0 -0.1245,-0.283 -0.3329,-0.821 -0.0893,-0.23 -0.194,-0.507 -0.3109,-0.829 -0.0915,-0.251 -0.1904,-0.53 -0.2953,-0.835 -0.0897,-0.261 -0.1837,-0.541 -0.2811,-0.839 -0.0871,-0.267 -0.1769,-0.549 -0.2687,-0.844 -0.084,-0.271 -0.1697,-0.554 -0.2566,-0.848 -0.081,-0.274 -0.163,-0.558 -0.2456,-0.852 -0.0775,-0.276 -0.1556,-0.561 -0.2339,-0.854 -0.0744,-0.279 -0.1489,-0.565 -0.2232,-0.858 -0.071,-0.28 -0.1418,-0.567 -0.2122,-0.86 -0.0676,-0.281 -0.1348,-0.569 -0.2014,-0.862 -0.0643,-0.282 -0.128,-0.571 -0.1909,-0.864 -0.061,-0.284 -0.1212,-0.573 -0.1805,-0.867 -0.0576,-0.285 -0.1143,-0.575 -0.17,-0.869 -0.0542,-0.286 -0.1074,-0.577 -0.1595,-0.871 -0.0509,-0.288 -0.1007,-0.579 -0.1493,-0.874 -0.0474,-0.289 -0.0936,-0.58 -0.1385,-0.875 -0.044,-0.289 -0.0867,-0.581 -0.128,-0.877 -0.0405,-0.29 -0.0797,-0.583 -0.1175,-0.879 -0.037,-0.29 -0.0727,-0.583 -0.1068,-0.879 -0.0335,-0.291 -0.0656,-0.584 -0.0962,-0.88 -0.03,-0.292 -0.0585,-0.585 -0.0854,-0.882 -0.0265,-0.292 -0.0514,-0.586 -0.0747,-0.883 -0.0229,-0.292 -0.0441,-0.586 -0.0637,-0.883 -0.0193,-0.292 -0.0369,-0.587 -0.0528,-0.884 -0.0157,-0.293 -0.0297,-0.588 -0.0419,-0.885 -0.012,-0.293 -0.0223,-0.588 -0.0308,-0.885 -0.0083,-0.293 -0.0149,-0.588 -0.0196,-0.885 -0.0047,-0.294 -0.0075,-0.589 -0.0084,-0.886 -9e-4,-0.294 0,-0.589 0.0029,-0.886 0.0026,-0.264 0.0074,-0.528 0.0145,-0.793 0.0071,-0.264 0.0164,-0.528 0.0278,-0.792 0.0114,-0.264 0.0249,-0.528 0.0405,-0.791 0.0155,-0.264 0.0332,-0.528 0.0528,-0.791 0.0196,-0.264 0.0411,-0.5273 0.0646,-0.7904 0.0235,-0.2633 0.0488,-0.5264 0.076,-0.789 0.0272,-0.2629 0.0562,-0.5254 0.087,-0.7875 0.0307,-0.2624 0.0632,-0.5243 0.0974,-0.7857 0.0343,-0.2623 0.0703,-0.5242 0.1078,-0.7854 0.0377,-0.2622 0.077,-0.5237 0.1178,-0.7845 0.041,-0.2618 0.0835,-0.5229 0.1274,-0.7832 0.044,-0.2609 0.0895,-0.521 0.1364,-0.7801 0.047,-0.2605 0.0955,-0.52 0.1452,-0.7785 0.0501,-0.2604 0.1016,-0.5197 0.1542,-0.7779 0.053,-0.2599 0.1072,-0.5186 0.1625,-0.7761 0.0558,-0.2594 0.1127,-0.5175 0.1707,-0.7743 0.0584,-0.2587 0.1179,-0.516 0.1784,-0.7718 0.0612,-0.2587 0.1234,-0.5158 0.1865,-0.7713 0.0637,-0.2578 0.1283,-0.5139 0.1937,-0.7683 0.0662,-0.2573 0.1332,-0.5129 0.201,-0.7665 0.0686,-0.2567 0.1379,-0.5114 0.208,-0.764 0.071,-0.2565 0.1427,-0.5107 0.215,-0.7628 0.0735,-0.2559 0.1475,-0.5095 0.2219,-0.7607 0.0759,-0.2558 0.1522,-0.5091 0.2288,-0.7597 0.0782,-0.2554 0.1567,-0.508 0.2354,-0.7576 0.0803,-0.2545 0.1608,-0.506 0.2414,-0.7542 0.0825,-0.2541 0.1651,-0.5049 0.2476,-0.7522 0.0849,-0.2541 0.1697,-0.5046 0.2543,-0.7512 0.0872,-0.2541 0.1742,-0.5041 0.2607,-0.7497 0.0893,-0.2535 0.1782,-0.5025 0.2665,-0.7466 0.0916,-0.2533 0.1825,-0.5014 0.2725,-0.7442 0.0938,-0.2531 0.1867,-0.5004 0.2784,-0.7415 0.0963,-0.2533 0.1912,-0.4999 0.2845,-0.7394 0.0988,-0.2536 0.1958,-0.4993 0.2906,-0.7367 0.1019,-0.255 0.2012,-0.5006 0.2976,-0.7361 0.105,-0.2564 0.2065,-0.501 0.304,-0.7333 0.1088,-0.259 0.2126,-0.5025 0.3106,-0.7299 0.1139,-0.2641 0.2201,-0.5064 0.3173,-0.7255 0.1239,-0.2792 0.2332,-0.5208 0.3256,-0.7221 0.2147,-0.4679 0.3375,-0.7183 0.3375,-0.7183 0,0 0.1951,0.2844 0.5316,0.7791 0.15,0.2205 0.3281,0.4828 0.5295,0.7803 0.1617,0.2389 0.3385,0.5004 0.5278,0.7812 0.1661,0.2465 0.342,0.5078 0.5258,0.7817 0.1686,0.2511 0.3438,0.5127 0.5246,0.7831 0.1698,0.2541 0.3444,0.516 0.5228,0.7842 0.1705,0.2563 0.3445,0.5183 0.5209,0.7849 0.1711,0.2583 0.3445,0.5209 0.5194,0.7866 0.1713,0.26 0.344,0.523 0.5173,0.7878 0.1713,0.2617 0.3433,0.5251 0.5151,0.7893 0.1711,0.2631 0.3421,0.5269 0.5122,0.7904 0.1713,0.2652 0.3416,0.5302 0.5103,0.7937 0.1709,0.267 0.3401,0.5326 0.5068,0.7956 0.1705,0.269 0.3383,0.5353 0.5027,0.7978 0.1698,0.2713 0.336,0.5385 0.4974,0.8002 0.1692,0.2744 0.3333,0.5428 0.4911,0.8037 0.1688,0.279 0.3303,0.5494 0.4834,0.8093 0.1682,0.2857 0.3262,0.5588 0.4721,0.8168 0.1679,0.2969 0.3198,0.5739 0.453,0.8272 0.17,0.3231 0.3096,0.6076 0.4132,0.8459 0.1002,0.2304 0.1963,0.4513 0.2879,0.6634 0.1003,0.232 0.1953,0.4537 0.2846,0.6662 0.0983,0.2339 0.1898,0.4566 0.274,0.67 0.0935,0.2372 0.178,0.4627 0.2528,0.6788 0.0835,0.2414 0.1549,0.4711 0.2132,0.6922 0.0646,0.2452 0.1132,0.4798 0.1443,0.7082 0.0336,0.2465 0.047,0.4858 0.0385,0.7231 -0.0086,0.2389 -0.0394,0.4758 -0.094,0.7164 -0.0511,0.2251 -0.1231,0.4534 -0.2173,0.6894 -0.0844,0.2115 -0.1867,0.4292 -0.3078,0.6563 -0.1209,0.2268 -0.2575,0.4097 -0.4044,0.5515 -0.1826,0.1761 -0.3812,0.2886 -0.5854,0.3424 -0.2231,0.0587 -0.4529,0.0473 -0.676,-0.0277 -0.2023,-0.068 -0.3991,-0.1882 -0.5804,-0.3558 -0.156,-0.1442 -0.3006,-0.3234 -0.4274,-0.5346 -0.1103,-0.1836 -0.2071,-0.3914 -0.2864,-0.6214 -0.0705,-0.2044 -0.127,-0.4264 -0.1668,-0.6644 -0.0359,-0.2153 -0.0581,-0.4437 -0.0644,-0.6843 -0.0057,-0.219 0.0018,-0.4479 0.0241,-0.6862 0.0205,-0.2186 0.0535,-0.4449 0.1002,-0.6785 0.0433,-0.2163 0.1219,-0.4301 0.2316,-0.6408 0.1003,-0.1927 0.2265,-0.3829 0.3753,-0.5701 0.1359,-0.171 0.2906,-0.3397 0.4617,-0.5056 0.1579,-0.1532 0.3297,-0.304 0.5134,-0.4525 0.1725,-0.1393 0.3555,-0.2764 0.5473,-0.4112 0.1824,-0.1281 0.3727,-0.2541 0.5696,-0.3778 0.19,-0.1194 0.386,-0.2365 0.587,-0.3515 0.1954,-0.1118 0.3955,-0.2215 0.5989,-0.3289 0.2002,-0.1057 0.4037,-0.2092 0.6094,-0.3104 0.2041,-0.1004 0.4104,-0.1986 0.6178,-0.2944 0.2075,-0.0958 0.416,-0.1893 0.6246,-0.2803 0.2102,-0.0916 0.4204,-0.1807 0.6295,-0.2672 0.2128,-0.0881 0.4246,-0.1734 0.634,-0.2559 0.2158,-0.085 0.4293,-0.1669 0.6389,-0.2457 0.2188,-0.0822 0.4335,-0.1609 0.6427,-0.2361 0.222,-0.0797 0.4378,-0.1554 0.6456,-0.2268 0.2265,-0.0779 0.4436,-0.1507 0.649,-0.2182 0.233,-0.0767 0.451,-0.1465 0.6507,-0.2092 0.2477,-0.0778 0.4674,-0.1447 0.6526,-0.2 0.4152,-0.1238 0.6579,-0.1894 0.6579,-0.1894 0,0 0.3121,-0.0573 0.886,-0.1497 0.2485,-0.04 0.546,-0.0866 0.8885,-0.1379 0.2696,-0.0404 0.5671,-0.0838 0.8905,-0.1292 0.2784,-0.0391 0.576,-0.0798 0.8916,-0.1214 0.2832,-0.0374 0.5808,-0.0755 0.892,-0.1141 0.286,-0.0354 0.5835,-0.0711 0.8916,-0.1069 0.2887,-0.0334 0.5867,-0.0669 0.8935,-0.1001 0.2902,-0.0314 0.5883,-0.0626 0.8938,-0.0934 0.2915,-0.0293 0.5898,-0.0582 0.8943,-0.0865 0.2929,-0.0273 0.5916,-0.0539 0.8957,-0.0799 0.2939,-0.0251 0.5928,-0.0495 0.8964,-0.0731 0.2946,-0.0228 0.5937,-0.0449 0.8969,-0.0661 0.2954,-0.0206 0.5947,-0.0403 0.8976,-0.059 0.2957,-0.0183 0.5948,-0.0356 0.8972,-0.0519 0.2962,-0.0159 0.5954,-0.0308 0.8975,-0.0445 0.297,-0.0134 0.596,-0.0258 0.898,-0.037 0.297,-0.0109 0.597,-0.0207 0.898,-0.0292 0.298,-0.0084 0.597,-0.0156 0.898,-0.0214 0.298,-0.0057 0.598,-0.0101 0.899,-0.0131 0.298,-0.003 0.598,-0.0046 0.899,-0.0047 0.298,-1e-4 0.598,0.0012 0.899,0.0041 0.299,0.0028 0.599,0.0072 0.9,0.0131 0.298,0.0059 0.598,0.0134 0.898,0.0226 0.299,0.0091 0.598,0.0199 0.898,0.0324 0.299,0.0124 0.598,0.0266 0.898,0.0425 0.298,0.016 0.597,0.0337 0.897,0.0533 0.298,0.0195 0.597,0.0409 0.896,0.0643 0.299,0.0234 0.597,0.0487 0.895,0.076 0.299,0.0274 0.597,0.0568 0.895,0.0884 0.298,0.0315 0.596,0.0651 0.893,0.101 0.298,0.036 0.595,0.0741 0.891,0.1146 0.298,0.0407 0.595,0.0836 0.891,0.129 0.297,0.0456 0.593,0.0935 0.888,0.144 0.296,0.0507 0.591,0.104 0.884,0.1598 0.295,0.0562 0.589,0.1151 0.881,0.1766 0.295,0.062 0.587,0.1268 0.878,0.1944 0.293,0.0682 0.584,0.1393 0.873,0.2134 0.292,0.0747 0.581,0.1525 0.868,0.2334 0.29,0.0817 0.577,0.1665 0.861,0.2547 0.288,0.0892 0.574,0.1818 0.856,0.2778 0.26,0.0885 0.513,0.1773 0.76,0.2663 0.259,0.0933 0.511,0.187 0.755,0.2808 0.258,0.0988 0.507,0.1978 0.749,0.297 0.256,0.1048 0.503,0.2097 0.742,0.3148 0.253,0.1113 0.497,0.2227 0.732,0.3343 0.25,0.1188 0.491,0.2378 0.721,0.3569 0.247,0.1274 0.483,0.2549 0.708,0.3823 0.244,0.1375 0.474,0.2749 0.693,0.4121 0.238,0.1488 0.461,0.2974 0.671,0.4454 0.231,0.162 0.445,0.3234 0.644,0.4841 0.22,0.1778 0.422,0.3545 0.608,0.53 0.206,0.1957 0.391,0.3898 0.557,0.5819 0.187,0.2163 0.349,0.43 0.489,0.6405 0.158,0.238 0.288,0.4719 0.393,0.7007 0.119,0.2601 0.206,0.5137 0.267,0.7593 0.068,0.2759 0.103,0.5419 0.111,0.7959 0.009,0.2824 -0.015,0.5501 -0.06,0.8005 -0.051,0.2803 -0.13,0.539 -0.222,0.7723 -0.11,0.2772 -0.239,0.5187 -0.362,0.718 -0.254,0.41 -0.486,0.642 -0.486,0.642 0,0 -0.2,0.09 -0.498,0.147 -0.152,0.029 -0.328,0.0495 -0.517,0.0452 -0.164,-0.0037 -0.338,-0.0261 -0.511,-0.0779 -0.158,-0.0471 -0.316,-0.1186 -0.468,-0.2224 -0.132,-0.0909 -0.26,-0.2065 -0.378,-0.3524 -0.1,-0.1235 -0.193,-0.2685 -0.277,-0.4385 -0.07,-0.143 -0.134,-0.3038 -0.189,-0.4841 -0.048,-0.1538 -0.089,-0.3219 -0.123,-0.5054 -0.029,-0.1592 -0.054,-0.33 -0.072,-0.5133 -0.016,-0.163 -0.028,-0.3358 -0.034,-0.519 -0.008,-0.2339 0.004,-0.483 0.033,-0.7448 0.026,-0.2356 0.066,-0.4815 0.119,-0.7361 0.048,-0.2344 0.108,-0.4762 0.176,-0.7239 0.065,-0.2327 0.138,-0.4707 0.218,-0.7128 0.077,-0.231 0.16,-0.4659 0.25,-0.7034 0.086,-0.2291 0.177,-0.4608 0.273,-0.6941 0.094,-0.2278 0.192,-0.4572 0.293,-0.6874 0.1,-0.2261 0.204,-0.4529 0.31,-0.6797 0.105,-0.2242 0.213,-0.4484 0.323,-0.6718 0.11,-0.2235 0.222,-0.4461 0.335,-0.6673 0.114,-0.2222 0.229,-0.4429 0.345,-0.6613 0.118,-0.2215 0.237,-0.4407 0.355,-0.6568 0.122,-0.2205 0.243,-0.4378 0.363,-0.651 0.125,-0.2203 0.249,-0.4363 0.371,-0.6469 0.128,-0.221 0.255,-0.4361 0.379,-0.6442 0.132,-0.2215 0.26,-0.4351 0.385,-0.6396 0.136,-0.2234 0.267,-0.4358 0.392,-0.6357 0.141,-0.2274 0.274,-0.4384 0.397,-0.6307 0.153,-0.24 0.289,-0.4507 0.405,-0.6275 0.258,-0.3959 0.412,-0.621 0.412,-0.621 0,0 0.101,-0.1603 0.277,-0.4375 0.079,-0.1242 0.172,-0.2717 0.278,-0.4388 0.085,-0.1341 0.178,-0.2807 0.277,-0.4379 0.088,-0.1381 0.18,-0.2844 0.277,-0.4375 0.09,-0.141 0.182,-0.2877 0.278,-0.4391 0.091,-0.1425 0.183,-0.289 0.278,-0.4389 0.091,-0.1434 0.184,-0.2898 0.278,-0.4384 0.091,-0.1438 0.184,-0.2896 0.277,-0.4369 0.092,-0.1449 0.184,-0.291 0.277,-0.4379 0.093,-0.1457 0.185,-0.292 0.278,-0.4384 0.093,-0.1465 0.186,-0.2931 0.278,-0.439 0.093,-0.147 0.186,-0.2934 0.278,-0.4385 0.093,-0.1478 0.186,-0.2941 0.277,-0.4384 0.094,-0.1484 0.187,-0.2945 0.277,-0.4376 0.095,-0.1495 0.188,-0.2958 0.278,-0.4379 0.095,-0.151 0.188,-0.2973 0.277,-0.4379 0.097,-0.1534 0.19,-0.2999 0.278,-0.4383 0.099,-0.1575 0.193,-0.3044 0.278,-0.4386 0.105,-0.1666 0.198,-0.3137 0.277,-0.4375 0.175,-0.2773 0.277,-0.4377 0.277,-0.4377 0,0 0.131,0.2331 0.364,0.6627 0.101,0.1864 0.221,0.4098 0.358,0.6673 0.107,0.2024 0.225,0.4259 0.351,0.669 0.11,0.2098 0.226,0.4342 0.348,0.6723 0.11,0.2138 0.224,0.4387 0.343,0.674 0.109,0.2164 0.222,0.4417 0.338,0.6751 0.109,0.2189 0.221,0.445 0.335,0.678 0.108,0.2205 0.218,0.4472 0.33,0.6796 0.107,0.2223 0.216,0.4498 0.327,0.6823 0.106,0.2235 0.213,0.4516 0.322,0.684 0.105,0.2249 0.211,0.4537 0.318,0.6863 0.104,0.226 0.208,0.4555 0.314,0.6884 0.102,0.2267 0.205,0.4565 0.308,0.6892 0.102,0.228 0.203,0.4588 0.305,0.6922 0.1,0.229 0.2,0.4604 0.3,0.6942 0.098,0.2302 0.197,0.4625 0.295,0.6969 0.097,0.2307 0.194,0.4634 0.29,0.6979 0.095,0.2321 0.19,0.4659 0.285,0.7013 0.094,0.2326 0.187,0.4667 0.279,0.7022 0.092,0.2336 0.183,0.4686 0.274,0.7048 0.09,0.2345 0.179,0.4702 0.268,0.7068 0.088,0.2356 0.175,0.4722 0.262,0.7097 0.086,0.2365 0.171,0.4738 0.255,0.7117 0.084,0.2373 0.166,0.4752 0.248,0.7136 0.081,0.2383 0.162,0.4771 0.241,0.7163 0.079,0.2396 0.157,0.4796 0.233,0.7198 0.076,0.2407 0.152,0.4817 0.225,0.7226 0.074,0.242 0.146,0.484 0.217,0.7259 0.071,0.2423 0.14,0.4846 0.207,0.7266 0.067,0.2439 0.133,0.4876 0.197,0.7308 0.064,0.2448 0.126,0.4891 0.186,0.7329 0.061,0.2459 0.119,0.4913 0.175,0.7359 0.057,0.2469 0.111,0.493 0.162,0.7381 0.053,0.2482 0.102,0.4955 0.149,0.7415 0.048,0.2497 0.092,0.4981 0.134,0.7451 0.042,0.2501 0.082,0.4988 0.118,0.7459 0.036,0.2517 0.07,0.5018 0.099,0.7499 0.031,0.2526 0.057,0.5032 0.08,0.7517 0.024,0.2536 0.043,0.505 0.058,0.7538 0.015,0.2548 0.027,0.5072 0.033,0.7562 0.009,0.334 0.017,0.667 0.024,1 0.007,0.334 0.014,0.667 0.02,1 0.005,0.334 0.01,0.667 0.014,1 0.004,0.333 0.007,0.666 0.009,0.998 0.002,0.334 0.003,0.668 0.003,1 0,0.334 -0.001,0.668 -0.003,1 -0.003,0.334 -0.006,0.667 -0.011,0.999 -0.005,0.334 -0.011,0.667 -0.019,0.999 -0.008,0.334 -0.017,0.667 -0.028,0.999 -0.011,0.334 -0.023,0.667 -0.037,0.999 -0.014,0.334 -0.03,0.666 -0.047,0.998 -0.018,0.334 -0.037,0.666 -0.059,0.997 -0.022,0.334 -0.045,0.667 -0.071,0.998 -0.026,0.334 -0.054,0.667 -0.084,0.997 -0.031,0.334 -0.064,0.666 -0.099,0.995 -0.035,0.334 -0.073,0.665 -0.114,0.994 -0.041,0.332 -0.085,0.662 -0.131,0.99 -0.047,0.332 -0.097,0.662 -0.149,0.989 -0.054,0.331 -0.11,0.66 -0.17,0.986 -0.06,0.329 -0.123,0.656 -0.19,0.98 -0.068,0.329 -0.139,0.655 -0.214,0.977 -0.076,0.327 -0.155,0.65 -0.239,0.97 -0.084,0.325 -0.173,0.646 -0.266,0.964 -0.094,0.322 -0.192,0.64 -0.295,0.954 -0.104,0.32 -0.213,0.635 -0.327,0.945 -0.115,0.316 -0.235,0.627 -0.361,0.933 -0.127,0.31 -0.259,0.616 -0.397,0.916 -0.139,0.306 -0.285,0.606 -0.436,0.9 -0.153,0.299 -0.312,0.592 -0.477,0.879 -0.167,0.29 -0.34,0.575 -0.52,0.853 -0.139,0.214 -0.278,0.429 -0.42,0.643 -0.14,0.213 -0.283,0.427 -0.426,0.64 -0.143,0.212 -0.287,0.423 -0.432,0.634 -0.144,0.211 -0.29,0.421 -0.438,0.631 -0.147,0.21 -0.295,0.419 -0.444,0.627 -0.149,0.208 -0.299,0.415 -0.45,0.622 -0.151,0.207 -0.303,0.413 -0.457,0.618 -0.153,0.205 -0.307,0.409 -0.462,0.613 -0.156,0.204 -0.312,0.407 -0.47,0.609 -0.158,0.202 -0.316,0.404 -0.476,0.604 -0.16,0.201 -0.321,0.401 -0.482,0.599 -0.163,0.199 -0.326,0.396 -0.489,0.593 -0.165,0.197 -0.33,0.393 -0.496,0.587 -0.167,0.195 -0.334,0.389 -0.502,0.581 -0.17,0.193 -0.34,0.385 -0.511,0.574 -0.172,0.192 -0.345,0.381 -0.518,0.568 -0.174,0.19 -0.35,0.376 -0.525,0.561 -0.178,0.187 -0.356,0.371 -0.534,0.553 -0.181,0.184 -0.362,0.366 -0.542,0.544 -0.184,0.182 -0.368,0.36 -0.552,0.536 -0.187,0.178 -0.374,0.353 -0.561,0.525 -0.19,0.175 -0.381,0.347 -0.571,0.515 -0.194,0.171 -0.388,0.339 -0.582,0.502 -0.198,0.168 -0.396,0.331 -0.593,0.49 -0.202,0.162 -0.404,0.32 -0.605,0.474 -0.207,0.157 -0.413,0.31 -0.619,0.457 -0.21,0.151 -0.421,0.297 -0.63,0.438 -0.216,0.144 -0.432,0.283 -0.646,0.415 -0.222,0.137 -0.442,0.267 -0.662,0.39 -0.227,0.127 -0.453,0.248 -0.678,0.36 -0.24,0.12 -0.482,0.236 -0.725,0.349 -0.244,0.113 -0.489,0.222 -0.735,0.327 -0.247,0.105 -0.496,0.207 -0.745,0.305 -0.25,0.098 -0.501,0.193 -0.752,0.283 -0.253,0.091 -0.507,0.179 -0.761,0.262 -0.256,0.084 -0.512,0.164 -0.768,0.24 -0.259,0.077 -0.517,0.15 -0.776,0.219 -0.26,0.07 -0.519,0.135 -0.779,0.197 -0.262,0.062 -0.524,0.121 -0.786,0.176 -0.264,0.055 -0.527,0.106 -0.789,0.153 -0.265,0.048 -0.53,0.092 -0.793,0.132 -0.267,0.04 -0.532,0.077 -0.796,0.109 -0.268,0.033 -0.535,0.063 -0.801,0.088 -0.268,0.025 -0.535,0.047 -0.801,0.064 -0.27,0.018 -0.538,0.032 -0.803,0.041 -0.271,0.01 -0.539,0.016 -0.804,0.018 -0.271,0.002 -0.539,-0.001 -0.804,-0.007 -0.272,-0.007 -0.54,-0.018 -0.805,-0.034 -0.271,-0.015 -0.538,-0.035 -0.802,-0.059 -0.271,-0.025 -0.538,-0.055 -0.801,-0.089 -0.297,-0.038 -0.592,-0.079 -0.886,-0.122 -0.297,-0.043 -0.592,-0.089 -0.883,-0.136 -0.298,-0.048 -0.593,-0.098 -0.882,-0.149 -0.299,-0.052 -0.593,-0.106 -0.88,-0.16 -0.3,-0.057 -0.593,-0.114 -0.877,-0.172 -0.303,-0.061 -0.596,-0.122 -0.876,-0.182 -0.307,-0.065 -0.599,-0.13 -0.875,-0.192 -0.313,-0.071 -0.604,-0.138 -0.87,-0.202 -0.332,-0.079 -0.624,-0.15 -0.869,-0.212 -0.55,-0.138 -0.865,-0.225 -0.865,-0.225 0,0 -0.259,0.127 -0.717,0.336 -0.204,0.093 -0.447,0.202 -0.724,0.323 -0.222,0.097 -0.465,0.201 -0.728,0.311 -0.23,0.097 -0.475,0.198 -0.733,0.302 -0.235,0.094 -0.481,0.192 -0.736,0.29 -0.239,0.093 -0.486,0.186 -0.741,0.28 -0.2421,0.09 -0.491,0.18 -0.7456,0.27 -0.2448,0.086 -0.4949,0.172 -0.7493,0.257 -0.2473,0.083 -0.4988,0.165 -0.7536,0.245 -0.2499,0.079 -0.5031,0.157 -0.7587,0.232 -0.2521,0.074 -0.5066,0.147 -0.7628,0.217 -0.254,0.069 -0.5098,0.136 -0.7666,0.2 -0.2561,0.064 -0.5133,0.125 -0.7709,0.183 -0.2585,0.057 -0.5173,0.112 -0.7759,0.162 -0.2604,0.05 -0.5205,0.097 -0.7796,0.139 -0.2626,0.042 -0.5241,0.08 -0.7838,0.112 -0.2648,0.033 -0.5277,0.061 -0.7881,0.082 -0.2668,0.022 -0.531,0.038 -0.7916,0.046 -0.268,0.009 -0.5323,0.011 -0.792,0.004 -0.2689,-0.007 -0.5329,-0.023 -0.7909,-0.048 -0.2922,-0.028 -0.5882,-0.066 -0.8873,-0.112 -0.2905,-0.045 -0.5839,-0.097 -0.8795,-0.157 -0.2887,-0.059 -0.5794,-0.124 -0.8715,-0.196 -0.2869,-0.071 -0.575,-0.148 -0.8637,-0.231 -0.2845,-0.082 -0.5696,-0.169 -0.8547,-0.262 -0.2823,-0.091 -0.5646,-0.188 -0.8463,-0.289 -0.2799,-0.1 -0.5591,-0.205 -0.8371,-0.314 -0.2776,-0.109 -0.554,-0.221 -0.8285,-0.338 -0.275,-0.116 -0.5482,-0.236 -0.8189,-0.36 -0.2728,-0.124 -0.5431,-0.251 -0.8103,-0.381 -0.2698,-0.131 -0.5365,-0.265 -0.7993,-0.401 -0.2672,-0.139 -0.5305,-0.28 -0.7891,-0.422 -0.264,-0.146 -0.5231,-0.293 -0.7767,-0.442 -0.2611,-0.153 -0.5165,-0.307 -0.7651,-0.463 -0.2577,-0.161 -0.5082,-0.322 -0.7507,-0.484 -0.254,-0.17 -0.4993,-0.34 -0.7348,-0.509 -0.25,-0.179 -0.4891,-0.359 -0.7159,-0.536 -0.2452,-0.192 -0.4761,-0.382 -0.6912,-0.569 -0.2381,-0.207 -0.4569,-0.41 -0.6543,-0.608 -0.2291,-0.23 -0.4294,-0.453 -0.5978,-0.666 -0.134,-0.17 -0.2888,-0.361 -0.4615,-0.572 -0.1438,-0.175 -0.2999,-0.365 -0.4668,-0.567 -0.1476,-0.179 -0.3035,-0.368 -0.4667,-0.567 -0.1493,-0.181 -0.3046,-0.371 -0.4651,-0.568 -0.1496,-0.184 -0.3036,-0.374 -0.4615,-0.571 -0.1495,-0.186 -0.3023,-0.377 -0.458,-0.574 -0.1485,-0.188 -0.2996,-0.381 -0.4526,-0.578 -0.1474,-0.19 -0.2967,-0.384 -0.4473,-0.582 -0.1461,-0.192 -0.2934,-0.388 -0.4416,-0.587 -0.1442,-0.194 -0.2891,-0.391 -0.4345,-0.591 -0.1424,-0.196 -0.2851,-0.395 -0.4279,-0.597 -0.1402,-0.198 -0.2805,-0.399 -0.4204,-0.603 -0.1377,-0.2 -0.275,-0.402 -0.4117,-0.607 -0.135,-0.203 -0.2694,-0.407 -0.4028,-0.614 -0.1322,-0.205 -0.2634,-0.411 -0.3933,-0.62 -0.1291,-0.207 -0.2568,-0.416 -0.383,-0.627 -0.1254,-0.209 -0.2493,-0.42 -0.3714,-0.633 -0.1216,-0.212 -0.2413,-0.425 -0.3588,-0.639 -0.1178,-0.215 -0.2333,-0.431 -0.3464,-0.649 -0.113,-0.217 -0.2236,-0.436 -0.3314,-0.655 -0.1082,-0.22 -0.2136,-0.441 -0.3158,-0.664 -0.1026,-0.222 -0.2021,-0.446 -0.2982,-0.671 -0.0966,-0.226 -0.1897,-0.452 -0.279,-0.679 -0.0899,-0.229 -0.1759,-0.458 -0.2578,-0.688 -0.0824,-0.231 -0.1605,-0.462 -0.2341,-0.694 -0.0744,-0.235 -0.1442,-0.469 -0.2089,-0.704 -0.0654,-0.238 -0.1256,-0.475 -0.1804,-0.712 -0.0553,-0.24 -0.105,-0.479 -0.1487,-0.719 -0.0442,-0.242 -0.0823,-0.483 -0.1139,-0.724 -0.032,-0.244 -0.0573,-0.487 -0.0756,-0.73 -0.0177,-0.235 -0.0345,-0.469 -0.0503,-0.702 -0.0158,-0.235 -0.0306,-0.468 -0.0442,-0.701 -0.0138,-0.235 -0.0264,-0.469 -0.0376,-0.702 -0.0114,-0.235 -0.0214,-0.469 -0.03,-0.702 -0.0086,-0.235 -0.0158,-0.469 -0.0214,-0.703 -0.0057,-0.235 -0.0097,-0.47 -0.012,-0.703 -0.0023,-0.236 -0.0028,-0.47 -0.0015,-0.703 0.0014,-0.235 0.0047,-0.47 0.0101,-0.703 0.0055,-0.236 0.013,-0.47 0.0228,-0.703 0.0099,-0.235 0.0221,-0.469 0.0367,-0.702 0.0148,-0.235 0.032,-0.469 0.0518,-0.701 0.02,-0.234 0.0427,-0.467 0.0681,-0.699 0.0257,-0.234 0.0542,-0.466 0.0857,-0.697 0.0319,-0.233 0.0668,-0.465 0.1048,-0.695 0.0384,-0.232 0.0801,-0.463 0.1251,-0.692 0.0454,-0.231 0.0942,-0.46 0.1466,-0.688 0.0528,-0.229 0.1093,-0.457 0.1695,-0.684 0.0606,-0.227 0.125,-0.452 0.1935,-0.677 0.0685,-0.224 0.1411,-0.447 0.2179,-0.668 0.0767,-0.221 0.1577,-0.441 0.2431,-0.659 0.0853,-0.218 0.1751,-0.434 0.2693,-0.649 0.094,-0.214 0.1925,-0.426 0.2957,-0.637 0.1027,-0.21 0.21,-0.418 0.322,-0.625 0.1115,-0.205 0.2277,-0.409 0.3488,-0.611 0.1197,-0.199 0.2442,-0.397 0.3737,-0.594 0.128,-0.194 0.2609,-0.387 0.3988,-0.579 0.1363,-0.188 0.2773,-0.376 0.4234,-0.561 0.1436,-0.183 0.292,-0.364 0.4454,-0.543 0.1511,-0.177 0.3071,-0.353 0.468,-0.526 0.1577,-0.171 0.3203,-0.34 0.4877,-0.507 0.1739,-0.174 0.3525,-0.344 0.5356,-0.51 0.1819,-0.166 0.3682,-0.327 0.5587,-0.485 0.189,-0.157 0.3821,-0.31 0.579,-0.46 0.1956,-0.149 0.3948,-0.293 0.5975,-0.435 0.2013,-0.14 0.406,-0.277 0.6138,-0.41 0.2069,-0.133 0.4169,-0.262 0.6297,-0.387 0.2119,-0.125 0.4265,-0.246 0.6437,-0.364 0.2159,-0.117 0.4343,-0.231 0.655,-0.341 0.22,-0.109 0.4422,-0.215 0.6664,-0.318 0.2242,-0.103 0.4504,-0.202 0.6782,-0.297 0.2274,-0.095 0.4564,-0.187 0.6869,-0.275 0.2302,-0.088 0.4619,-0.172 0.6948,-0.253 0.2327,-0.08 0.4666,-0.158 0.7014,-0.231 0.2353,-0.0736 0.4715,-0.1436 0.7084,-0.2099 0.2375,-0.0665 0.4756,-0.1293 0.7142,-0.1884 0.2397,-0.0594 0.4799,-0.1151 0.7202,-0.167 0.2416,-0.0522 0.4833,-0.1006 0.7248,-0.1451 0.243,-0.0448 0.4859,-0.0857 0.7283,-0.1227 0.2451,-0.0375 0.4897,-0.0709 0.7336,-0.1003 0.2458,-0.0297 0.4909,-0.0552 0.735,-0.0767 0.2467,-0.0217 0.4924,-0.0392 0.7368,-0.0525 0.2478,-0.0135 0.4942,-0.0226 0.7388,-0.0274 0.2483,-0.0049 0.4947,-0.0052 0.7392,-0.0011 0.2486,0.0043 0.4952,0.0132 0.7392,0.0268 0.2484,0.0139 0.4943,0.0326 0.7372,0.0563 0.2479,0.0241 0.4928,0.0534 0.7342,0.0878 0.2465,0.0352 0.4895,0.0757 0.7284,0.1216 0.245,0.0471 0.4858,0.0999 0.7218,0.1584 0.2427,0.0602 0.4805,0.1264 0.7128,0.1987 0.2388,0.0743 0.4718,0.1551 0.6986,0.2423 0.2362,0.0909 0.4668,0.1855 0.6921,0.2832 0.232,0.102 0.4584,0.206 0.6794,0.315 0.2268,0.111 0.4479,0.226 0.6636,0.344 0.2214,0.122 0.437,0.247 0.6473,0.376 0.2154,0.131 0.4251,0.267 0.6294,0.405 0.2086,0.142 0.4115,0.287 0.6092,0.435 0.2019,0.151 0.3983,0.306 0.5895,0.463 0.1942,0.16 0.3831,0.323 0.5669,0.489 0.1868,0.168 0.3684,0.339 0.5453,0.513 0.1796,0.176 0.3543,0.355 0.5244,0.536 0.1719,0.183 0.3392,0.368 0.5023,0.555 0.1651,0.189 0.3259,0.38 0.4827,0.572 0.1587,0.195 0.3133,0.391 0.4643,0.588 0.1527,0.199 0.3017,0.4 0.4475,0.601 0.1472,0.202 0.291,0.406 0.4321,0.61 0.1427,0.206 0.2825,0.412 0.4199,0.618 0.1394,0.209 0.2763,0.418 0.4112,0.626 0.1367,0.211 0.2713,0.421 0.4045,0.63 0.1353,0.212 0.269,0.423 0.4017,0.633 0.1348,0.212 0.2685,0.423 0.4018,0.631 0.0939,0.147 0.1875,0.295 0.2808,0.445 0.0925,0.148 0.1846,0.298 0.2763,0.448 0.0908,0.15 0.1812,0.3 0.2711,0.451 0.0892,0.151 0.1792,0.302 0.2672,0.454 0.088,0.152 0.176,0.304 0.263,0.457 0.087,0.153 0.174,0.306 0.26,0.459 0.085,0.153 0.171,0.307 0.255,0.46 0.085,0.154 0.169,0.308 0.251,0.462 0.085,0.156 0.167,0.311 0.249,0.465 0.083,0.156 0.165,0.311 0.245,0.465 0.082,0.158 0.163,0.314 0.242,0.468 0.081,0.159 0.161,0.316 0.239,0.471 0.08,0.159 0.158,0.317 0.234,0.471 0.08,0.161 0.157,0.319 0.232,0.473 0.078,0.163 0.154,0.322 0.227,0.475 0.078,0.165 0.152,0.324 0.223,0.477 0.077,0.167 0.15,0.328 0.217,0.48 0.077,0.172 0.147,0.333 0.211,0.483 0.077,0.18 0.144,0.343 0.2,0.487 0.083,0.209 0.142,0.377 0.176,0.496 0.052,0.182 0.095,0.368 0.116,0.568 0.019,0.18 0.02,0.37 -0.004,0.579 -0.021,0.175 -0.061,0.362 -0.124,0.566 -0.052,0.168 -0.121,0.347 -0.208,0.54 -0.074,0.162 -0.162,0.334 -0.265,0.516 -0.089,0.157 -0.189,0.322 -0.302,0.496 -0.099,0.153 -0.208,0.312 -0.327,0.479 -0.107,0.15 -0.222,0.305 -0.346,0.466 -0.113,0.146 -0.232,0.298 -0.36,0.455 -0.117,0.144 -0.241,0.293 -0.371,0.446 -0.188,0.221 -0.373,0.436 -0.553,0.645 -0.191,0.221 -0.376,0.435 -0.555,0.644 -0.191,0.222 -0.375,0.438 -0.55,0.65 -0.1869,0.226 -0.3641,0.447 -0.5291,0.664 -0.1792,0.236 -0.3439,0.466 -0.4917,0.694 -0.1612,0.249 -0.3022,0.494 -0.4196,0.739 -0.1273,0.265 -0.2269,0.529 -0.2946,0.796 -0.0701,0.276 -0.1059,0.555 -0.1025,0.841 0.0033,0.272 0.0422,0.551 0.1211,0.838 0.0701,0.256 0.1718,0.519 0.3079,0.791 0.112,0.224 0.2314,0.461 0.3562,0.706 0.1158,0.228 0.2361,0.464 0.3595,0.704 0.1184,0.231 0.2395,0.466 0.3618,0.702 0.1205,0.233 0.242,0.468 0.364,0.702 0.122,0.235 0.245,0.47 0.365,0.701 0.125,0.238 0.248,0.473 0.367,0.7 0.127,0.242 0.251,0.477 0.368,0.7 0.131,0.248 0.255,0.483 0.369,0.699 0.14,0.263 0.264,0.499 0.37,0.699 0.231,0.435 0.371,0.697 0.371,0.697 0,0 0.045,0.067 0.116,0.174 0.034,0.051 0.073,0.11 0.117,0.175 0.036,0.055 0.075,0.113 0.116,0.175 0.038,0.056 0.077,0.115 0.117,0.175 0.038,0.058 0.078,0.117 0.117,0.176 0.039,0.059 0.079,0.118 0.117,0.176 0.04,0.06 0.08,0.119 0.117,0.176 0.041,0.061 0.081,0.12 0.117,0.175 0.043,0.065 0.083,0.124 0.116,0.174 0.073,0.109 0.118,0.177 0.118,0.177 0,0 0,0.07 0.013,0.154 0.007,0.048 0.019,0.102 0.037,0.15 0.021,0.053 0.05,0.099 0.091,0.122 0.039,0.022 0.087,0.024 0.149,-0.006 0.037,-0.018 0.079,-0.047 0.125,-0.089 0.033,-0.03 0.069,-0.067 0.107,-0.112 0.031,-0.036 0.063,-0.076 0.097,-0.121 0.029,-0.039 0.059,-0.081 0.09,-0.128 0.028,-0.04 0.056,-0.084 0.086,-0.13 0.026,-0.042 0.053,-0.085 0.081,-0.132 0.117,-0.194 0.293,-0.487 0.51,-0.848 0.152,-0.253 0.324,-0.538 0.511,-0.848 0.161,-0.267 0.333,-0.552 0.511,-0.847 0.166,-0.275 0.337,-0.558 0.511,-0.847 0.169,-0.28 0.34,-0.563 0.511,-0.847 0.172,-0.284 0.344,-0.568 0.512,-0.846 0.175,-0.291 0.347,-0.575 0.511,-0.847 0.181,-0.299 0.353,-0.584 0.512,-0.848 0.191,-0.316 0.364,-0.603 0.511,-0.846 0.316,-0.523 0.512,-0.847 0.512,-0.847 0,0 0.086,-0.1 0.159,-0.304 0.032,-0.091 0.062,-0.202 0.081,-0.334 0.015,-0.103 0.023,-0.217 0.02,-0.344 -0.002,-0.106 -0.011,-0.22 -0.03,-0.343 -0.016,-0.106 -0.04,-0.218 -0.071,-0.337 -0.028,-0.105 -0.062,-0.214 -0.104,-0.329 -0.038,-0.103 -0.081,-0.209 -0.131,-0.32 -0.046,-0.1 -0.096,-0.203 -0.153,-0.31 -0.051,-0.097 -0.108,-0.197 -0.17,-0.3 -0.057,-0.095 -0.118,-0.192 -0.185,-0.292 -0.12,-0.18 -0.245,-0.369 -0.374,-0.565 -0.121,-0.184 -0.245,-0.373 -0.37,-0.566 -0.122,-0.187 -0.245,-0.376 -0.368,-0.567 -0.123,-0.189 -0.245,-0.379 -0.366,-0.568 -0.123,-0.192 -0.246,-0.383 -0.365,-0.57 -0.125,-0.195 -0.247,-0.386 -0.365,-0.571 -0.125,-0.198 -0.247,-0.389 -0.362,-0.571 -0.129,-0.203 -0.25,-0.395 -0.361,-0.571 -0.137,-0.216 -0.258,-0.409 -0.361,-0.572 -0.225,-0.358 -0.36,-0.574 -0.36,-0.574 0,0 -0.181,-0.236 -0.308,-0.842 -0.049,-0.239 -0.09,-0.534 -0.108,-0.894 -0.014,-0.265 -0.015,-0.564 0.002,-0.902 0.014,-0.274 0.039,-0.573 0.08,-0.898 0.034,-0.278 0.079,-0.574 0.137,-0.891 0.05,-0.279 0.11,-0.573 0.182,-0.883 0.063,-0.279 0.136,-0.57 0.218,-0.875 0.075,-0.278 0.157,-0.567 0.249,-0.868 0.084,-0.276 0.175,-0.562 0.274,-0.858 0.092,-0.275 0.191,-0.559 0.297,-0.852 0.079,-0.217 0.159,-0.433 0.242,-0.649 0.082,-0.215 0.167,-0.429 0.253,-0.642 0.087,-0.214 0.175,-0.426 0.266,-0.637 0.091,-0.213 0.184,-0.424 0.28,-0.634 0.095,-0.21 0.192,-0.419 0.292,-0.626 0.1,-0.208 0.202,-0.415 0.306,-0.62 0.104,-0.205 0.21,-0.41 0.319,-0.612 0.109,-0.204 0.221,-0.406 0.334,-0.606 0.114,-0.201 0.23,-0.4 0.348,-0.597 0.119,-0.198 0.24,-0.395 0.364,-0.589 0.124,-0.195 0.25,-0.387 0.378,-0.578 0.129,-0.192 0.261,-0.381 0.394,-0.568 0.135,-0.188 0.272,-0.374 0.411,-0.557 0.139,-0.183 0.282,-0.365 0.426,-0.543 0.146,-0.18 0.293,-0.357 0.444,-0.53 0.151,-0.175 0.305,-0.347 0.461,-0.516 0.157,-0.17 0.316,-0.336 0.478,-0.499 0.163,-0.164 0.328,-0.324 0.495,-0.481 0.169,-0.158 0.34,-0.312 0.514,-0.462 0.175,-0.151 0.352,-0.299 0.532,-0.442 0.181,-0.144 0.364,-0.284 0.55,-0.419 0.186,-0.136 0.376,-0.268 0.567,-0.396 0.192,-0.127 0.387,-0.251 0.585,-0.369 0.197,-0.119 0.398,-0.233 0.6,-0.342 0.203,-0.11 0.408,-0.214 0.616,-0.313 0.208,-0.099 0.418,-0.194 0.631,-0.283 0.212,-0.088 0.427,-0.172 0.645,-0.251 0.216,-0.077 0.434,-0.15 0.655,-0.217 0.22,-0.067 0.442,-0.1282 0.666,-0.1841 0.223,-0.0555 0.448,-0.1056 0.676,-0.1501 0.222,-0.0435 0.447,-0.0827 0.673,-0.1176 0.224,-0.0345 0.45,-0.0649 0.677,-0.0913 0.225,-0.0261 0.452,-0.0482 0.68,-0.0665 0.225,-0.018 0.452,-0.0323 0.681,-0.0429 0.226,-0.0105 0.453,-0.0173 0.682,-0.0205 0.227,-0.0033 0.455,-0.003 0.683,7e-4 0.227,0.0038 0.454,0.0109 0.682,0.0213 0.227,0.0104 0.453,0.024 0.68,0.0409 0.227,0.0169 0.453,0.0369 0.68,0.06 0.226,0.0231 0.453,0.0494 0.679,0.0787 0.225,0.0292 0.45,0.0614 0.675,0.0966 0.225,0.0352 0.449,0.0733 0.673,0.1143 0.224,0.0411 0.447,0.0852 0.67,0.132 0.223,0.0475 0.446,0.0965 0.667,0.1495 0.222,0.053 0.443,0.108 0.662,0.167 0.221,0.058 0.44,0.119 0.657,0.183 0.219,0.065 0.437,0.132 0.652,0.202 0.218,0.07 0.434,0.143 0.648,0.219 0.215,0.077 0.429,0.156 0.64,0.237 0.214,0.083 0.425,0.168 0.633,0.256 0.211,0.089 0.419,0.18 0.625,0.274 0.208,0.096 0.414,0.194 0.616,0.295 0.206,0.102 0.407,0.207 0.605,0.315 0.203,0.11 0.401,0.222 0.595,0.337 0.198,0.117 0.392,0.238 0.58,0.36 0.194,0.126 0.382,0.254 0.565,0.385 0.188,0.134 0.369,0.271 0.545,0.41 0.181,0.144 0.355,0.29 0.522,0.438 0.173,0.154 0.339,0.31 0.496,0.469 0.163,0.164 0.318,0.331 0.463,0.501 0.154,0.179 0.304,0.357 0.451,0.534 0.15,0.181 0.298,0.361 0.441,0.54 0.148,0.184 0.292,0.366 0.433,0.548 0.144,0.186 0.284,0.372 0.421,0.557 0.14,0.189 0.276,0.377 0.408,0.565 0.135,0.193 0.267,0.385 0.394,0.577 0.13,0.195 0.256,0.39 0.378,0.586 0.124,0.199 0.244,0.398 0.36,0.598 0.118,0.202 0.231,0.405 0.341,0.608 0.11,0.206 0.217,0.413 0.319,0.621 0.103,0.21 0.202,0.42 0.297,0.633 0.094,0.212 0.185,0.426 0.272,0.642 0.087,0.216 0.169,0.433 0.248,0.653 0.078,0.218 0.153,0.438 0.223,0.66 0.07,0.221 0.136,0.444 0.199,0.67 0.062,0.222 0.12,0.447 0.175,0.675 0.054,0.224 0.104,0.451 0.152,0.681 0.046,0.226 0.089,0.454 0.129,0.686 0.04,0.226 0.076,0.455 0.11,0.688 0.032,0.227 0.062,0.458 0.09,0.692 0.029,0.249 0.051,0.518 0.065,0.805 0.012,0.255 0.018,0.525 0.017,0.807 0,0.259 -0.006,0.528 -0.017,0.807 -0.01,0.261 -0.025,0.53 -0.045,0.806 -0.019,0.263 -0.042,0.531 -0.07,0.806 -0.027,0.263 -0.057,0.531 -0.092,0.803 -0.033,0.263 -0.07,0.53 -0.111,0.8 -0.04,0.263 -0.083,0.528 -0.13,0.797 -0.046,0.263 -0.095,0.528 -0.148,0.795 -0.052,0.262 -0.107,0.526 -0.166,0.791 -0.058,0.261 -0.119,0.524 -0.183,0.788 -0.064,0.26 -0.131,0.521 -0.201,0.783 -0.07,0.259 -0.142,0.518 -0.218,0.777 -0.076,0.258 -0.154,0.515 -0.236,0.773 -0.082,0.256 -0.166,0.511 -0.254,0.766 -0.088,0.254 -0.179,0.508 -0.274,0.76 -0.094,0.252 -0.192,0.503 -0.293,0.752 -0.101,0.25 -0.205,0.498 -0.313,0.744 -0.109,0.247 -0.221,0.492 -0.336,0.735 -0.117,0.244 -0.237,0.486 -0.36,0.724 -0.124,0.24 -0.252,0.477 -0.384,0.71 -0.133,0.236 -0.27,0.468 -0.41,0.696 -0.143,0.231 -0.289,0.458 -0.439,0.679 -0.152,0.225 -0.309,0.444 -0.469,0.658 -0.163,0.218 -0.33,0.429 -0.501,0.635 -0.175,0.208 -0.353,0.411 -0.536,0.605 -0.186,0.198 -0.376,0.389 -0.571,0.571 -0.198,0.186 -0.401,0.363 -0.609,0.531 -0.211,0.171 -0.427,0.332 -0.647,0.483 -0.223,0.153 -0.452,0.296 -0.685,0.428 -0.211,0.119 -0.424,0.235 -0.64,0.347 -0.215,0.111 -0.432,0.219 -0.652,0.323 -0.219,0.104 -0.44,0.205 -0.663,0.302 -0.222,0.096 -0.447,0.19 -0.673,0.28 -0.225,0.089 -0.452,0.176 -0.681,0.259 -0.228,0.082 -0.458,0.162 -0.689,0.238 -0.23,0.076 -0.461,0.148 -0.694,0.218 -0.233,0.069 -0.466,0.135 -0.701,0.198 -0.235,0.062 -0.47,0.122 -0.707,0.178 -0.236,0.056 -0.473,0.109 -0.711,0.159 -0.238,0.05 -0.477,0.096 -0.715,0.139 -0.24,0.044 -0.48,0.083 -0.719,0.12 -0.241,0.037 -0.481,0.07 -0.722,0.1 -0.241,0.03 -0.483,0.057 -0.724,0.081 -0.242,0.023 -0.484,0.043 -0.725,0.06 -0.244,0.017 -0.486,0.03 -0.728,0.04 -0.244,0.01 -0.487,0.016 -0.728,0.019 -0.244,0.002 -0.487,10e-4 -0.728,-0.004 -0.245,-0.004 -0.488,-0.013 -0.728,-0.025 -0.245,-0.013 -0.487,-0.03 -0.727,-0.05 -0.244,-0.021 -0.485,-0.046 -0.724,-0.075 -0.243,-0.029 -0.484,-0.063 -0.722,-0.101 -0.242,-0.039 -0.481,-0.082 -0.717,-0.13 -0.241,-0.049 -0.477,-0.102 -0.71,-0.16 -0.238,-0.06 -0.472,-0.124 -0.701,-0.194 -0.237,-0.071 -0.468,-0.148 -0.693,-0.23 -0.231,-0.085 -0.456,-0.174 -0.675,-0.27 -0.227,-0.099 -0.446,-0.204 -0.658,-0.314 -0.219,-0.115 -0.43,-0.235 -0.632,-0.363 -0.209,-0.131 -0.408,-0.27 -0.598,-0.415 -0.214,-0.164 -0.428,-0.335 -0.643,-0.511 -0.208,-0.171 -0.417,-0.348 -0.625,-0.529 -0.204,-0.178 -0.408,-0.361 -0.611,-0.547 -0.2,-0.184 -0.399,-0.371 -0.598,-0.562 -0.196,-0.189 -0.391,-0.38 -0.584,-0.575 -0.192,-0.193 -0.383,-0.389 -0.573,-0.587 -0.188,-0.197 -0.375,-0.397 -0.56,-0.598 -0.186,-0.201 -0.369,-0.404 -0.551,-0.609 -0.182,-0.204 -0.362,-0.411 -0.539,-0.617 -0.179,-0.209 -0.355,-0.418 -0.529,-0.628 -0.175,-0.212 -0.348,-0.424 -0.518,-0.636 -0.172,-0.215 -0.341,-0.43 -0.507,-0.644 -0.169,-0.219 -0.334,-0.437 -0.495,-0.653 -0.166,-0.222 -0.327,-0.443 -0.484,-0.662 -0.162,-0.226 -0.32,-0.45 -0.472,-0.672 -0.158,-0.231 -0.311,-0.458 -0.458,-0.682 -0.154,-0.235 -0.301,-0.466 -0.441,-0.692 -0.149,-0.241 -0.29,-0.475 -0.422,-0.703 -0.143,-0.248 -0.276,-0.487 -0.396,-0.717 -0.136,-0.258 -0.258,-0.504 -0.363,-0.736 -0.066,-0.145 -0.131,-0.276 -0.196,-0.393 -0.079,-0.143 -0.158,-0.266 -0.235,-0.371 -0.102,-0.137 -0.201,-0.243 -0.298,-0.32 -0.137,-0.11 -0.27,-0.164 -0.396,-0.175 -0.147,-0.012 -0.285,0.033 -0.415,0.117 -0.114,0.074 -0.221,0.178 -0.32,0.3 -0.089,0.11 -0.172,0.233 -0.247,0.362 -0.075,0.128 -0.144,0.261 -0.204,0.39 -0.067,0.144 -0.125,0.284 -0.172,0.406 -0.094,0.242 -0.145,0.414 -0.145,0.414 0,0 -0.18,0.297 -0.502,0.803 -0.144,0.226 -0.316,0.493 -0.514,0.795 -0.158,0.242 -0.333,0.506 -0.522,0.787 -0.167,0.248 -0.345,0.51 -0.533,0.782 -0.172,0.25 -0.3531,0.51 -0.5416,0.776 -0.1772,0.251 -0.3612,0.508 -0.5512,0.769 -0.1818,0.25 -0.3692,0.505 -0.5614,0.762 -0.186,0.249 -0.3767,0.5 -0.5713,0.753 -0.1909,0.248 -0.3857,0.496 -0.5837,0.745 -0.1957,0.246 -0.3946,0.491 -0.5962,0.735 -0.2007,0.243 -0.4041,0.484 -0.6095,0.723 -0.2064,0.239 -0.4149,0.476 -0.625,0.709 -0.2127,0.236 -0.4271,0.467 -0.6425,0.693 -0.2202,0.231 -0.4415,0.456 -0.6633,0.674 -0.2288,0.225 -0.4581,0.442 -0.6874,0.65 -0.2389,0.217 -0.4777,0.424 -0.7158,0.619 -0.2513,0.206 -0.5016,0.399 -0.7502,0.577 -0.2665,0.191 -0.531,0.364 -0.7924,0.518 -0.2851,0.167 -0.5665,0.311 -0.8429,0.427 -0.3071,0.13 -0.608,0.226 -0.9008,0.285 -0.2204,0.044 -0.4528,0.086 -0.6959,0.125 -0.2244,0.037 -0.4579,0.071 -0.6996,0.103 -0.2271,0.029 -0.4614,0.057 -0.7021,0.082 -0.2291,0.024 -0.464,0.046 -0.704,0.066 -0.2308,0.019 -0.4664,0.035 -0.7061,0.049 -0.2317,0.014 -0.4673,0.026 -0.7062,0.035 -0.2323,0.009 -0.4677,0.015 -0.7058,0.02 -0.2334,0.004 -0.4693,0.005 -0.7073,0.005 -0.234,-0.001 -0.47,-0.004 -0.7075,-0.009 -0.2338,-0.006 -0.4691,-0.014 -0.7055,-0.024 -0.2343,-0.01 -0.4696,-0.023 -0.7056,-0.039 -0.2343,-0.015 -0.4693,-0.033 -0.7044,-0.054 -0.2344,-0.021 -0.469,-0.044 -0.7034,-0.07 -0.2341,-0.026 -0.468,-0.055 -0.7013,-0.087 -0.2341,-0.032 -0.4677,-0.067 -0.7001,-0.105 -0.2334,-0.038 -0.4657,-0.08 -0.6965,-0.124 -0.2327,-0.045 -0.4638,-0.093 -0.693,-0.145 -0.2311,-0.052 -0.4603,-0.108 -0.6871,-0.167 -0.2294,-0.059 -0.4563,-0.123 -0.6804,-0.19 -0.2276,-0.068 -0.4522,-0.141 -0.6734,-0.217 -0.2246,-0.077 -0.4457,-0.159 -0.6628,-0.245 -0.2212,-0.088 -0.4382,-0.18 -0.6506,-0.277 -0.2166,-0.099 -0.4283,-0.203 -0.6345,-0.311 -0.2109,-0.112 -0.416,-0.228 -0.6149,-0.35 -0.2033,-0.125 -0.4001,-0.255 -0.5896,-0.391 -0.1934,-0.139 -0.3793,-0.285 -0.5569,-0.436 -0.1808,-0.154 -0.3531,-0.315 -0.5161,-0.483 -0.165,-0.169 -0.3206,-0.346 -0.4659,-0.529 -0.1465,-0.185 -0.2826,-0.378 -0.4076,-0.577 -0.1245,-0.199 -0.238,-0.406 -0.3397,-0.62 -0.1189,-0.25 -0.2392,-0.517 -0.3602,-0.798 -0.1109,-0.258 -0.2224,-0.528 -0.3341,-0.809 -0.1044,-0.263 -0.209,-0.535 -0.3134,-0.817 -0.0989,-0.267 -0.1975,-0.541 -0.2957,-0.823 -0.094,-0.27 -0.1875,-0.547 -0.2803,-0.829 -0.0895,-0.273 -0.1783,-0.551 -0.2661,-0.834 -0.0852,-0.275 -0.1695,-0.554 -0.2526,-0.837 -0.0812,-0.277 -0.1614,-0.557 -0.2402,-0.841 -0.0773,-0.278 -0.1534,-0.56 -0.228,-0.845 -0.0735,-0.28 -0.1456,-0.562 -0.216,-0.847 -0.0696,-0.282 -0.1377,-0.565 -0.204,-0.851 -0.0658,-0.283 -0.1299,-0.568 -0.192,-0.853 -0.0618,-0.285 -0.1217,-0.57 -0.1795,-0.856 -0.0577,-0.286 -0.1133,-0.572 -0.1667,-0.859 -0.0535,-0.287 -0.1048,-0.575 -0.1536,-0.862 -0.049,-0.288 -0.0955,-0.577 -0.1395,-0.864 -0.0441,-0.29 -0.0857,-0.579 -0.1243,-0.866 -0.0391,-0.291 -0.0752,-0.58 -0.1083,-0.868 -0.0335,-0.292 -0.0638,-0.582 -0.0908,-0.87 -0.0274,-0.293 -0.0514,-0.584 -0.0716,-0.872 -0.0207,-0.294 -0.0375,-0.586 -0.0503,-0.874 -0.0131,-0.295 -0.022,-0.587 -0.0263,-0.875 -0.0045,-0.296 -0.0042,-0.588 10e-4,-0.875 0.0055,-0.296 0.0163,-0.588 0.0327,-0.874 0.0171,-0.297 0.0402,-0.587 0.0698,-0.871 0.031,-0.297 0.069,-0.587 0.1144,-0.867 0.0478,-0.296 0.1039,-0.583 0.1686,-0.859 0.0688,-0.293 0.1474,-0.574 0.2363,-0.842 0.0952,-0.287 0.2022,-0.558 0.3216,-0.813 0.1282,-0.274 0.2706,-0.528 0.4282,-0.761 0.1738,-0.257 0.3503,-0.513 0.53,-0.768 0.179,-0.255 0.3611,-0.508 0.5465,-0.758 0.185,-0.25 0.3735,-0.498 0.5655,-0.742 0.1927,-0.245 0.3891,-0.487 0.5895,-0.724 0.2012,-0.238 0.4064,-0.472 0.6159,-0.7 0.2114,-0.23 0.4272,-0.455 0.6478,-0.673 0.2223,-0.22 0.4493,-0.433 0.6816,-0.638 0.2341,-0.207 0.4734,-0.406 0.7184,-0.596 0.2464,-0.191 0.4986,-0.373 0.7568,-0.545 0.2592,-0.172 0.5245,-0.334 0.7962,-0.485 0.272,-0.151 0.5504,-0.29 0.8356,-0.417 0.2828,-0.126 0.5723,-0.24 0.8688,-0.34 0.292,-0.098 0.5908,-0.184 0.8968,-0.255 0.2989,-0.07 0.6047,-0.127 0.9176,-0.168 0.3031,-0.041 0.6128,-0.068 0.9296,-0.081 0.3046,-0.012 0.6156,-0.011 0.9333,0.004 0.3036,0.014 0.6133,0.042 0.9294,0.083 0.301,0.039 0.6078,0.09 0.9206,0.154 0.2971,0.061 0.5995,0.134 0.9074,0.218 0.2927,0.081 0.5904,0.172 0.8933,0.275 0.23,0.078 0.4599,0.16 0.6895,0.244 0.2285,0.084 0.4567,0.172 0.6846,0.262 0.2262,0.09 0.452,0.182 0.6773,0.278 0.224,0.094 0.4474,0.192 0.6702,0.292 0.222,0.1 0.4433,0.202 0.6639,0.306 0.2204,0.105 0.4399,0.211 0.6587,0.32 0.2184,0.109 0.436,0.22 0.6526,0.333 0.2164,0.113 0.4319,0.228 0.6462,0.345 0.2146,0.117 0.4282,0.235 0.6405,0.356 0.2123,0.12 0.4234,0.242 0.6332,0.366 0.2105,0.124 0.4196,0.249 0.6273,0.376 0.2087,0.128 0.416,0.257 0.6216,0.387 0.2068,0.131 0.412,0.263 0.6155,0.396 0.2052,0.134 0.4086,0.269 0.6101,0.405 0.2033,0.137 0.4046,0.276 0.6039,0.415 0.2016,0.14 0.4011,0.282 0.5983,0.423 0.1996,0.144 0.3968,0.288 0.5916,0.432 0.1973,0.147 0.3921,0.293 0.5841,0.44 0.1956,0.15 0.3884,0.299 0.5783,0.449 0.1936,0.152 0.3841,0.305 0.5714,0.457 0.1917,0.156 0.38,0.311 0.5648,0.466 0.1895,0.159 0.3753,0.317 0.5571,0.475 0.1874,0.162 0.3707,0.323 0.5495,0.483 0.185,0.166 0.3654,0.33 0.5407,0.493 0.183,0.17 0.3606,0.338 0.5326,0.504 0.1799,0.173 0.3537,0.344 0.5209,0.513 0.1771,0.178 0.3469,0.354 0.5091,0.525 0.1738,0.184 0.3389,0.364 0.4948,0.54 0.1701,0.191 0.329,0.377 0.477,0.556 0.165,0.201 0.316,0.393 0.452,0.577 0.081,0.109 0.158,0.215 0.232,0.317 0.08,0.11 0.156,0.217 0.229,0.32 0.08,0.112 0.155,0.22 0.226,0.323 0.078,0.114 0.152,0.223 0.22,0.327 0.078,0.116 0.149,0.226 0.214,0.329 0.076,0.12 0.145,0.232 0.207,0.336 0.074,0.125 0.138,0.239 0.194,0.343 0.071,0.133 0.128,0.249 0.173,0.351 0.069,0.154 0.11,0.275 0.134,0.369 0.084,0.344 -0.076,0.344 -0.076,0.344 0,0 0.201,0.28 0.564,0.554 0.189,0.143 0.421,0.285 0.691,0.385 0.233,0.085 0.493,0.14 0.778,0.139 0.242,-0.001 0.502,-0.042 0.778,-0.141 0.225,-0.08 0.46,-0.197 0.704,-0.361 0.199,-0.134 0.405,-0.298 0.616,-0.498 0.177,-0.168 0.357,-0.36 0.541,-0.58 0.159,-0.189 0.319,-0.399 0.482,-0.63 0.144,-0.204 0.289,-0.425 0.435,-0.664 0.131,-0.214 0.264,-0.443 0.398,-0.687 0.119,-0.216 0.241,-0.434 0.367,-0.654 0.124,-0.214 0.251,-0.429 0.382,-0.645 0.128,-0.211 0.259,-0.424 0.394,-0.637 0.133,-0.209 0.269,-0.418 0.408,-0.627 0.137,-0.207 0.277,-0.413 0.42,-0.62 0.141,-0.204 0.286,-0.407 0.433,-0.61 0.146,-0.202 0.295,-0.402 0.446,-0.602 0.151,-0.199 0.304,-0.396 0.46,-0.593 0.155,-0.195 0.313,-0.389 0.473,-0.582 0.159,-0.191 0.321,-0.382 0.485,-0.57 0.164,-0.188 0.331,-0.375 0.5,-0.559 0.168,-0.185 0.34,-0.367 0.513,-0.547 0.174,-0.18 0.349,-0.358 0.527,-0.533 0.179,-0.175 0.359,-0.348 0.542,-0.517 0.184,-0.171 0.369,-0.338 0.557,-0.502 0.189,-0.165 0.38,-0.326 0.573,-0.484 0.194,-0.158 0.39,-0.313 0.588,-0.463 0.199,-0.152 0.401,-0.3 0.604,-0.442 0.206,-0.145 0.413,-0.284 0.622,-0.419 0.211,-0.136 0.423,-0.266 0.637,-0.391 0.217,-0.127 0.435,-0.247 0.655,-0.362 0.222,-0.117 0.447,-0.227 0.673,-0.331 0.228,-0.104 0.458,-0.202 0.689,-0.293 0.233,-0.092 0.468,-0.177 0.705,-0.254 0.238,-0.077 0.478,-0.147 0.719,-0.209 0.242,-0.062 0.486,-0.116 0.731,-0.161 0.246,-0.045 0.493,-0.082 0.741,-0.109 0.248,-0.028 0.498,-0.046 0.748,-0.055 0.249,-0.008 0.498,-0.007 0.748,0.003 0.248,0.011 0.497,0.031 0.747,0.062 0.224,0.027 0.448,0.057 0.671,0.089 0.224,0.032 0.447,0.066 0.67,0.102 0.223,0.036 0.445,0.075 0.666,0.116 0.222,0.041 0.443,0.084 0.663,0.13 0.222,0.046 0.442,0.094 0.661,0.145 0.221,0.051 0.44,0.104 0.657,0.16 0.22,0.056 0.438,0.115 0.654,0.176 0.218,0.061 0.434,0.125 0.648,0.192 0.216,0.067 0.43,0.137 0.643,0.209 0.214,0.073 0.426,0.149 0.637,0.227 0.212,0.079 0.422,0.161 0.63,0.245 0.21,0.085 0.417,0.173 0.622,0.264 0.207,0.092 0.412,0.186 0.614,0.284 0.204,0.098 0.406,0.2 0.605,0.305 0.2,0.105 0.398,0.214 0.593,0.325 0.196,0.113 0.39,0.229 0.58,0.348 0.192,0.12 0.381,0.243 0.567,0.37 0.186,0.128 0.37,0.259 0.55,0.394 0.181,0.135 0.359,0.273 0.533,0.416 0.175,0.142 0.346,0.289 0.513,0.439 0.168,0.151 0.332,0.305 0.492,0.463 0.16,0.158 0.317,0.321 0.469,0.487 0.152,0.166 0.301,0.336 0.445,0.51 0.143,0.174 0.283,0.351 0.418,0.533 0.134,0.181 0.264,0.365 0.389,0.554 0.124,0.187 0.244,0.378 0.359,0.574 0.114,0.193 0.223,0.39 0.328,0.591 0.103,0.199 0.201,0.402 0.295,0.608 0.092,0.204 0.18,0.412 0.263,0.623 0.081,0.208 0.158,0.42 0.23,0.636 0.101,0.304 0.201,0.609 0.3,0.917 0.099,0.305 0.196,0.612 0.291,0.921 0.095,0.306 0.188,0.614 0.28,0.924 0.091,0.308 0.18,0.617 0.268,0.927 0.087,0.309 0.172,0.619 0.254,0.929 0.083,0.311 0.163,0.623 0.24,0.934 0.078,0.313 0.153,0.626 0.225,0.939 0.072,0.314 0.141,0.628 0.206,0.941 0.067,0.317 0.129,0.633 0.188,0.947 0.059,0.318 0.114,0.635 0.165,0.95 0.052,0.32 0.099,0.638 0.141,0.954 0.043,0.321 0.081,0.641 0.113,0.958 0.033,0.323 0.061,0.643 0.082,0.96 0.022,0.326 0.037,0.648 0.045,0.965 0.009,0.327 0.01,0.649 0.003,0.966 -0.006,0.326 -0.021,0.648 -0.045,0.963 -0.025,0.326 -0.059,0.646 -0.102,0.959 -0.046,0.324 -0.102,0.641 -0.17,0.95 -0.07,0.32 -0.152,0.631 -0.247,0.932 -0.099,0.312 -0.211,0.614 -0.338,0.904 -0.12,0.275 -0.261,0.557 -0.42,0.847 -0.146,0.266 -0.307,0.537 -0.482,0.813 -0.163,0.259 -0.338,0.521 -0.523,0.787 -0.175,0.253 -0.36,0.509 -0.553,0.768 -0.185,0.248 -0.377,0.498 -0.574,0.75 -0.192,0.245 -0.39,0.49 -0.591,0.737 -0.198,0.242 -0.399,0.484 -0.604,0.727 -0.201,0.239 -0.406,0.478 -0.612,0.718 -0.205,0.237 -0.413,0.475 -0.621,0.711 -0.208,0.237 -0.417,0.474 -0.626,0.709 -0.21,0.236 -0.42,0.472 -0.63,0.706 -0.211,0.236 -0.422,0.471 -0.631,0.704 -0.213,0.237 -0.423,0.472 -0.63,0.704 -0.213,0.239 -0.423,0.475 -0.628,0.707 -0.213,0.241 -0.421,0.478 -0.623,0.711 -0.211,0.244 -0.416,0.484 -0.613,0.718 -0.21,0.25 -0.411,0.493 -0.6,0.73 -0.207,0.258 -0.401,0.508 -0.578,0.749 -0.201,0.271 -0.382,0.531 -0.539,0.776 -0.19,0.296 -0.345,0.572 -0.46,0.824 -0.095,0.209 -0.207,0.438 -0.334,0.687 -0.108,0.212 -0.226,0.438 -0.353,0.678 -0.114,0.214 -0.234,0.439 -0.36,0.674 -0.116,0.216 -0.237,0.441 -0.361,0.675 -0.117,0.217 -0.236,0.443 -0.359,0.675 -0.115,0.22 -0.233,0.446 -0.353,0.679 -0.114,0.221 -0.229,0.448 -0.346,0.681 -0.111,0.223 -0.224,0.451 -0.337,0.684 -0.109,0.225 -0.219,0.455 -0.329,0.69 -0.106,0.227 -0.213,0.459 -0.319,0.695 -0.103,0.229 -0.206,0.462 -0.308,0.7 -0.1,0.231 -0.199,0.465 -0.297,0.704 -0.096,0.233 -0.191,0.469 -0.284,0.709 -0.092,0.235 -0.183,0.473 -0.272,0.715 -0.087,0.236 -0.173,0.476 -0.257,0.718 -0.083,0.239 -0.164,0.48 -0.244,0.724 -0.078,0.241 -0.154,0.484 -0.229,0.73 -0.073,0.242 -0.144,0.487 -0.213,0.734 -0.068,0.244 -0.134,0.49 -0.197,0.739 -0.063,0.245 -0.123,0.492 -0.181,0.742 -0.057,0.247 -0.112,0.496 -0.164,0.747 -0.051,0.248 -0.1,0.499 -0.145,0.751 -0.046,0.249 -0.088,0.5 -0.128,0.754 -0.039,0.25 -0.076,0.502 -0.109,0.757 -0.033,0.251 -0.063,0.503 -0.09,0.758 -0.026,0.252 -0.05,0.505 -0.07,0.761 -0.02,0.252 -0.037,0.507 -0.05,0.763 -0.014,0.252 -0.024,0.507 -0.03,0.762 -0.007,0.254 -0.01,0.508 -0.01,0.765 0,0.253 0.004,0.508 0.011,0.764 0.009,0.335 0.023,0.664 0.04,0.988 0.017,0.335 0.038,0.664 0.062,0.988 0.025,0.335 0.054,0.663 0.085,0.986 0.032,0.334 0.067,0.663 0.104,0.985 0.039,0.334 0.08,0.661 0.122,0.982 0.045,0.333 0.091,0.66 0.137,0.979 0.049,0.334 0.099,0.66 0.149,0.978 0.052,0.334 0.104,0.659 0.155,0.976 0.054,0.335 0.106,0.661 0.155,0.977 0.053,0.337 0.102,0.663 0.147,0.979 0.048,0.339 0.09,0.666 0.125,0.981 0.037,0.343 0.066,0.671 0.083,0.987 0.019,0.346 0.023,0.675 0.011,0.989 -0.014,0.347 -0.049,0.674 -0.111,0.983 -0.066,0.336 -0.164,0.649 -0.298,0.94 -0.138,0.299 -0.314,0.574 -0.536,0.827 -0.206,0.236 -0.452,0.452 -0.743,0.649 -0.253,0.172 -0.541,0.33 -0.867,0.474 -0.281,0.123 -0.59,0.237 -0.929,0.34 -0.296,0.089 -0.615,0.171 -0.958,0.245 -0.219,0.047 -0.435,0.093 -0.646,0.136 -0.22,0.046 -0.436,0.089 -0.647,0.131 -0.221,0.044 -0.438,0.086 -0.65,0.126 -0.221,0.041 -0.437,0.081 -0.649,0.12 -0.222,0.04 -0.438,0.078 -0.65,0.115 -0.223,0.039 -0.44,0.076 -0.653,0.111 -0.222,0.037 -0.439,0.073 -0.651,0.108 -0.224,0.036 -0.441,0.071 -0.652,0.105 -0.225,0.036 -0.442,0.071 -0.653,0.105 -0.225,0.037 -0.442,0.073 -0.653,0.108 -0.224,0.038 -0.441,0.075 -0.65,0.113 -0.225,0.041 -0.441,0.082 -0.65,0.125 -0.224,0.046 -0.439,0.093 -0.646,0.143 -0.222,0.054 -0.434,0.111 -0.637,0.172 -0.218,0.066 -0.426,0.136 -0.625,0.214 -0.21,0.081 -0.411,0.17 -0.602,0.269 -0.199,0.102 -0.387,0.214 -0.568,0.338 -0.18,0.123 -0.352,0.259 -0.518,0.408 -0.16,0.145 -0.313,0.302 -0.462,0.474 -0.139,0.16 -0.273,0.334 -0.405,0.522 -0.165,0.236 -0.33,0.48 -0.494,0.73 -0.159,0.243 -0.316,0.492 -0.472,0.744 -0.153,0.249 -0.305,0.502 -0.453,0.756 -0.148,0.256 -0.294,0.513 -0.434,0.768 -0.144,0.262 -0.283,0.522 -0.415,0.779 -0.139,0.267 -0.27,0.531 -0.394,0.788 -0.132,0.276 -0.255,0.544 -0.367,0.8 -0.125,0.289 -0.236,0.563 -0.33,0.817 -0.116,0.313 -0.206,0.596 -0.266,0.841 -0.101,0.41 -0.117,0.712 -0.026,0.864 0.072,0.12 0.148,0.271 0.237,0.43 0.077,0.136 0.164,0.279 0.267,0.411 0.1,0.129 0.215,0.248 0.351,0.344 0.127,0.091 0.274,0.162 0.443,0.202 0.145,0.033 0.307,0.044 0.488,0.024 0.146,-0.016 0.305,-0.052 0.478,-0.111 0.141,-0.048 0.291,-0.111 0.452,-0.192 0.136,-0.068 0.278,-0.149 0.429,-0.243 0.13,-0.082 0.266,-0.173 0.408,-0.276 0.125,-0.09 0.255,-0.189 0.39,-0.297 0.117,-0.094 0.227,-0.182 0.33,-0.265 0.117,-0.096 0.226,-0.184 0.326,-0.267 0.12,-0.098 0.228,-0.188 0.326,-0.269 0.125,-0.103 0.233,-0.192 0.326,-0.268 0.144,-0.118 0.252,-0.203 0.333,-0.258 0.21,-0.144 0.238,-0.087 0.241,0.12 0.002,0.105 -0.003,0.248 0.006,0.423 0.007,0.125 0.02,0.265 0.048,0.42 0.023,0.127 0.055,0.264 0.102,0.409 0.04,0.125 0.09,0.257 0.153,0.393 0.073,0.158 0.144,0.318 0.213,0.477 0.071,0.162 0.141,0.323 0.209,0.478 0.073,0.166 0.145,0.326 0.217,0.477 0.081,0.169 0.162,0.325 0.243,0.463 0.103,0.172 0.206,0.315 0.313,0.416 0.149,0.141 0.305,0.2 0.473,0.144 0.125,-0.042 0.256,-0.147 0.397,-0.329 0.089,-0.115 0.182,-0.261 0.28,-0.442 0.073,-0.137 0.15,-0.293 0.229,-0.471 0.064,-0.147 0.131,-0.307 0.2,-0.483 0.063,-0.162 0.12,-0.315 0.171,-0.461 0.058,-0.165 0.109,-0.32 0.154,-0.465 0.052,-0.171 0.096,-0.328 0.133,-0.472 0.047,-0.179 0.083,-0.339 0.112,-0.478 0.041,-0.2 0.069,-0.359 0.092,-0.482 0.058,-0.301 0.092,-0.38 0.254,-0.28 0.085,0.052 0.207,0.155 0.385,0.301 0.106,0.087 0.233,0.19 0.384,0.306 0.116,0.09 0.247,0.187 0.395,0.293 0.122,0.087 0.256,0.18 0.403,0.278 0.203,0.135 0.407,0.269 0.612,0.398 0.208,0.132 0.416,0.259 0.622,0.38 0.214,0.126 0.427,0.246 0.635,0.355 0.225,0.118 0.445,0.225 0.657,0.318 0.238,0.104 0.467,0.189 0.684,0.252 0.259,0.076 0.5,0.119 0.717,0.122 0.272,0.003 0.505,-0.058 0.686,-0.199 0.169,-0.131 0.294,-0.332 0.364,-0.615 0.049,-0.2 0.071,-0.44 0.062,-0.725 -0.006,-0.216 -0.03,-0.456 -0.073,-0.725 -0.045,-0.282 -0.094,-0.559 -0.146,-0.831 -0.053,-0.281 -0.11,-0.557 -0.17,-0.827 -0.063,-0.281 -0.129,-0.555 -0.198,-0.823 -0.072,-0.279 -0.148,-0.55 -0.227,-0.814 -0.083,-0.277 -0.169,-0.545 -0.259,-0.804 -0.095,-0.275 -0.194,-0.54 -0.296,-0.792 -0.11,-0.272 -0.224,-0.531 -0.341,-0.775 -0.128,-0.266 -0.26,-0.515 -0.396,-0.746 -0.151,-0.259 -0.307,-0.494 -0.467,-0.704 -0.185,-0.244 -0.374,-0.453 -0.567,-0.624 -0.146,-0.13 -0.302,-0.268 -0.477,-0.412 -0.152,-0.124 -0.317,-0.252 -0.501,-0.381 -0.162,-0.113 -0.337,-0.227 -0.53,-0.34 -0.171,-0.099 -0.355,-0.198 -0.556,-0.294 -0.179,-0.087 -0.371,-0.171 -0.577,-0.253 -0.186,-0.074 -0.383,-0.145 -0.592,-0.214 -0.19,-0.062 -0.391,-0.122 -0.603,-0.179 -0.195,-0.052 -0.398,-0.102 -0.613,-0.149 -0.197,-0.043 -0.403,-0.085 -0.618,-0.123 -0.2,-0.036 -0.407,-0.069 -0.622,-0.1 -0.201,-0.029 -0.409,-0.056 -0.625,-0.08 -0.202,-0.023 -0.411,-0.043 -0.627,-0.062 -0.203,-0.017 -0.412,-0.033 -0.628,-0.046 -0.204,-0.013 -0.413,-0.024 -0.629,-0.032 -0.205,-0.009 -0.415,-0.015 -0.63,-0.02 -0.205,-0.004 -0.415,-0.007 -0.629,-0.008 -0.206,0 -0.416,0 -0.63,0.003 -0.206,0.002 -0.415,0.006 -0.63,0.012 -0.205,0.005 -0.415,0.012 -0.629,0.02 -0.206,0.008 -0.416,0.018 -0.63,0.029 -0.287,0.015 -0.57,0.027 -0.849,0.038 -0.287,0.011 -0.57,0.019 -0.849,0.026 -0.287,0.007 -0.57,0.012 -0.849,0.015 -0.288,0.003 -0.571,0.005 -0.849,0.005 -0.289,0 -0.572,-0.002 -0.85,-0.004 -0.288,-0.003 -0.571,-0.007 -0.849,-0.011 -0.289,-0.005 -0.572,-0.011 -0.849,-0.017 -0.29,-0.006 -0.574,-0.012 -0.851,-0.019 -0.29,-0.006 -0.573,-0.012 -0.8495,-0.018 -0.2902,-0.005 -0.5737,-0.009 -0.8508,-0.012 -0.2902,-0.003 -0.5733,-0.004 -0.8496,-0.002 -0.2908,0.002 -0.5741,0.008 -0.85,0.017 -0.2907,0.01 -0.5733,0.025 -0.848,0.045 -0.2904,0.021 -0.5721,0.049 -0.8453,0.085 -0.2881,0.038 -0.567,0.084 -0.8369,0.141 -0.2837,0.06 -0.5575,0.131 -0.8221,0.215 -0.2737,0.088 -0.5374,0.19 -0.7918,0.308 -0.2568,0.119 -0.5041,0.255 -0.7424,0.41 -0.2338,0.152 -0.4589,0.322 -0.6759,0.513 -0.2071,0.182 -0.4068,0.382 -0.5995,0.602 -0.1636,0.187 -0.3185,0.372 -0.4651,0.556 -0.1556,0.194 -0.3019,0.386 -0.4395,0.576 -0.1465,0.202 -0.2831,0.401 -0.4104,0.596 -0.1368,0.21 -0.263,0.416 -0.3793,0.617 -0.126,0.218 -0.2405,0.43 -0.3444,0.635 -0.1145,0.227 -0.2162,0.446 -0.3066,0.656 -0.1018,0.237 -0.1893,0.462 -0.2644,0.675 -0.0877,0.248 -0.1586,0.479 -0.2159,0.69 -0.0731,0.269 -0.124,0.506 -0.1595,0.705 -0.0818,0.459 -0.0818,0.72 -0.0818,0.72 0,0 0.0263,0.202 0.1134,0.476 0.044,0.139 0.1035,0.296 0.1829,0.456 0.0702,0.14 0.1559,0.282 0.2602,0.415 0.0991,0.125 0.2151,0.242 0.3504,0.34 0.1275,0.092 0.2723,0.167 0.4365,0.218 0.1456,0.044 0.3065,0.069 0.4842,0.069 0.15,0 0.3119,-0.018 0.4867,-0.058 0.1467,-0.033 0.3024,-0.082 0.4677,-0.147 0.1415,-0.056 0.29,-0.125 0.4459,-0.208 0.1354,-0.071 0.2764,-0.154 0.4232,-0.247 0.1282,-0.082 0.2477,-0.158 0.3588,-0.23 0.1305,-0.084 0.2496,-0.161 0.3583,-0.231 0.1344,-0.088 0.2527,-0.165 0.3568,-0.232 0.1462,-0.095 0.2644,-0.171 0.3593,-0.23 0.2678,-0.165 0.3507,-0.19 0.3587,-0.105 0.0066,0.07 -0.0382,0.216 -0.0722,0.42 -0.0202,0.121 -0.0366,0.264 -0.0358,0.424 6e-4,0.13 0.0127,0.271 0.0434,0.422 0.0262,0.129 0.0661,0.265 0.1241,0.407 0.05,0.122 0.1134,0.248 0.1932,0.378 0.1118,0.182 0.2316,0.366 0.3581,0.548 0.1243,0.178 0.2549,0.355 0.3907,0.523 0.1393,0.173 0.2839,0.339 0.4324,0.491 0.1587,0.162 0.3218,0.309 0.4876,0.435 0.185,0.14 0.3732,0.253 0.5624,0.33 0.2131,0.087 0.4274,0.128 0.6392,0.11 0.2048,-0.017 0.4074,-0.09 0.6046,-0.229 0.1562,-0.111 0.309,-0.263 0.4568,-0.464 0.1155,-0.156 0.2279,-0.342 0.3366,-0.559 0.089,-0.179 0.1754,-0.378 0.2589,-0.601 0.0594,-0.158 0.1149,-0.309 0.1669,-0.451 0.0588,-0.161 0.1132,-0.312 0.1637,-0.454 0.0585,-0.164 0.1119,-0.315 0.161,-0.454 0.0595,-0.169 0.1128,-0.319 0.1615,-0.453 0.065,-0.179 0.1217,-0.328 0.1739,-0.449 0.093,-0.215 0.1719,-0.343 0.2585,-0.398 0.1142,-0.073 0.2418,-0.02 0.4326,0.127 0.1021,0.079 0.2226,0.184 0.3686,0.311 0.107,0.094 0.228,0.199 0.366,0.313 0.113,0.094 0.238,0.195 0.376,0.301 0.158,0.122 0.319,0.246 0.481,0.371 0.162,0.123 0.324,0.246 0.486,0.366 0.166,0.123 0.332,0.241 0.495,0.353 0.175,0.119 0.346,0.23 0.512,0.326 0.189,0.112 0.371,0.205 0.541,0.273 0.219,0.088 0.418,0.135 0.589,0.126 0.209,-0.012 0.376,-0.106 0.487,-0.311 0.076,-0.14 0.126,-0.333 0.144,-0.586 0.012,-0.173 0.009,-0.375 -0.009,-0.607 -0.015,-0.182 -0.04,-0.382 -0.075,-0.603 -0.043,-0.268 -0.085,-0.537 -0.13,-0.807 -0.045,-0.267 -0.092,-0.535 -0.147,-0.803 -0.053,-0.266 -0.114,-0.532 -0.184,-0.797 -0.069,-0.261 -0.149,-0.522 -0.241,-0.782 -0.09,-0.253 -0.193,-0.505 -0.311,-0.756 -0.114,-0.242 -0.243,-0.482 -0.388,-0.72 -0.139,-0.226 -0.292,-0.45 -0.464,-0.673 -0.161,-0.208 -0.338,-0.414 -0.532,-0.619 -0.181,-0.19 -0.377,-0.379 -0.59,-0.566 -0.197,-0.172 -0.409,-0.343 -0.636,-0.512 -0.211,-0.156 -0.435,-0.311 -0.673,-0.464 -0.221,-0.142 -0.4544,-0.282 -0.701,-0.421 -0.2295,-0.129 -0.4704,-0.256 -0.7233,-0.382 -0.2359,-0.118 -0.4822,-0.234 -0.7395,-0.348 -0.2409,-0.108 -0.4914,-0.214 -0.7519,-0.318 -0.2453,-0.099 -0.4996,-0.196 -0.7631,-0.292 -0.2487,-0.091 -0.5056,-0.181 -0.7711,-0.269 -0.2519,-0.084 -0.5116,-0.167 -0.7791,-0.249 -0.2542,-0.078 -0.5156,-0.155 -0.7843,-0.231 -0.2565,-0.072 -0.5197,-0.143 -0.7898,-0.214 -0.2835,-0.074 -0.5612,-0.147 -0.8332,-0.218 -0.2838,-0.075 -0.5614,-0.148 -0.833,-0.22 -0.2839,-0.076 -0.5611,-0.151 -0.8318,-0.224 -0.2838,-0.077 -0.5604,-0.153 -0.8299,-0.228 -0.2839,-0.079 -0.5599,-0.157 -0.8282,-0.235 -0.2835,-0.082 -0.5584,-0.163 -0.8248,-0.243 -0.2834,-0.086 -0.5572,-0.171 -0.8215,-0.256 -0.283,-0.091 -0.5552,-0.181 -0.8168,-0.272 -0.2823,-0.098 -0.5522,-0.196 -0.8101,-0.294 -0.2799,-0.108 -0.5456,-0.215 -0.7974,-0.325 -0.276,-0.12 -0.5354,-0.242 -0.7786,-0.367 -0.2687,-0.137 -0.5178,-0.278 -0.7479,-0.424 -0.2559,-0.162 -0.4883,-0.329 -0.6982,-0.504 -0.2307,-0.193 -0.4342,-0.394 -0.6116,-0.606 -0.1878,-0.224 -0.3465,-0.461 -0.4775,-0.713 -0.1307,-0.252 -0.2339,-0.518 -0.311,-0.802 -0.0722,-0.266 -0.1216,-0.547 -0.1494,-0.846 -0.0253,-0.272 -0.0328,-0.558 -0.0232,-0.861 0.0086,-0.272 0.031,-0.557 0.0664,-0.857 0.0321,-0.272 0.075,-0.556 0.1282,-0.852 0.0501,-0.279 0.1104,-0.584 0.1804,-0.911 0.0611,-0.285 0.1295,-0.587 0.2049,-0.905 0.0685,-0.288 0.1427,-0.589 0.2225,-0.9 0.0741,-0.29 0.153,-0.589 0.2365,-0.897 0.0789,-0.291 0.1619,-0.589 0.2488,-0.894 0.083,-0.292 0.1696,-0.589 0.2596,-0.892 0.0867,-0.291 0.1766,-0.588 0.2696,-0.888 0.09,-0.291 0.183,-0.586 0.2787,-0.885 0.0934,-0.291 0.1895,-0.585 0.288,-0.882 0.0967,-0.291 0.1958,-0.585 0.2972,-0.88 0.0997,-0.29 0.2016,-0.582 0.3057,-0.875 0.1031,-0.291 0.2082,-0.582 0.3153,-0.874 0.1063,-0.29 0.2146,-0.58 0.3247,-0.87 0.1095,-0.289 0.2209,-0.578 0.334,-0.866 0.1129,-0.288 0.2277,-0.575 0.344,-0.862 0.1167,-0.287 0.2351,-0.573 0.355,-0.858 0.1205,-0.286 0.2426,-0.57 0.3662,-0.853 0.1246,-0.285 0.2507,-0.567 0.3782,-0.847 0.129,-0.284 0.2595,-0.564 0.3913,-0.841 0.1339,-0.282 0.2692,-0.561 0.4058,-0.835 0.1393,-0.28 0.2799,-0.555 0.4218,-0.826 0.1453,-0.278 0.2919,-0.551 0.4397,-0.818 0.1522,-0.275 0.3057,-0.544 0.4603,-0.807 0.1601,-0.271 0.3213,-0.536 0.4836,-0.793 0.1692,-0.267 0.3395,-0.526 0.5108,-0.775 0.1799,-0.262 0.3609,-0.513 0.5429,-0.753 0.193,-0.254 0.3871,-0.496 0.5819,-0.723 0.2093,-0.243 0.4194,-0.471 0.6302,-0.68 0.2299,-0.228 0.4605,-0.435 0.6915,-0.618 0.2558,-0.203 0.5121,-0.377 0.7683,-0.519 0.2731,-0.152 0.5494,-0.301 0.8286,-0.447 0.2771,-0.145 0.557,-0.287 0.8396,-0.425 0.2817,-0.137 0.566,-0.271 0.8526,-0.399 0.2866,-0.129 0.5755,-0.252 0.8665,-0.371 0.2911,-0.118 0.5842,-0.23 0.8793,-0.336 0.2961,-0.106 0.5942,-0.206 0.8939,-0.298 0.3003,-0.093 0.6023,-0.178 0.9057,-0.255 0.3046,-0.078 0.6107,-0.147 0.918,-0.206 0.308,-0.06 0.618,-0.111 0.929,-0.152 0.312,-0.041 0.624,-0.071 0.938,-0.091 0.313,-0.02 0.627,-0.028 0.942,-0.025 0.312,0.004 0.625,0.019 0.939,0.047 0.311,0.027 0.622,0.067 0.934,0.121 0.306,0.052 0.613,0.118 0.919,0.197 0.301,0.078 0.601,0.168 0.9,0.273 0.292,0.102 0.584,0.218 0.875,0.347 0.282,0.126 0.564,0.264 0.845,0.417 0.271,0.147 0.541,0.306 0.81,0.479 0.259,0.167 0.517,0.345 0.774,0.537 0.246,0.184 0.492,0.379 0.736,0.587 0.216,0.184 0.431,0.374 0.646,0.572 0.209,0.192 0.417,0.391 0.624,0.596 0.203,0.199 0.404,0.405 0.604,0.616 0.196,0.206 0.392,0.418 0.586,0.634 0.19,0.212 0.379,0.429 0.567,0.65 0.185,0.218 0.369,0.439 0.551,0.664 0.18,0.223 0.359,0.448 0.536,0.678 0.174,0.226 0.348,0.456 0.52,0.689 0.17,0.23 0.338,0.463 0.505,0.699 0.166,0.234 0.33,0.47 0.492,0.709 0.161,0.237 0.321,0.477 0.479,0.719 0.156,0.24 0.311,0.483 0.465,0.727 0.152,0.243 0.303,0.488 0.452,0.735 0.148,0.245 0.295,0.493 0.439,0.742 0.144,0.248 0.287,0.499 0.427,0.75 0.14,0.251 0.278,0.503 0.414,0.757 0.137,0.254 0.271,0.508 0.402,0.764 0.133,0.256 0.262,0.513 0.39,0.77 0.128,0.258 0.253,0.517 0.376,0.776 0.124,0.261 0.245,0.522 0.363,0.783 0.119,0.263 0.236,0.526 0.349,0.788 0.115,0.266 0.227,0.531 0.335,0.795 0.11,0.268 0.217,0.535 0.32,0.801 0.106,0.271 0.207,0.541 0.305,0.809 0.1,0.273 0.196,0.544 0.288,0.814 0.094,0.275 0.184,0.549 0.27,0.82 0.088,0.278 0.171,0.554 0.25,0.826 0.081,0.281 0.157,0.559 0.227,0.833 0.074,0.283 0.141,0.563 0.203,0.838 0.065,0.286 0.123,0.568 0.175,0.845 0.038,0.203 0.074,0.404 0.108,0.601 0.035,0.204 0.069,0.404 0.1,0.601 0.033,0.204 0.064,0.405 0.093,0.602 0.03,0.206 0.059,0.407 0.086,0.605 0.028,0.206 0.054,0.407 0.08,0.604 0.026,0.206 0.051,0.408 0.075,0.604 0.025,0.208 0.049,0.41 0.073,0.606 0.024,0.209 0.048,0.411 0.072,0.606 0.025,0.21 0.05,0.412 0.075,0.606 0.028,0.21 0.055,0.411 0.084,0.603 0.032,0.212 0.065,0.412 0.1,0.601 0.041,0.212 0.084,0.411 0.132,0.594 0.057,0.214 0.119,0.407 0.191,0.579 0.086,0.206 0.185,0.383 0.302,0.528 0.133,0.166 0.288,0.292 0.473,0.376 0.171,0.078 0.366,0.12 0.592,0.125 0.182,0.005 0.382,-0.015 0.605,-0.058 0.182,-0.036 0.378,-0.088 0.589,-0.156 0.18,-0.057 0.37,-0.127 0.573,-0.208 0.178,-0.071 0.365,-0.151 0.562,-0.241 0.217,-0.099 0.45,-0.213 0.697,-0.344 0.216,-0.114 0.443,-0.24 0.679,-0.377 0.215,-0.124 0.437,-0.258 0.666,-0.4 0.212,-0.132 0.431,-0.272 0.654,-0.419 0.21,-0.138 0.425,-0.283 0.645,-0.434 0.208,-0.143 0.42,-0.293 0.636,-0.447 0.206,-0.148 0.415,-0.301 0.627,-0.459 0.204,-0.153 0.411,-0.309 0.619,-0.47 0.202,-0.156 0.406,-0.316 0.612,-0.48 0.2,-0.159 0.401,-0.322 0.604,-0.489 0.198,-0.163 0.397,-0.329 0.597,-0.498 0.195,-0.166 0.391,-0.335 0.588,-0.507 0.194,-0.169 0.388,-0.341 0.582,-0.515 0.191,-0.172 0.383,-0.347 0.575,-0.525 0.188,-0.174 0.377,-0.352 0.566,-0.531 0.186,-0.178 0.373,-0.358 0.558,-0.54 0.184,-0.181 0.368,-0.363 0.551,-0.548 0.181,-0.184 0.362,-0.37 0.543,-0.557 0.178,-0.187 0.357,-0.375 0.534,-0.565 0.175,-0.189 0.35,-0.38 0.524,-0.573 0.173,-0.192 0.345,-0.386 0.516,-0.582 0.17,-0.195 0.339,-0.391 0.506,-0.59 0.166,-0.197 0.332,-0.397 0.495,-0.597 0.163,-0.201 0.325,-0.404 0.484,-0.607 0.16,-0.204 0.318,-0.41 0.474,-0.617 0.156,-0.207 0.309,-0.415 0.461,-0.625 0.152,-0.211 0.302,-0.423 0.449,-0.636 0.147,-0.213 0.292,-0.428 0.435,-0.644 0.142,-0.217 0.283,-0.435 0.42,-0.654 0.138,-0.22 0.272,-0.442 0.404,-0.664 0.132,-0.223 0.262,-0.448 0.387,-0.673 0.127,-0.227 0.25,-0.455 0.37,-0.683 0.12,-0.231 0.237,-0.462 0.35,-0.694 0.114,-0.234 0.224,-0.469 0.329,-0.704 0.107,-0.237 0.209,-0.475 0.307,-0.713 0.098,-0.241 0.193,-0.483 0.282,-0.725 0.09,-0.244 0.176,-0.489 0.256,-0.734 0.081,-0.248 0.157,-0.496 0.228,-0.744 0.071,-0.25 0.137,-0.501 0.196,-0.752 0.061,-0.252 0.115,-0.506 0.164,-0.759 0.058,-0.304 0.115,-0.613 0.17,-0.928 0.054,-0.305 0.106,-0.615 0.157,-0.93 0.05,-0.306 0.098,-0.617 0.145,-0.931 0.046,-0.308 0.091,-0.62 0.135,-0.934 0.042,-0.309 0.084,-0.62 0.125,-0.934 0.04,-0.31 0.079,-0.623 0.117,-0.937 0.037,-0.311 0.074,-0.623 0.109,-0.937 0.035,-0.311 0.07,-0.624 0.103,-0.937 0.033,-0.313 0.065,-0.626 0.096,-0.94 0.031,-0.312 0.061,-0.625 0.09,-0.939 0.029,-0.313 0.057,-0.626 0.085,-0.939 0.027,-0.314 0.054,-0.627 0.079,-0.94 0.026,-0.315 0.051,-0.628 0.075,-0.941 0.024,-0.314 0.048,-0.628 0.071,-0.94 0.022,-0.315 0.044,-0.629 0.066,-0.941 0.021,-0.316 0.042,-0.63 0.062,-0.942 0.02,-0.316 0.039,-0.63 0.058,-0.942 0.018,-0.316 0.037,-0.63 0.054,-0.941 0.018,-0.318 0.035,-0.632 0.051,-0.943 0.016,-0.318 0.032,-0.631 0.047,-0.941 0.016,-0.319 0.03,-0.633 0.044,-0.942 0.015,-0.32 0.028,-0.634 0.041,-0.942 0.014,-0.321 0.026,-0.636 0.038,-0.943 0.012,-0.323 0.024,-0.637 0.035,-0.943 0.011,-0.325 0.022,-0.639 0.031,-0.943 0.011,-0.328 0.02,-0.642 0.029,-0.943 0.009,-0.332 0.018,-0.647 0.025,-0.943 0.008,-0.341 0.016,-0.656 0.022,-0.942 0.007,-0.363 0.013,-0.68 0.018,-0.945 0.01,-0.607 0.013,-0.943 0.013,-0.943 0,0 -0.188,-0.149 -0.475,-0.356 -0.142,-0.102 -0.308,-0.218 -0.488,-0.337 -0.158,-0.106 -0.328,-0.213 -0.501,-0.316 -0.172,-0.102 -0.348,-0.2 -0.52,-0.285 -0.19,-0.093 -0.375,-0.171 -0.546,-0.224 -0.228,-0.07 -0.43,-0.096 -0.583,-0.052 -0.176,0.051 -0.288,0.192 -0.301,0.461 -0.007,0.152 0.017,0.345 0.08,0.585 0.043,0.164 0.103,0.351 0.184,0.562 0.064,0.166 0.14,0.348 0.229,0.546 0.112,0.248 0.224,0.499 0.335,0.752 0.109,0.25 0.217,0.502 0.325,0.757 0.106,0.252 0.21,0.505 0.314,0.761 0.102,0.254 0.203,0.509 0.302,0.767 0.098,0.255 0.194,0.512 0.289,0.772 0.093,0.257 0.185,0.516 0.274,0.777 0.089,0.259 0.175,0.519 0.259,0.782 0.083,0.26 0.163,0.523 0.241,0.787 0.077,0.263 0.152,0.527 0.223,0.793 0.071,0.264 0.139,0.53 0.204,0.798 0.064,0.266 0.126,0.534 0.183,0.803 0.058,0.268 0.112,0.537 0.162,0.809 0.05,0.269 0.097,0.54 0.139,0.812 0.043,0.27 0.081,0.542 0.115,0.816 0.035,0.271 0.065,0.544 0.091,0.819 0.025,0.272 0.047,0.546 0.064,0.821 0.017,0.273 0.03,0.548 0.038,0.824 0.008,0.273 0.011,0.548 0.01,0.824 -10e-4,0.273 -0.007,0.548 -0.017,0.823 -0.011,0.273 -0.026,0.547 -0.046,0.822 -0.019,0.261 -0.04,0.536 -0.062,0.823 -0.021,0.263 -0.043,0.537 -0.067,0.82 -0.022,0.266 -0.046,0.54 -0.071,0.822 -0.024,0.267 -0.049,0.541 -0.075,0.821 -0.025,0.269 -0.052,0.542 -0.079,0.821 -0.027,0.269 -0.055,0.542 -0.084,0.819 -0.028,0.269 -0.057,0.542 -0.087,0.818 -0.03,0.271 -0.061,0.544 -0.093,0.82 -0.031,0.27 -0.063,0.543 -0.096,0.817 -0.033,0.271 -0.067,0.544 -0.102,0.818 -0.035,0.271 -0.07,0.543 -0.107,0.817 -0.036,0.27 -0.074,0.542 -0.112,0.815 -0.038,0.271 -0.078,0.543 -0.118,0.816 -0.04,0.271 -0.081,0.543 -0.124,0.814 -0.042,0.272 -0.086,0.543 -0.13,0.814 -0.045,0.272 -0.09,0.542 -0.137,0.812 -0.047,0.272 -0.096,0.543 -0.145,0.813 -0.05,0.271 -0.101,0.541 -0.153,0.81 -0.052,0.271 -0.106,0.541 -0.161,0.809 -0.056,0.27 -0.113,0.539 -0.171,0.806 -0.059,0.271 -0.12,0.539 -0.181,0.804 -0.063,0.27 -0.128,0.537 -0.194,0.801 -0.067,0.27 -0.136,0.536 -0.206,0.799 -0.073,0.269 -0.147,0.533 -0.222,0.793 -0.078,0.268 -0.158,0.532 -0.239,0.789 -0.085,0.267 -0.171,0.528 -0.26,0.782 -0.092,0.265 -0.187,0.524 -0.284,0.774 -0.102,0.263 -0.206,0.518 -0.313,0.762 -0.114,0.26 -0.231,0.509 -0.35,0.746 -0.129,0.255 -0.261,0.496 -0.396,0.722 -0.145,0.241 -0.292,0.481 -0.44,0.719 -0.149,0.238 -0.3,0.475 -0.453,0.711 -0.153,0.236 -0.308,0.47 -0.465,0.703 -0.158,0.233 -0.316,0.465 -0.477,0.695 -0.161,0.23 -0.324,0.46 -0.489,0.687 -0.165,0.228 -0.332,0.454 -0.5,0.678 -0.169,0.226 -0.34,0.449 -0.512,0.671 -0.173,0.222 -0.347,0.442 -0.522,0.66 -0.177,0.22 -0.354,0.437 -0.533,0.652 -0.181,0.217 -0.362,0.432 -0.545,0.644 -0.184,0.214 -0.369,0.426 -0.556,0.635 -0.187,0.21 -0.375,0.419 -0.565,0.624 -0.191,0.208 -0.383,0.413 -0.576,0.616 -0.195,0.204 -0.39,0.406 -0.586,0.605 -0.199,0.201 -0.398,0.399 -0.597,0.595 -0.202,0.198 -0.404,0.392 -0.607,0.584 -0.205,0.195 -0.411,0.386 -0.617,0.575 -0.209,0.19 -0.418,0.378 -0.628,0.562 -0.212,0.187 -0.425,0.371 -0.637,0.551 -0.217,0.183 -0.433,0.363 -0.649,0.539 -0.222,0.181 -0.44,0.358 -0.653,0.531 -0.223,0.181 -0.441,0.358 -0.653,0.53 -0.224,0.181 -0.443,0.358 -0.655,0.529 -0.225,0.182 -0.444,0.357 -0.655,0.527 -0.227,0.183 -0.446,0.358 -0.657,0.527 -0.229,0.184 -0.449,0.359 -0.657,0.525 -0.233,0.187 -0.453,0.361 -0.659,0.525 -0.239,0.19 -0.46,0.365 -0.659,0.523 -0.256,0.202 -0.477,0.376 -0.662,0.521 -0.43,0.339 -0.662,0.519 -0.662,0.519" id="path319" class="MyttJkXl_0"></path>
  </g>
<style data-made-with="vivus-instant">.MyttJkXl_0{stroke-dasharray:1408 1410;stroke-dashoffset:1409;animation:MyttJkXl_draw_0 15200ms linear 0ms infinite,MyttJkXl_fade 15200ms linear 0ms infinite;}@keyframes MyttJkXl_draw{100%{stroke-dashoffset:0;}}@keyframes MyttJkXl_fade{0%{stroke-opacity:1;}97.36842105263158%{stroke-opacity:1;}100%{stroke-opacity:0;}}@keyframes MyttJkXl_draw_0{5.263157894736842%{stroke-dashoffset: 1409}31.57894736842105%{ stroke-dashoffset: 0;}100%{ stroke-dashoffset: 0;}}</style></svg>
