<!--?xml version="1.0" encoding="UTF-8" standalone="no"?-->
<!-- Created with Inkscape (http://www.inkscape.org/) -->

<svg width="92.662712mm" height="28.819418mm" viewBox="0 0 92.662712 28.819418" version="1.1" id="svg2826" sodipodi:docname="wizardhat-snitch-drawing.svg" inkscape:version="1.1.1 (3bf5ae0d25, 2021-09-20)" xmlns:inkscape="http://www.inkscape.org/namespaces/inkscape" xmlns:sodipodi="http://sodipodi.sourceforge.net/DTD/sodipodi-0.dtd" xmlns="http://www.w3.org/2000/svg" xmlns:svg="http://www.w3.org/2000/svg" style="">
  <sodipodi:namedview id="namedview2828" pagecolor="#ffffff" bordercolor="#666666" borderopacity="1.0" inkscape:pageshadow="2" inkscape:pageopacity="0.0" inkscape:pagecheckerboard="0" inkscape:document-units="mm" showgrid="false" inkscape:zoom="1.8116734" inkscape:cx="170.83653" inkscape:cy="-37.810346" inkscape:window-width="1920" inkscape:window-height="1017" inkscape:window-x="-8" inkscape:window-y="-8" inkscape:window-maximized="1" inkscape:current-layer="layer6"></sodipodi:namedview>
  <defs id="defs2823"></defs>
  <g inkscape:groupmode="layer" id="layer6" inkscape:label="wizard hat" transform="translate(-64.573991,-120.075)">
    <path style="fill: none; stroke: rgb(4, 15, 34); stroke-width: 0.5; stroke-linecap: butt; stroke-linejoin: miter; stroke-opacity: 1; stroke-miterlimit: 4;" d="M 70.393 145.532 C 70.393 145.532 70.1848 145.343 69.8521 145.036 C 69.697 144.892 69.5149 144.723 69.3143 144.535 C 69.1471 144.379 68.9671 144.21 68.7791 144.031 C 68.6073 143.868 68.4289 143.698 68.2477 143.524 C 68.0731 143.356 67.8958 143.184 67.7192 143.011 C 67.5432 142.839 67.3678 142.665 67.1964 142.494 C 67.019 142.316 66.8458 142.14 66.6806 141.969 C 66.5017 141.783 66.332 141.604 66.1764 141.434 C 65.9932 141.234 65.8294 141.048 65.6928 140.881 C 65.4813 140.623 65.3348 140.413 65.2815 140.275 C 65.2314 140.145 65.1662 139.984 65.0977 139.803 C 65.0422 139.656 64.9846 139.495 64.9312 139.325 C 64.882 139.169 64.8364 139.005 64.7993 138.837 C 64.763 138.673 64.7348 138.506 64.7194 138.339 C 64.7037 138.169 64.7012 137.999 64.7167 137.833 C 64.7324 137.664 64.767 137.498 64.8256 137.34 C 64.8832 137.185 64.9641 137.038 65.073 136.902 C 65.1723 136.778 65.295 136.664 65.4448 136.563 C 65.5733 136.475 65.7218 136.398 65.8926 136.331 C 66.0374 136.274 66.1984 136.225 66.3768 136.186 C 66.6066 136.135 66.8531 136.089 67.1116 136.049 C 67.3496 136.011 67.5977 135.978 67.8524 135.949 C 68.0956 135.921 68.3448 135.897 68.5967 135.875 C 68.8436 135.854 69.0932 135.836 69.3424 135.821 C 69.5927 135.805 69.8428 135.792 70.0894 135.781 C 70.3429 135.77 70.5929 135.761 70.8362 135.754 C 71.0941 135.747 71.3444 135.742 71.5831 135.738 C 71.8481 135.734 72.099 135.732 72.3302 135.731 C 72.6112 135.731 72.8633 135.732 73.0768 135.734 C 73.5425 135.739 73.825 135.748 73.825 135.748 C 73.825 135.748 73.8322 135.538 73.8566 135.201 C 73.868 135.044 73.8832 134.859 73.9032 134.655 C 73.9199 134.485 73.9399 134.302 73.9638 134.111 C 73.9858 133.935 74.0111 133.752 74.0401 133.567 C 74.0679 133.388 74.0993 133.207 74.1344 133.026 C 74.1694 132.847 74.2082 132.667 74.2512 132.491 C 74.2956 132.31 74.3444 132.133 74.3982 131.963 C 74.4555 131.781 74.5184 131.608 74.5874 131.448 C 74.6647 131.269 74.7496 131.105 74.8429 130.964 C 74.9538 130.796 75.0766 130.659 75.2125 130.563 C 75.3228 130.485 75.4314 130.417 75.5386 130.357 C 75.6556 130.292 75.771 130.236 75.8852 130.187 C 76.0074 130.135 76.1282 130.092 76.2483 130.054 C 76.3731 130.014 76.4972 129.981 76.621 129.951 C 76.7466 129.92 76.8721 129.892 76.998 129.864 C 77.1227 129.836 77.2478 129.808 77.3741 129.777 C 77.4971 129.747 77.6212 129.713 77.7469 129.673 C 77.8664 129.635 77.9874 129.592 78.1105 129.541 C 78.2248 129.493 78.3409 129.438 78.4592 129.375 C 78.5677 129.316 78.678 129.251 78.7905 129.176 C 78.9439 129.073 79.1072 128.935 79.2773 128.77 C 79.4187 128.633 79.5647 128.478 79.7135 128.309 C 79.8477 128.157 79.9841 127.994 80.1214 127.824 C 80.2515 127.662 80.3823 127.495 80.5128 127.325 C 80.6406 127.158 80.768 126.988 80.8939 126.818 C 81.0211 126.647 81.1467 126.476 81.2698 126.308 C 81.3982 126.133 81.5238 125.961 81.6452 125.797 C 81.7775 125.618 81.905 125.447 82.0259 125.289 C 82.1681 125.104 82.3013 124.937 82.4227 124.795 C 82.6044 124.583 82.7598 124.428 82.8797 124.356 C 82.9913 124.289 83.1865 124.241 83.4397 124.208 C 83.6097 124.187 83.8058 124.172 84.0203 124.163 C 84.2028 124.156 84.3986 124.153 84.6029 124.153 C 84.7909 124.154 84.9861 124.158 85.1848 124.165 C 85.3767 124.172 85.5719 124.181 85.7672 124.192 C 85.962 124.203 86.1568 124.217 86.3482 124.232 C 86.5463 124.248 86.7408 124.266 86.9281 124.285 C 87.1308 124.305 87.325 124.328 87.5061 124.351 C 87.7193 124.379 87.9143 124.408 88.0836 124.438 C 88.3392 124.484 88.5362 124.53 88.6485 124.575 C 88.7483 124.615 88.844 124.671 88.9349 124.743 C 89.0185 124.808 89.0979 124.886 89.1727 124.975 C 89.2408 125.057 89.3051 125.148 89.3651 125.248 C 89.4202 125.339 89.4717 125.438 89.5192 125.543 C 89.5634 125.642 89.6042 125.746 89.6413 125.855 C 89.6759 125.957 89.7073 126.063 89.7352 126.174 C 89.7617 126.279 89.785 126.388 89.805 126.5 C 89.8241 126.607 89.8401 126.717 89.8529 126.83 C 89.8652 126.938 89.8746 127.049 89.8808 127.162 C 89.8868 127.271 89.8898 127.383 89.8898 127.496 C 89.8898 127.598 89.8898 127.698 89.8894 127.794 C 89.889 127.897 89.888 127.997 89.8861 128.093 C 89.8839 128.197 89.8806 128.297 89.8753 128.39 C 89.8692 128.498 89.8606 128.598 89.8483 128.687 C 89.8328 128.801 89.8115 128.898 89.7822 128.977 C 89.7385 129.093 89.6771 129.168 89.5908 129.189 C 89.5166 129.207 89.4242 129.186 89.3088 129.119 C 89.2379 129.078 89.1583 129.019 89.069 128.942 C 89.0022 128.884 88.9299 128.816 88.8517 128.736 C 88.788 128.671 88.7203 128.599 88.6485 128.518 C 88.566 128.426 88.4894 128.336 88.4177 128.248 C 88.3395 128.152 88.2672 128.059 88.1997 127.969 C 88.1249 127.869 88.056 127.772 87.9916 127.681 C 87.9195 127.578 87.8529 127.481 87.7898 127.39 C 87.7173 127.285 87.6493 127.188 87.5829 127.101 C 87.5045 126.999 87.4282 126.91 87.3488 126.836 C 87.2573 126.75 87.1616 126.686 87.0539 126.644 C 86.9511 126.604 86.8373 126.586 86.7057 126.591 C 86.6016 126.596 86.4863 126.615 86.3565 126.651 C 86.2539 126.679 86.1422 126.717 86.0197 126.766 C 85.8856 126.819 85.7516 126.882 85.6181 126.952 C 85.4891 127.02 85.3606 127.095 85.2332 127.174 C 85.109 127.252 84.9858 127.334 84.8641 127.419 C 84.7431 127.504 84.6236 127.592 84.5059 127.681 C 84.3873 127.771 84.2707 127.862 84.1564 127.954 C 84.0387 128.048 83.9235 128.141 83.8114 128.233 C 83.6934 128.33 83.5789 128.424 83.4683 128.514 C 83.3476 128.612 83.2318 128.705 83.1214 128.79 C 82.9937 128.888 82.8733 128.976 82.7617 129.049 C 82.6147 129.144 82.4827 129.214 82.3686 129.249 C 82.3094 129.266 82.2641 129.281 82.2309 129.293 C 82.1281 129.331 82.1413 129.341 82.2162 129.325 C 82.2512 129.317 82.2997 129.304 82.3561 129.285 C 82.3979 129.271 82.4441 129.254 82.4923 129.234 C 82.5349 129.216 82.5792 129.196 82.6235 129.174 C 82.6662 129.152 82.7088 129.129 82.7502 129.103 C 82.7911 129.077 82.8308 129.05 82.8678 129.02 C 82.9065 128.989 82.9424 128.956 82.9737 128.92 C 83.0065 128.883 83.0345 128.843 83.0558 128.802 C 83.0778 128.758 83.0928 128.713 83.0988 128.664 C 83.1165 128.523 83.1042 128.501 83.0879 128.554 C 83.0781 128.586 83.0668 128.644 83.0597 128.719 C 83.055 128.769 83.0521 128.825 83.0526 128.887 C 83.053 128.94 83.056 128.996 83.0625 129.054 C 83.0686 129.109 83.0778 129.164 83.091 129.219 C 83.1038 129.273 83.1204 129.327 83.1415 129.38 C 83.1625 129.432 83.188 129.482 83.2187 129.53 C 83.2486 129.576 83.2834 129.62 83.3239 129.66 C 83.3629 129.698 83.4073 129.733 83.4575 129.763 C 83.5033 129.791 83.5539 129.814 83.61 129.833 C 83.7229 129.87 83.8189 129.941 83.9002 130.037 C 83.9721 130.121 84.0326 130.226 84.0832 130.345 C 84.1273 130.449 84.1638 130.564 84.1941 130.687 C 84.2216 130.799 84.2439 130.917 84.2617 131.04 C 84.2786 131.156 84.2915 131.276 84.3011 131.398 C 84.3104 131.517 84.3165 131.637 84.3201 131.757 C 84.3236 131.878 84.3246 131.998 84.3236 132.115 C 84.3225 132.239 84.3193 132.36 84.3147 132.475 C 84.3097 132.603 84.3029 132.723 84.2955 132.833 C 84.2863 132.971 84.2762 133.092 84.2672 133.192 C 84.2596 133.275 84.2567 133.348 84.256 133.413 C 84.255 133.499 84.2576 133.571 84.258 133.634 C 84.2585 133.719 84.2549 133.788 84.2335 133.854 C 84.2137 133.916 84.1786 133.974 84.1172 134.04 C 84.0754 134.085 84.0213 134.134 83.9516 134.188 C 83.9009 134.228 83.8418 134.271 83.7731 134.319 C 83.7181 134.357 83.6569 134.398 83.5888 134.443 C 83.5315 134.48 83.4693 134.52 83.4018 134.563 C 83.3431 134.6 83.2804 134.64 83.2133 134.682 C 83.1542 134.719 83.0918 134.757 83.0258 134.798 C 82.9577 134.84 82.8953 134.879 82.8383 134.913 C 82.7672 134.957 82.7045 134.994 82.6497 135.026 C 82.5699 135.073 82.5066 135.109 82.458 135.135 C 82.305 135.216 82.2967 135.2 82.3704 135.128 C 82.4074 135.092 82.4653 135.042 82.5359 134.983 C 82.5873 134.94 82.6454 134.892 82.7072 134.842 C 82.7621 134.798 82.82 134.751 82.8786 134.705 C 82.9358 134.659 82.9938 134.612 83.0505 134.567 C 83.1096 134.519 83.1674 134.472 83.2215 134.428 C 83.2839 134.377 83.3415 134.329 83.3909 134.287 C 83.5207 134.176 83.5704 134.159 83.5736 134.219 C 83.5759 134.261 83.5556 134.34 83.5241 134.451 C 83.5055 134.517 83.4828 134.594 83.4586 134.681 C 83.4389 134.752 83.4181 134.829 83.3975 134.912 C 83.3795 134.985 83.3615 135.063 83.3446 135.145 C 83.3292 135.219 83.3145 135.298 83.3014 135.379 C 83.289 135.455 83.2779 135.535 83.2687 135.616 C 83.26 135.693 83.253 135.773 83.248 135.854 C 83.2432 135.932 83.2404 136.011 83.2398 136.092 C 83.2392 136.17 83.2408 136.25 83.2449 136.332 C 83.2517 136.469 83.2553 136.599 83.2569 136.725 C 83.2585 136.861 83.2576 136.991 83.2556 137.117 C 83.2535 137.252 83.2501 137.383 83.2471 137.511 C 83.244 137.644 83.2413 137.774 83.241 137.903 C 83.2408 138.034 83.2429 138.164 83.2494 138.297 C 83.2556 138.424 83.2659 138.554 83.282 138.687 C 83.297 138.812 83.3171 138.941 83.3437 139.075 C 83.3679 139.197 83.3975 139.323 83.4335 139.456 C 83.4662 139.576 83.5041 139.701 83.5481 139.832 C 83.5879 139.95 83.6327 140.073 83.683 140.202 C 83.7427 140.354 83.7969 140.502 83.8444 140.645 C 83.8963 140.801 83.94 140.952 83.9737 141.097 C 84.0114 141.26 84.0365 141.415 84.0462 141.563 C 84.0572 141.728 84.049 141.885 84.0179 142.032 C 83.9854 142.186 83.928 142.33 83.8413 142.465 C 83.7615 142.588 83.6568 142.704 83.5241 142.81 C 83.4124 142.9 83.2808 142.984 83.1274 143.062 C 82.9988 143.127 82.8548 143.188 82.6943 143.245 C 82.5564 143.294 82.4062 143.34 82.2431 143.383 C 82.1003 143.42 81.9476 143.455 81.7844 143.488 C 81.5454 143.536 81.3065 143.583 81.0679 143.63 C 80.8279 143.677 80.5884 143.722 80.3497 143.765 C 80.1086 143.808 79.8683 143.849 79.6294 143.885 C 79.3862 143.922 79.1444 143.955 78.9044 143.982 C 78.6599 144.009 78.4173 144.031 78.177 144.045 C 77.9307 144.06 77.6869 144.067 77.4461 144.064 C 77.1999 144.061 76.9568 144.048 76.7175 144.024 C 76.4731 143.999 76.2326 143.962 75.9965 143.911 C 75.7576 143.859 75.5233 143.793 75.2942 143.711 C 75.0669 143.629 74.8447 143.531 74.6283 143.415 C 74.5085 143.351 74.3937 143.289 74.2839 143.23 C 74.1641 143.165 74.0502 143.102 73.9422 143.042 C 73.8219 142.975 73.7088 142.911 73.6028 142.849 C 73.4825 142.779 73.3714 142.711 73.2693 142.645 C 73.1505 142.569 73.0438 142.494 72.9491 142.422 C 72.8352 142.334 72.7386 142.248 72.6588 142.162 C 72.5614 142.057 72.489 141.95 72.441 141.839 C 72.3893 141.72 72.3658 141.595 72.3693 141.458 C 72.3724 141.34 72.3958 141.214 72.439 141.076 C 72.4742 140.963 72.5225 140.843 72.5837 140.713 C 72.6285 140.618 72.675 140.53 72.7227 140.447 C 72.7755 140.356 72.8298 140.272 72.8851 140.194 C 72.9454 140.108 73.0068 140.03 73.0685 139.956 C 73.1355 139.876 73.2029 139.803 73.2695 139.732 C 73.341 139.657 73.4116 139.586 73.4801 139.517 C 73.5522 139.444 73.622 139.372 73.688 139.299 C 73.7555 139.224 73.819 139.147 73.8769 139.065 C 73.9334 138.985 73.9845 138.899 74.0289 138.806 C 74.0695 138.72 74.1045 138.627 74.1326 138.525 C 74.1573 138.435 74.1768 138.337 74.1902 138.23 C 74.2034 138.124 74.2155 138.015 74.2264 137.904 C 74.2371 137.796 74.2466 137.687 74.2553 137.576 C 74.2638 137.468 74.2715 137.358 74.2783 137.248 C 74.2851 137.138 74.2911 137.028 74.2964 136.919 C 74.3018 136.808 74.3065 136.698 74.3105 136.59 C 74.3146 136.478 74.3181 136.369 74.321 136.261 C 74.3241 136.148 74.3266 136.038 74.3285 135.932 C 74.3306 135.817 74.3322 135.706 74.3333 135.603 C 74.3346 135.484 74.3353 135.373 74.3357 135.273 C 74.3362 135.145 74.3362 135.033 74.3362 134.944 C 74.3362 134.792 74.3312 134.923 74.3161 135.213 C 74.3104 135.324 74.3031 135.459 74.2941 135.61 C 74.2868 135.732 74.2783 135.866 74.2684 136.006 C 74.2596 136.133 74.2496 136.266 74.2385 136.403 C 74.2279 136.532 74.2162 136.665 74.2033 136.798 C 74.1905 136.93 74.1766 137.063 74.1614 137.194 C 74.1458 137.328 74.1289 137.46 74.1106 137.588 C 74.091 137.725 74.0697 137.857 74.0467 137.981 C 74.0206 138.121 73.9922 138.252 73.9613 138.368 C 73.9204 138.522 73.8751 138.65 73.825 138.741 C 73.7848 138.815 73.7397 138.874 73.6926 138.921 C 73.6329 138.981 73.5701 139.022 73.51 139.049 C 73.4277 139.087 73.3505 139.101 73.294 139.105 C 73.1804 139.114 73.1498 139.087 73.3267 139.147 C 73.378 139.164 73.4468 139.189 73.536 139.224 C 73.5955 139.248 73.664 139.276 73.7426 139.31 C 73.8045 139.336 73.8726 139.366 73.9474 139.4 C 74.0106 139.429 74.0785 139.46 74.1514 139.494 C 74.215 139.524 74.2823 139.557 74.3537 139.591 C 74.4176 139.622 74.4848 139.656 74.5553 139.691 C 74.7259 139.776 74.8903 139.857 75.0493 139.935 C 75.2213 140.018 75.3869 140.097 75.5473 140.17 C 75.7212 140.25 75.8889 140.324 76.0517 140.392 C 76.2281 140.465 76.3989 140.532 76.5656 140.591 C 76.7451 140.654 76.9199 140.709 77.0923 140.755 C 77.2741 140.803 77.4532 140.841 77.632 140.869 C 77.8139 140.898 77.9955 140.916 78.1794 140.923 C 78.3602 140.929 78.5432 140.925 78.7308 140.91 C 78.9076 140.895 79.0886 140.871 79.2758 140.836 C 79.4489 140.804 79.6274 140.763 79.8128 140.713 C 79.9445 140.678 80.0744 140.642 80.2021 140.606 C 80.3336 140.569 80.4629 140.531 80.5896 140.493 C 80.7215 140.454 80.8505 140.414 80.9764 140.374 C 81.1082 140.332 81.2365 140.29 81.3608 140.247 C 81.4926 140.202 81.6199 140.156 81.7421 140.111 C 81.8735 140.061 81.999 140.012 82.1179 139.962 C 82.249 139.906 82.3721 139.851 82.4862 139.795 C 82.6168 139.731 82.7356 139.667 82.8412 139.602 C 82.9707 139.523 83.0803 139.443 83.1673 139.363 C 83.2866 139.254 83.3634 139.144 83.3909 139.034 C 83.4044 138.979 83.4117 138.925 83.4146 138.87 C 83.4176 138.814 83.416 138.759 83.412 138.705 C 83.4079 138.649 83.4011 138.594 83.3939 138.541 C 83.3862 138.484 83.378 138.429 83.372 138.377 C 83.365 138.318 83.361 138.262 83.364 138.213 C 83.3676 138.151 83.3821 138.099 83.4153 138.058 C 83.4454 138.022 83.4909 137.995 83.5577 137.98 C 83.6025 137.971 83.6568 137.967 83.7225 137.969 C 83.7709 137.97 83.8254 137.975 83.8867 137.984 C 83.936 137.99 83.9896 138 84.0481 138.011 C 84.1898 138.04 84.3695 138.072 84.5767 138.106 C 84.7388 138.133 84.9177 138.161 85.1086 138.19 C 85.2773 138.215 85.4554 138.241 85.6394 138.267 C 85.8123 138.292 85.9904 138.316 86.171 138.341 C 86.3474 138.364 86.5262 138.388 86.7046 138.41 C 86.8836 138.433 87.0623 138.455 87.2381 138.476 C 87.4199 138.498 87.5985 138.519 87.7711 138.538 C 87.9577 138.559 88.1371 138.578 88.3058 138.594 C 88.5006 138.613 88.6811 138.629 88.8414 138.642 C 89.0647 138.659 89.2489 138.668 89.3787 138.668 C 89.4964 138.668 89.6417 138.675 89.8065 138.689 C 89.9372 138.7 90.0803 138.716 90.2316 138.737 C 90.3668 138.756 90.5087 138.779 90.6542 138.806 C 90.7914 138.832 90.9319 138.861 91.0731 138.895 C 91.2107 138.928 91.3491 138.965 91.486 139.006 C 91.6237 139.048 91.7598 139.094 91.8922 139.144 C 92.0277 139.195 92.1592 139.251 92.2844 139.312 C 92.4165 139.377 92.5416 139.447 92.6566 139.523 C 92.7806 139.605 92.8929 139.693 92.99 139.789 C 93.0959 139.894 93.1837 140.007 93.2488 140.129 C 93.3147 140.252 93.3806 140.369 93.4438 140.483 C 93.5117 140.605 93.5765 140.722 93.6347 140.839 C 93.6961 140.963 93.7503 141.085 93.7932 141.211 C 93.8362 141.337 93.868 141.467 93.8843 141.604 C 93.8995 141.731 93.9016 141.864 93.8872 142.008 C 93.8748 142.132 93.8501 142.263 93.811 142.404 C 93.7778 142.524 93.7342 142.651 93.6789 142.786 C 93.6313 142.902 93.5751 143.024 93.5094 143.153 C 93.452 143.266 93.3873 143.384 93.3149 143.508 C 93.2505 143.618 93.1799 143.733 93.1028 143.853 C 92.9831 144.039 92.8507 144.216 92.7078 144.385 C 92.5651 144.553 92.4119 144.713 92.2506 144.864 C 92.0894 145.015 91.9201 145.158 91.7449 145.293 C 91.5696 145.428 91.3885 145.555 91.2036 145.674 C 91.0169 145.795 90.8264 145.908 90.6346 146.014 C 90.4384 146.122 90.2408 146.223 90.0442 146.316 C 89.8404 146.413 89.6376 146.502 89.4387 146.584 C 89.2269 146.671 89.0195 146.75 88.8197 146.821 C 88.5993 146.9 88.3882 146.969 88.1909 147.03 C 87.9564 147.102 87.7413 147.162 87.5531 147.212 C 87.4759 147.232 87.4019 147.253 87.3308 147.275 C 87.2543 147.298 87.1812 147.322 87.1114 147.345 C 87.0354 147.371 86.9633 147.398 86.8948 147.424 C 86.8191 147.453 86.7478 147.481 86.6804 147.51 C 86.6053 147.541 86.5351 147.572 86.4693 147.601 C 86.3934 147.635 86.3235 147.667 86.2585 147.696 C 86.1813 147.73 86.1111 147.761 86.0467 147.785 C 85.9638 147.817 85.8905 147.839 85.8237 147.847 C 85.741 147.857 85.6684 147.847 85.6005 147.809 C 85.5433 147.777 85.4894 147.726 85.4355 147.65 C 85.4088 147.613 85.3828 147.578 85.3576 147.545 C 85.329 147.508 85.3013 147.474 85.2745 147.444 C 85.2428 147.408 85.2124 147.377 85.1832 147.352 C 85.1449 147.318 85.1089 147.294 85.0747 147.28 C 85.0292 147.261 84.9871 147.26 84.9482 147.28 C 84.9159 147.296 84.8859 147.326 84.8577 147.372 C 84.8383 147.404 84.8197 147.443 84.8021 147.489 C 84.7882 147.526 84.7748 147.568 84.762 147.614 C 84.7513 147.653 84.741 147.695 84.731 147.74 C 84.7222 147.78 84.7136 147.823 84.7053 147.869 C 84.6875 147.967 84.6816 148.055 84.6805 148.135 C 84.6792 148.239 84.686 148.327 84.6849 148.402 C 84.6834 148.506 84.6665 148.584 84.5905 148.64 C 84.5388 148.678 84.4597 148.706 84.3394 148.726 C 84.2667 148.737 84.1789 148.746 84.073 148.752 C 83.9943 148.756 83.9056 148.759 83.8056 148.761 C 83.7239 148.762 83.6346 148.762 83.5372 148.762 C 83.4538 148.761 83.3644 148.76 83.2686 148.758 C 83.1843 148.757 83.0951 148.755 83.0006 148.753 C 82.916 148.751 82.827 148.748 82.7337 148.745 C 82.4418 148.737 82.0894 148.707 81.6933 148.661 C 81.3739 148.623 81.0261 148.575 80.6587 148.518 C 80.3293 148.467 79.9841 148.409 79.6295 148.347 C 79.2939 148.287 78.9499 148.223 78.6029 148.156 C 78.2628 148.09 77.9199 148.021 77.5791 147.95 C 77.2346 147.879 76.8922 147.806 76.5574 147.733 C 76.2075 147.656 75.8659 147.579 75.5384 147.503 C 75.1799 147.421 74.8385 147.339 74.5219 147.262 C 74.1445 147.169 73.8023 147.082 73.5089 147.003 C 73.0218 146.873 72.6688 146.767 72.5107 146.701 C 72.4632 146.681 72.42 146.663 72.3807 146.646 C 72.3319 146.625 72.2892 146.605 72.2521 146.588 C 72.201 146.563 72.1603 146.542 72.1284 146.521 C 72.0714 146.486 72.0424 146.455 72.0322 146.422 C 72.0201 146.383 72.0343 146.341 72.0594 146.285 C 72.0755 146.25 72.0961 146.208 72.117 146.157 C 72.1329 146.119 72.1491 146.075 72.1637 146.025 C 72.1756 145.984 72.1865 145.938 72.1954 145.888 C 72.203 145.844 72.2092 145.797 72.2132 145.746 C 72.2166 145.703 72.2186 145.656 72.2186 145.606 C 72.2186 145.552 72.2172 145.506 72.2146 145.464 C 72.2109 145.407 72.2047 145.36 72.196 145.323 C 72.1802 145.256 72.1563 145.22 72.1248 145.208 C 72.0897 145.194 72.0452 145.208 71.9919 145.24 C 71.9572 145.261 71.9187 145.289 71.8767 145.321 C 71.8418 145.348 71.8044 145.378 71.7647 145.408 C 71.7284 145.436 71.6902 145.464 71.6501 145.492 C 71.6117 145.519 71.5716 145.545 71.53 145.569 C 71.4895 145.592 71.4474 145.614 71.404 145.633 C 71.3605 145.651 71.3156 145.667 71.2693 145.679 C 71.2385 145.686 71.2085 145.693 71.1793 145.698 C 71.1481 145.704 71.1178 145.708 71.0884 145.712 C 71.0567 145.715 71.0261 145.717 70.9966 145.719 C 70.9644 145.72 70.9334 145.72 70.9038 145.718 C 70.8719 145.717 70.8414 145.714 70.8125 145.71 C 70.7803 145.706 70.7499 145.7 70.7214 145.693 C 70.6898 145.686 70.6604 145.677 70.6333 145.668 C 70.6014 145.657 70.5727 145.645 70.5471 145.633 C 70.515 145.617 70.4879 145.602 70.4659 145.588 C 70.4173 145.557 70.393 145.532 70.393 145.532 C 70.393 145.532 70.393 145.532 70.393 145.532 C 70.393 145.532 70.393 145.532 70.393 145.532 C 70.393 145.532 70.393 145.532 70.393 145.532 C 70.393 145.532 70.393 145.532 70.393 145.532 C 70.393 145.532 70.393 145.532 70.393 145.532 C 70.393 145.532 70.393 145.532 70.393 145.532 C 70.393 145.532 70.393 145.532 70.393 145.532 C 70.393 145.532 70.393 145.532 70.393 145.532 C 70.393 145.532 70.393 145.532 70.393 145.532 C 70.393 145.532 70.393 145.532 70.393 145.532" id="path2909" class="yBkjpjYu_0"></path>
    <path style="fill: none; stroke: rgb(4, 15, 34); stroke-width: 0.5; stroke-linecap: butt; stroke-linejoin: miter; stroke-opacity: 1; stroke-miterlimit: 4;" d="M 151.009 132.242 C 151.009 132.242 150.709 132.264 150.197 132.253 C 149.966 132.248 149.693 132.237 149.385 132.214 C 149.137 132.195 148.866 132.17 148.577 132.134 C 148.323 132.102 148.054 132.063 147.774 132.014 C 147.518 131.969 147.252 131.917 146.979 131.855 C 146.722 131.797 146.459 131.73 146.191 131.655 C 145.936 131.583 145.677 131.502 145.415 131.412 C 145.164 131.326 144.91 131.231 144.655 131.126 C 144.409 131.025 144.162 130.915 143.915 130.795 C 143.674 130.678 143.434 130.553 143.196 130.417 C 143.025 130.32 142.861 130.224 142.704 130.131 C 142.535 130.03 142.373 129.931 142.22 129.834 C 142.051 129.728 141.892 129.625 141.742 129.524 C 141.576 129.413 141.42 129.305 141.275 129.2 C 141.111 129.082 140.959 128.967 140.819 128.857 C 140.658 128.731 140.513 128.61 140.381 128.494 C 140.225 128.356 140.087 128.226 139.966 128.103 C 139.816 127.95 139.691 127.809 139.587 127.679 C 139.445 127.501 139.342 127.345 139.265 127.21 C 139.127 126.968 139.075 126.796 139.034 126.693 C 138.998 126.604 138.945 126.649 138.89 126.778 C 138.864 126.837 138.839 126.913 138.813 127.002 C 138.794 127.073 138.775 127.15 138.757 127.234 C 138.741 127.308 138.726 127.386 138.712 127.467 C 138.7 127.545 138.688 127.624 138.678 127.705 C 138.669 127.783 138.661 127.862 138.655 127.941 C 138.649 128.021 138.645 128.101 138.644 128.179 C 138.642 128.261 138.644 128.341 138.648 128.417 C 138.653 128.501 138.662 128.581 138.675 128.655 C 138.691 128.741 138.712 128.818 138.741 128.883 C 138.761 128.927 138.781 128.969 138.801 129.009 C 138.822 129.053 138.844 129.094 138.866 129.133 C 138.889 129.175 138.913 129.215 138.938 129.252 C 138.964 129.293 138.991 129.33 139.019 129.365 C 139.05 129.404 139.081 129.438 139.112 129.468 C 139.149 129.503 139.185 129.532 139.222 129.553 C 139.265 129.579 139.309 129.595 139.353 129.601 C 139.399 129.607 139.444 129.601 139.489 129.582 C 139.528 129.565 139.566 129.539 139.603 129.503 C 139.633 129.473 139.662 129.438 139.691 129.395 C 139.759 129.293 139.775 129.317 139.771 129.415 C 139.769 129.461 139.762 129.524 139.753 129.598 C 139.747 129.654 139.74 129.716 139.733 129.781 C 139.727 129.84 139.722 129.902 139.718 129.965 C 139.714 130.026 139.711 130.089 139.711 130.151 C 139.711 130.213 139.713 130.276 139.719 130.336 C 139.724 130.4 139.734 130.461 139.749 130.518 C 139.765 130.582 139.788 130.639 139.819 130.688 C 139.852 130.742 139.896 130.786 139.951 130.815 C 140 130.841 140.059 130.855 140.129 130.855 C 140.186 130.855 140.243 130.855 140.299 130.856 C 140.357 130.857 140.415 130.857 140.471 130.858 C 140.529 130.859 140.587 130.859 140.643 130.859 C 140.702 130.86 140.759 130.86 140.814 130.859 C 140.873 130.858 140.931 130.857 140.986 130.854 C 141.046 130.851 141.103 130.847 141.156 130.842 C 141.217 130.835 141.274 130.826 141.326 130.814 C 141.387 130.801 141.441 130.783 141.487 130.76 C 141.543 130.732 141.587 130.697 141.617 130.652 C 141.647 130.608 141.662 130.554 141.662 130.49 C 141.662 130.387 141.63 130.421 141.59 130.532 C 141.572 130.579 141.553 130.64 141.535 130.71 C 141.52 130.766 141.506 130.827 141.492 130.892 C 141.48 130.951 141.469 131.013 141.459 131.076 C 141.449 131.137 141.441 131.199 141.435 131.261 C 141.429 131.324 141.425 131.387 141.424 131.448 C 141.422 131.512 141.424 131.575 141.429 131.634 C 141.435 131.701 141.446 131.763 141.464 131.817 C 141.485 131.885 141.517 131.94 141.56 131.976 C 141.605 132.014 141.663 132.032 141.735 132.023 C 141.782 132.018 141.827 132.011 141.873 132.002 C 141.918 131.993 141.963 131.982 142.008 131.969 C 142.053 131.956 142.097 131.942 142.141 131.926 C 142.185 131.91 142.228 131.893 142.27 131.875 C 142.313 131.857 142.355 131.837 142.395 131.817 C 142.438 131.796 142.479 131.774 142.519 131.752 C 142.561 131.729 142.601 131.705 142.638 131.682 C 142.68 131.656 142.719 131.631 142.755 131.607 C 142.798 131.577 142.836 131.55 142.868 131.526 C 142.937 131.474 142.977 131.439 142.977 131.439 C 142.977 131.439 142.941 131.479 142.901 131.545 C 142.881 131.577 142.86 131.616 142.841 131.659 C 142.825 131.697 142.811 131.738 142.801 131.782 C 142.791 131.823 142.786 131.866 142.786 131.911 C 142.786 131.952 142.792 131.995 142.805 132.038 C 142.816 132.078 142.834 132.117 142.859 132.156 C 142.88 132.19 142.907 132.224 142.94 132.256 C 142.969 132.285 143.002 132.312 143.04 132.339 C 143.073 132.362 143.11 132.384 143.151 132.406 C 143.187 132.425 143.226 132.444 143.269 132.462 C 143.323 132.484 143.375 132.504 143.426 132.522 C 143.481 132.541 143.534 132.557 143.586 132.571 C 143.643 132.586 143.698 132.598 143.75 132.607 C 143.809 132.617 143.865 132.623 143.918 132.626 C 143.978 132.628 144.034 132.627 144.086 132.621 C 144.145 132.614 144.2 132.602 144.249 132.585 C 144.305 132.566 144.355 132.542 144.399 132.513 C 144.447 132.481 144.488 132.443 144.523 132.401 C 144.559 132.357 144.588 132.309 144.61 132.257 C 144.631 132.207 144.647 132.153 144.656 132.096 C 144.674 131.988 144.683 131.987 144.697 132.048 C 144.704 132.08 144.712 132.128 144.723 132.186 C 144.731 132.227 144.74 132.274 144.752 132.323 C 144.762 132.366 144.774 132.411 144.787 132.458 C 144.8 132.501 144.815 132.545 144.832 132.589 C 144.849 132.632 144.868 132.675 144.89 132.716 C 144.912 132.758 144.937 132.797 144.964 132.834 C 144.993 132.872 145.025 132.906 145.06 132.936 C 145.096 132.966 145.135 132.991 145.179 133.01 C 145.22 133.028 145.265 133.04 145.313 133.046 C 145.361 133.051 145.408 133.052 145.455 133.051 C 145.502 133.049 145.55 133.043 145.596 133.035 C 145.643 133.027 145.689 133.015 145.734 133.002 C 145.779 132.988 145.824 132.972 145.867 132.953 C 145.912 132.935 145.955 132.914 145.996 132.892 C 146.039 132.87 146.08 132.846 146.119 132.821 C 146.16 132.795 146.2 132.768 146.237 132.742 C 146.277 132.712 146.314 132.683 146.348 132.655 C 146.389 132.621 146.425 132.589 146.455 132.562 C 146.519 132.502 146.555 132.462 146.555 132.462 C 146.555 132.462 146.513 132.503 146.457 132.569 C 146.429 132.602 146.398 132.641 146.366 132.684 C 146.338 132.721 146.31 132.762 146.284 132.804 C 146.258 132.845 146.234 132.889 146.214 132.932 C 146.193 132.978 146.175 133.025 146.165 133.07 C 146.153 133.121 146.15 133.17 146.158 133.216 C 146.166 133.263 146.187 133.307 146.223 133.345 C 146.252 133.375 146.292 133.402 146.343 133.424 C 146.382 133.441 146.428 133.455 146.482 133.465 C 146.526 133.474 146.574 133.48 146.628 133.484 C 146.691 133.488 146.752 133.49 146.813 133.49 C 146.876 133.49 146.938 133.487 146.998 133.483 C 147.062 133.478 147.124 133.471 147.184 133.462 C 147.247 133.452 147.308 133.441 147.366 133.428 C 147.429 133.414 147.49 133.398 147.548 133.381 C 147.61 133.362 147.669 133.342 147.725 133.321 C 147.786 133.299 147.844 133.275 147.898 133.251 C 147.959 133.224 148.015 133.196 148.066 133.17 C 148.128 133.136 148.183 133.105 148.228 133.077 C 148.326 133.016 148.38 132.973 148.38 132.973 C 148.38 132.973 148.366 133.04 148.35 133.144 C 148.342 133.194 148.334 133.252 148.327 133.316 C 148.321 133.37 148.315 133.429 148.311 133.488 C 148.307 133.545 148.305 133.603 148.305 133.661 C 148.305 133.72 148.307 133.779 148.312 133.834 C 148.318 133.896 148.328 133.954 148.343 134.005 C 148.361 134.067 148.387 134.119 148.423 134.156 C 148.462 134.198 148.514 134.22 148.58 134.215 C 148.627 134.212 148.682 134.195 148.745 134.162 C 148.789 134.139 148.838 134.108 148.891 134.068 C 148.931 134.039 148.968 134.009 149.004 133.981 C 149.043 133.95 149.08 133.92 149.115 133.89 C 149.153 133.857 149.188 133.826 149.222 133.795 C 149.259 133.761 149.293 133.728 149.325 133.696 C 149.361 133.66 149.393 133.625 149.423 133.592 C 149.457 133.554 149.488 133.517 149.516 133.482 C 149.549 133.441 149.577 133.402 149.601 133.365 C 149.631 133.321 149.656 133.279 149.676 133.242 C 149.702 133.192 149.721 133.149 149.735 133.112 C 149.768 133.022 149.768 132.973 149.768 132.973 C 149.768 132.973 149.785 133.028 149.816 133.111 C 149.831 133.151 149.85 133.197 149.871 133.246 C 149.889 133.289 149.909 133.335 149.931 133.381 C 149.952 133.424 149.975 133.468 149.999 133.511 C 150.023 133.555 150.049 133.597 150.076 133.637 C 150.104 133.679 150.135 133.718 150.166 133.752 C 150.202 133.791 150.24 133.824 150.279 133.846 C 150.324 133.872 150.371 133.884 150.419 133.878 C 150.462 133.873 150.505 133.853 150.549 133.815 C 150.581 133.787 150.612 133.75 150.644 133.703 C 150.666 133.67 150.687 133.637 150.707 133.604 C 150.728 133.57 150.748 133.537 150.766 133.504 C 150.786 133.469 150.804 133.435 150.821 133.402 C 150.84 133.366 150.857 133.331 150.873 133.297 C 150.89 133.26 150.905 133.225 150.919 133.191 C 150.935 133.152 150.948 133.115 150.96 133.081 C 150.974 133.041 150.985 133.004 150.994 132.97 C 151.006 132.927 151.014 132.888 151.019 132.856 C 151.028 132.791 151.023 132.751 151.009 132.744 C 150.994 132.736 150.968 132.762 150.936 132.827 C 150.913 132.873 150.897 132.959 150.885 133.07 C 150.877 133.143 150.871 133.227 150.866 133.319 C 150.861 133.396 150.857 133.48 150.852 133.567 C 150.848 133.647 150.844 133.731 150.84 133.815 C 150.835 133.898 150.83 133.981 150.824 134.065 C 150.818 134.148 150.811 134.232 150.803 134.313 C 150.794 134.398 150.784 134.481 150.772 134.56 C 150.758 134.646 150.743 134.729 150.724 134.805 C 150.703 134.893 150.677 134.973 150.646 135.04 C 150.606 135.129 150.557 135.197 150.498 135.236 C 150.465 135.259 150.43 135.276 150.396 135.289 C 150.359 135.302 150.322 135.31 150.284 135.315 C 150.246 135.319 150.208 135.319 150.17 135.316 C 150.132 135.312 150.095 135.305 150.058 135.296 C 150.02 135.286 149.984 135.274 149.948 135.26 C 149.913 135.245 149.878 135.229 149.844 135.211 C 149.809 135.193 149.776 135.174 149.745 135.154 C 149.711 135.133 149.68 135.111 149.651 135.091 C 149.617 135.066 149.586 135.042 149.561 135.02 C 149.507 134.976 149.476 134.944 149.476 134.944 C 149.476 134.944 149.502 134.986 149.533 135.052 C 149.548 135.085 149.565 135.124 149.579 135.166 C 149.592 135.203 149.603 135.243 149.612 135.284 C 149.619 135.324 149.624 135.366 149.624 135.407 C 149.624 135.448 149.618 135.489 149.606 135.528 C 149.595 135.566 149.577 135.603 149.55 135.637 C 149.527 135.667 149.498 135.694 149.46 135.719 C 149.429 135.739 149.393 135.757 149.35 135.773 C 149.315 135.785 149.276 135.796 149.232 135.804 C 149.195 135.811 149.155 135.817 149.11 135.821 C 149.051 135.825 148.994 135.828 148.938 135.829 C 148.879 135.829 148.821 135.827 148.766 135.823 C 148.706 135.818 148.649 135.811 148.594 135.802 C 148.535 135.792 148.479 135.779 148.426 135.764 C 148.368 135.748 148.313 135.729 148.262 135.708 C 148.207 135.685 148.155 135.659 148.107 135.631 C 148.055 135.601 148.008 135.567 147.966 135.532 C 147.919 135.493 147.879 135.451 147.845 135.408 C 147.808 135.36 147.778 135.31 147.758 135.26 C 147.735 135.203 147.723 135.146 147.723 135.09 C 147.723 134.994 147.728 135.009 147.724 135.084 C 147.722 135.117 147.718 135.162 147.711 135.214 C 147.705 135.253 147.698 135.297 147.689 135.342 C 147.68 135.383 147.67 135.425 147.657 135.468 C 147.645 135.509 147.63 135.55 147.614 135.591 C 147.597 135.63 147.578 135.669 147.556 135.706 C 147.534 135.744 147.509 135.779 147.481 135.811 C 147.452 135.843 147.42 135.872 147.384 135.895 C 147.348 135.919 147.309 135.937 147.266 135.949 C 147.227 135.961 147.185 135.967 147.139 135.967 C 147.08 135.967 147.023 135.962 146.967 135.955 C 146.909 135.946 146.852 135.933 146.798 135.917 C 146.742 135.9 146.688 135.878 146.638 135.853 C 146.585 135.827 146.536 135.798 146.49 135.764 C 146.443 135.73 146.399 135.693 146.358 135.652 C 146.318 135.611 146.281 135.567 146.247 135.52 C 146.214 135.473 146.185 135.423 146.159 135.372 C 146.134 135.32 146.112 135.266 146.095 135.211 C 146.078 135.156 146.065 135.1 146.056 135.043 C 146.048 134.987 146.044 134.929 146.044 134.871 C 146.044 134.779 146.014 134.739 145.964 134.735 C 145.922 134.731 145.865 134.753 145.798 134.788 C 145.752 134.812 145.701 134.844 145.648 134.878 C 145.6 134.908 145.551 134.941 145.5 134.974 C 145.452 135.005 145.402 135.037 145.352 135.066 C 145.3 135.097 145.248 135.126 145.197 135.15 C 145.14 135.176 145.085 135.197 145.032 135.21 C 144.969 135.224 144.911 135.226 144.858 135.211 C 144.806 135.195 144.76 135.162 144.723 135.106 C 144.696 135.065 144.673 135.012 144.656 134.944 C 144.645 134.898 144.634 134.853 144.624 134.809 C 144.613 134.762 144.604 134.716 144.595 134.672 C 144.585 134.625 144.577 134.579 144.569 134.534 C 144.56 134.487 144.553 134.441 144.547 134.397 C 144.539 134.348 144.533 134.302 144.528 134.258 C 144.522 134.208 144.517 134.161 144.513 134.117 C 144.509 134.068 144.506 134.021 144.504 133.978 C 144.501 133.927 144.499 133.88 144.499 133.838 C 144.498 133.783 144.499 133.736 144.5 133.697 C 144.503 133.605 144.51 133.557 144.51 133.557 C 144.51 133.557 144.463 133.642 144.387 133.772 C 144.35 133.834 144.306 133.907 144.257 133.984 C 144.216 134.05 144.171 134.121 144.123 134.192 C 144.078 134.259 144.031 134.327 143.983 134.394 C 143.933 134.462 143.883 134.529 143.832 134.591 C 143.778 134.658 143.723 134.721 143.669 134.777 C 143.605 134.843 143.542 134.898 143.482 134.938 C 143.397 134.996 143.318 135.022 143.251 135.004 C 143.188 134.987 143.136 134.93 143.098 134.822 C 143.077 134.759 143.06 134.679 143.05 134.579 C 143.045 134.533 143.04 134.489 143.035 134.446 C 143.03 134.399 143.025 134.355 143.02 134.312 C 143.015 134.265 143.01 134.221 143.005 134.178 C 142.999 134.132 142.994 134.088 142.989 134.046 C 142.983 133.999 142.977 133.954 142.971 133.912 C 142.965 133.865 142.959 133.821 142.953 133.78 C 142.945 133.731 142.939 133.687 142.932 133.647 C 142.924 133.597 142.916 133.553 142.909 133.515 C 142.899 133.46 142.889 133.417 142.881 133.383 C 142.847 133.248 142.831 133.265 142.831 133.265 C 142.831 133.265 142.77 133.343 142.671 133.456 C 142.624 133.51 142.567 133.572 142.504 133.638 C 142.45 133.695 142.39 133.754 142.328 133.813 C 142.268 133.869 142.205 133.925 142.142 133.976 C 142.076 134.029 142.008 134.079 141.941 134.121 C 141.866 134.168 141.791 134.206 141.719 134.23 C 141.632 134.26 141.549 134.269 141.474 134.25 C 141.401 134.232 141.335 134.186 141.282 134.104 C 141.245 134.046 141.214 133.971 141.19 133.874 C 141.173 133.804 141.16 133.723 141.151 133.63 C 141.146 133.575 141.141 133.524 141.135 133.476 C 141.129 133.421 141.122 133.37 141.115 133.324 C 141.107 133.267 141.098 133.216 141.089 133.172 C 141.076 133.111 141.062 133.062 141.048 133.023 C 141.022 132.948 140.993 132.91 140.964 132.9 C 140.925 132.885 140.885 132.921 140.847 132.981 C 140.823 133.019 140.8 133.067 140.778 133.119 C 140.759 133.165 140.741 133.214 140.725 133.262 C 140.708 133.314 140.692 133.365 140.679 133.409 C 140.655 133.495 140.64 133.557 140.64 133.557 C 140.64 133.557 140.544 133.562 140.416 133.532 C 140.351 133.516 140.278 133.491 140.204 133.452 C 140.142 133.419 140.079 133.375 140.021 133.318 C 139.971 133.268 139.925 133.209 139.884 133.137 C 139.85 133.076 139.821 133.007 139.798 132.928 C 139.778 132.86 139.763 132.786 139.754 132.704 C 139.746 132.635 139.742 132.559 139.743 132.478 C 139.744 132.407 139.749 132.331 139.757 132.25 C 139.765 132.18 139.776 132.105 139.79 132.026 C 139.803 131.955 139.818 131.882 139.837 131.804 C 139.853 131.738 139.867 131.677 139.879 131.621 C 139.894 131.554 139.907 131.493 139.917 131.438 C 139.931 131.366 139.942 131.305 139.948 131.253 C 139.961 131.161 139.962 131.101 139.955 131.067 C 139.941 130.996 139.893 131.032 139.83 131.12 C 139.8 131.163 139.766 131.217 139.731 131.279 C 139.702 131.331 139.671 131.387 139.642 131.444 C 139.613 131.5 139.584 131.557 139.558 131.611 C 139.528 131.672 139.5 131.73 139.477 131.78 C 139.43 131.881 139.399 131.95 139.399 131.95 C 139.399 131.95 139.341 131.871 139.259 131.734 C 139.221 131.671 139.177 131.596 139.131 131.51 C 139.094 131.44 139.055 131.364 139.017 131.281 C 138.982 131.207 138.947 131.128 138.915 131.046 C 138.884 130.968 138.854 130.887 138.827 130.804 C 138.801 130.723 138.777 130.64 138.757 130.556 C 138.738 130.474 138.721 130.39 138.709 130.305 C 138.697 130.221 138.689 130.136 138.687 130.05 C 138.684 129.965 138.687 129.879 138.695 129.794 C 138.704 129.709 138.719 129.624 138.741 129.541" id="path2911" class="yBkjpjYu_1"></path>
    <path style="fill: none; stroke: rgb(4, 15, 34); stroke-width: 0.5; stroke-linecap: butt; stroke-linejoin: miter; stroke-opacity: 1; stroke-miterlimit: 4;" d="M 153.054 129.541 C 153.054 129.541 153.105 129.375 153.18 129.105 C 153.215 128.979 153.255 128.83 153.297 128.666 C 153.332 128.529 153.369 128.38 153.406 128.224 C 153.439 128.082 153.472 127.934 153.504 127.781 C 153.534 127.636 153.564 127.486 153.591 127.336 C 153.618 127.187 153.642 127.037 153.664 126.888 C 153.686 126.735 153.704 126.584 153.718 126.437 C 153.733 126.281 153.742 126.128 153.746 125.983 C 153.749 125.822 153.745 125.67 153.732 125.53 C 153.715 125.362 153.685 125.212 153.638 125.086 C 153.599 124.983 153.553 124.875 153.501 124.763 C 153.453 124.66 153.401 124.555 153.345 124.448 C 153.291 124.346 153.235 124.243 153.176 124.14 C 153.118 124.039 153.059 123.937 152.998 123.837 C 152.937 123.736 152.875 123.636 152.813 123.538 C 152.749 123.437 152.684 123.338 152.621 123.242 C 152.555 123.141 152.489 123.044 152.426 122.951 C 152.356 122.848 152.288 122.751 152.225 122.662 C 152.149 122.554 152.08 122.457 152.021 122.376 C 151.893 122.199 151.812 122.092 151.812 122.092 C 151.812 122.092 151.856 122.054 151.933 122.015 C 151.97 121.996 152.014 121.978 152.065 121.963 C 152.107 121.95 152.154 121.94 152.205 121.935 C 152.25 121.931 152.297 121.931 152.347 121.936 C 152.392 121.941 152.439 121.95 152.487 121.965 C 152.53 121.978 152.575 121.995 152.62 122.018 C 152.66 122.038 152.701 122.062 152.743 122.09 C 152.78 122.116 152.818 122.145 152.856 122.178 C 152.89 122.208 152.924 122.241 152.959 122.277 C 152.99 122.31 153.022 122.346 153.054 122.385 C 153.095 122.435 153.134 122.486 153.17 122.537 C 153.208 122.59 153.244 122.643 153.278 122.697 C 153.312 122.752 153.345 122.807 153.375 122.863 C 153.406 122.92 153.436 122.977 153.462 123.033 C 153.491 123.092 153.517 123.151 153.54 123.209 C 153.566 123.27 153.589 123.33 153.609 123.389 C 153.631 123.452 153.651 123.513 153.668 123.571 C 153.688 123.638 153.704 123.7 153.718 123.757 C 153.734 123.828 153.747 123.892 153.757 123.945 C 153.778 124.066 153.784 124.137 153.784 124.137 C 153.784 124.137 153.842 124.088 153.931 124.023 C 153.976 123.991 154.028 123.954 154.084 123.918 C 154.135 123.886 154.189 123.853 154.243 123.824 C 154.3 123.794 154.358 123.768 154.413 123.748 C 154.477 123.725 154.538 123.711 154.593 123.711 C 154.66 123.711 154.718 123.731 154.758 123.782 C 154.789 123.821 154.809 123.877 154.816 123.955 C 154.821 124.007 154.819 124.069 154.811 124.141 C 154.804 124.195 154.794 124.255 154.779 124.322 C 154.767 124.378 154.752 124.437 154.733 124.502 C 154.712 124.578 154.691 124.651 154.67 124.723 C 154.648 124.798 154.627 124.871 154.607 124.941 C 154.585 125.017 154.564 125.09 154.543 125.161 C 154.521 125.237 154.499 125.309 154.479 125.379 C 154.456 125.456 154.435 125.529 154.414 125.598 C 154.391 125.676 154.369 125.749 154.348 125.818 C 154.324 125.897 154.302 125.97 154.282 126.038 C 154.257 126.118 154.235 126.191 154.214 126.257 C 154.188 126.343 154.165 126.415 154.146 126.475 C 154.099 126.623 154.076 126.693 154.076 126.693 C 154.076 126.693 154.105 126.638 154.153 126.555 C 154.176 126.515 154.203 126.468 154.233 126.418 C 154.259 126.375 154.288 126.33 154.318 126.285 C 154.346 126.241 154.377 126.196 154.408 126.153 C 154.439 126.109 154.471 126.066 154.504 126.026 C 154.539 125.983 154.574 125.943 154.609 125.908 C 154.65 125.866 154.691 125.831 154.73 125.806 C 154.784 125.772 154.836 125.757 154.88 125.77 C 154.921 125.782 154.957 125.818 154.984 125.883 C 155.001 125.923 155.015 125.973 155.025 126.036 C 155.039 126.12 155.045 126.208 155.042 126.299 C 155.04 126.385 155.032 126.473 155.017 126.562 C 155.004 126.647 154.985 126.734 154.962 126.821 C 154.94 126.906 154.915 126.99 154.886 127.075 C 154.858 127.159 154.826 127.242 154.794 127.324 C 154.76 127.407 154.725 127.489 154.689 127.568 C 154.652 127.651 154.614 127.731 154.577 127.808 C 154.536 127.891 154.496 127.97 154.458 128.044 C 154.414 128.13 154.373 128.209 154.337 128.279 C 154.286 128.378 154.246 128.46 154.222 128.518 C 154.195 128.586 154.234 128.611 154.312 128.613 C 154.356 128.613 154.413 128.606 154.477 128.595 C 154.527 128.587 154.583 128.576 154.64 128.564 C 154.693 128.553 154.748 128.541 154.803 128.53 C 154.858 128.519 154.914 128.509 154.968 128.501 C 155.025 128.491 155.081 128.484 155.134 128.481 C 155.195 128.477 155.252 128.478 155.3 128.486 C 155.364 128.498 155.413 128.522 155.44 128.566 C 155.463 128.604 155.468 128.657 155.451 128.728 C 155.44 128.773 155.42 128.824 155.39 128.883 C 155.364 128.937 155.337 128.989 155.31 129.039 C 155.282 129.092 155.254 129.143 155.227 129.193 C 155.197 129.245 155.168 129.296 155.139 129.345 C 155.109 129.396 155.079 129.446 155.049 129.495 C 155.018 129.545 154.987 129.594 154.956 129.641 C 154.923 129.692 154.891 129.74 154.86 129.786 C 154.826 129.837 154.793 129.885 154.761 129.929 C 154.724 129.981 154.69 130.028 154.658 130.07 C 154.618 130.124 154.582 130.17 154.552 130.209 C 154.483 130.297 154.441 130.344 154.441 130.344 C 154.441 130.344 154.495 130.309 154.577 130.261 C 154.618 130.237 154.665 130.21 154.716 130.182 C 154.762 130.157 154.81 130.132 154.859 130.108 C 154.907 130.084 154.957 130.062 155.005 130.042 C 155.057 130.02 155.109 130.001 155.157 129.988 C 155.215 129.971 155.269 129.961 155.314 129.962 C 155.378 129.963 155.425 129.985 155.445 130.036 C 155.459 130.072 155.459 130.124 155.442 130.194 C 155.431 130.237 155.413 130.287 155.388 130.345 C 155.369 130.389 155.346 130.437 155.317 130.49 C 155.292 130.538 155.267 130.585 155.242 130.629 C 155.216 130.677 155.19 130.724 155.165 130.768 C 155.138 130.816 155.112 130.862 155.086 130.906 C 155.058 130.953 155.031 130.998 155.006 131.041 C 154.977 131.089 154.949 131.134 154.922 131.177 C 154.892 131.224 154.863 131.269 154.836 131.31 C 154.804 131.357 154.774 131.401 154.746 131.441 C 154.712 131.489 154.681 131.531 154.652 131.568 C 154.614 131.618 154.581 131.659 154.553 131.691 C 154.478 131.776 154.441 131.804 154.441 131.804 C 154.441 131.804 154.455 131.835 154.477 131.884 C 154.488 131.907 154.5 131.934 154.514 131.964 C 154.525 131.99 154.538 132.017 154.551 132.045 C 154.562 132.071 154.575 132.098 154.587 132.125 C 154.599 132.152 154.611 132.178 154.623 132.205 C 154.635 132.232 154.648 132.258 154.659 132.285 C 154.672 132.312 154.684 132.339 154.696 132.365 C 154.709 132.394 154.721 132.421 154.733 132.446 C 154.747 132.477 154.759 132.504 154.77 132.527 C 154.792 132.577 154.806 132.608 154.806 132.608 C 154.806 132.608 154.873 132.597 154.978 132.574 C 155.027 132.563 155.084 132.55 155.147 132.534 C 155.2 132.52 155.258 132.505 155.317 132.488 C 155.371 132.473 155.427 132.455 155.484 132.437 C 155.538 132.419 155.593 132.399 155.648 132.378 C 155.702 132.357 155.756 132.335 155.809 132.311 C 155.863 132.286 155.915 132.26 155.965 132.232 C 156.017 132.203 156.067 132.171 156.112 132.138 C 156.161 132.102 156.205 132.064 156.243 132.023 C 156.285 131.977 156.318 131.929 156.34 131.877 C 156.353 131.845 156.366 131.815 156.377 131.785 C 156.389 131.752 156.399 131.72 156.408 131.69 C 156.418 131.655 156.425 131.622 156.431 131.591 C 156.438 131.556 156.441 131.523 156.442 131.492 C 156.444 131.455 156.441 131.422 156.435 131.392 C 156.428 131.356 156.417 131.325 156.401 131.298 C 156.384 131.268 156.361 131.243 156.334 131.223 C 156.309 131.204 156.279 131.188 156.246 131.176 C 156.216 131.166 156.184 131.158 156.148 131.154 C 156.117 131.149 156.083 131.147 156.048 131.147 C 155.974 131.147 155.986 131.091 156.046 131.001 C 156.074 130.957 156.114 130.905 156.161 130.848 C 156.198 130.802 156.239 130.753 156.283 130.701 C 156.323 130.653 156.365 130.604 156.406 130.553 C 156.447 130.504 156.487 130.454 156.526 130.405 C 156.566 130.353 156.605 130.302 156.639 130.251 C 156.678 130.195 156.712 130.14 156.74 130.088 C 156.774 130.023 156.797 129.962 156.805 129.908 C 156.814 129.837 156.797 129.779 156.74 129.74 C 156.7 129.712 156.641 129.694 156.559 129.687 C 156.531 129.684 156.503 129.682 156.477 129.679 C 156.449 129.676 156.422 129.673 156.397 129.67 C 156.368 129.667 156.341 129.663 156.315 129.659 C 156.286 129.655 156.259 129.65 156.234 129.645 C 156.205 129.64 156.179 129.634 156.154 129.628 C 156.125 129.621 156.099 129.614 156.075 129.607 C 156.045 129.598 156.02 129.588 155.998 129.578 C 155.968 129.565 155.945 129.551 155.927 129.537 C 155.898 129.514 155.884 129.492 155.879 129.472 C 155.869 129.427 155.902 129.395 155.902 129.395 C 155.902 129.395 155.975 129.313 156.085 129.183 C 156.138 129.121 156.199 129.048 156.264 128.967 C 156.319 128.898 156.378 128.824 156.437 128.747 C 156.492 128.674 156.549 128.599 156.604 128.522 C 156.658 128.446 156.712 128.368 156.762 128.291 C 156.815 128.21 156.864 128.13 156.909 128.051 C 156.958 127.964 157 127.88 157.033 127.801 C 157.074 127.7 157.1 127.608 157.104 127.53 C 157.11 127.422 157.074 127.341 156.981 127.3 C 156.918 127.272 156.827 127.263 156.705 127.277 C 156.666 127.282 156.629 127.286 156.593 127.291 C 156.554 127.296 156.517 127.3 156.481 127.305 C 156.443 127.311 156.406 127.316 156.371 127.321 C 156.332 127.327 156.295 127.333 156.26 127.339 C 156.22 127.345 156.183 127.352 156.149 127.358 C 156.109 127.366 156.072 127.373 156.038 127.381 C 155.998 127.389 155.962 127.398 155.929 127.406 C 155.887 127.417 155.852 127.428 155.822 127.438 C 155.775 127.454 155.742 127.469 155.719 127.483 C 155.631 127.535 155.682 127.569 155.682 127.569 C 155.682 127.569 155.759 127.476 155.876 127.327 C 155.931 127.256 155.996 127.173 156.065 127.08 C 156.123 127.002 156.185 126.918 156.248 126.83 C 156.307 126.748 156.366 126.662 156.425 126.575 C 156.483 126.49 156.54 126.403 156.594 126.317 C 156.65 126.227 156.704 126.138 156.752 126.051 C 156.805 125.956 156.853 125.863 156.893 125.775 C 156.94 125.67 156.977 125.572 156.998 125.484 C 157.029 125.358 157.028 125.254 156.983 125.183 C 156.938 125.113 156.85 125.077 156.705 125.086 C 156.655 125.09 156.606 125.094 156.559 125.099 C 156.509 125.104 156.461 125.11 156.415 125.116 C 156.365 125.124 156.317 125.132 156.271 125.141 C 156.221 125.15 156.174 125.161 156.129 125.172 C 156.079 125.185 156.033 125.198 155.99 125.212 C 155.941 125.227 155.896 125.244 155.854 125.261 C 155.805 125.28 155.762 125.301 155.722 125.321 C 155.674 125.346 155.633 125.371 155.597 125.395 C 155.55 125.427 155.512 125.458 155.483 125.486 C 155.414 125.551 155.39 125.598 155.39 125.598 C 155.39 125.598 155.451 125.493 155.538 125.327 C 155.579 125.248 155.626 125.154 155.675 125.052 C 155.716 124.964 155.759 124.87 155.802 124.771 C 155.841 124.679 155.88 124.583 155.916 124.485 C 155.952 124.389 155.986 124.291 156.014 124.194 C 156.044 124.092 156.069 123.991 156.087 123.894 C 156.107 123.787 156.118 123.684 156.117 123.589 C 156.116 123.475 156.098 123.373 156.058 123.288 C 156.014 123.195 155.943 123.124 155.839 123.082 C 155.759 123.05 155.659 123.035 155.536 123.042 C 155.495 123.044 155.455 123.046 155.417 123.049 C 155.376 123.051 155.336 123.054 155.298 123.057 C 155.256 123.06 155.216 123.063 155.178 123.067 C 155.136 123.071 155.096 123.075 155.058 123.079 C 155.015 123.084 154.975 123.089 154.938 123.094 C 154.895 123.1 154.856 123.106 154.82 123.113 C 154.775 123.121 154.736 123.129 154.702 123.137 C 154.655 123.149 154.618 123.16 154.587 123.172 C 154.533 123.193 154.502 123.214 154.485 123.234 C 154.44 123.289 154.514 123.334 154.514 123.334 C 154.514 123.334 154.517 123.239 154.516 123.091 C 154.516 123.02 154.514 122.937 154.512 122.846 C 154.51 122.77 154.506 122.688 154.501 122.603 C 154.497 122.524 154.491 122.442 154.484 122.36 C 154.477 122.28 154.468 122.198 154.458 122.119 C 154.447 122.037 154.435 121.956 154.419 121.879 C 154.403 121.795 154.384 121.715 154.361 121.643 C 154.334 121.556 154.302 121.479 154.265 121.419 C 154.214 121.337 154.152 121.285 154.078 121.277 C 154.014 121.269 153.941 121.295 153.857 121.362 C 153.823 121.389 153.791 121.415 153.76 121.44 C 153.726 121.467 153.694 121.493 153.664 121.518 C 153.63 121.545 153.599 121.571 153.568 121.596 C 153.534 121.624 153.502 121.65 153.471 121.675 C 153.438 121.703 153.406 121.73 153.376 121.755 C 153.342 121.783 153.31 121.81 153.281 121.835 C 153.246 121.864 153.214 121.891 153.185 121.916 C 153.15 121.947 153.119 121.974 153.091 121.998 C 153.054 122.031 153.023 122.059 152.998 122.081 C 152.934 122.139 152.908 122.165 152.908 122.165" id="path2913" class="yBkjpjYu_2"></path>
    <path style="fill: none; stroke: rgb(4, 15, 34); stroke-width: 0.5; stroke-linecap: butt; stroke-linejoin: miter; stroke-opacity: 1; stroke-miterlimit: 4;" d="M 148.035 135.772 C 148.035 135.772 148.059 135.862 148.109 136.001 C 148.133 136.066 148.162 136.142 148.198 136.224 C 148.229 136.293 148.263 136.366 148.303 136.442 C 148.339 136.511 148.378 136.581 148.423 136.651 C 148.464 136.717 148.51 136.784 148.559 136.848 C 148.608 136.911 148.661 136.973 148.717 137.031 C 148.773 137.088 148.833 137.142 148.897 137.191 C 148.96 137.239 149.028 137.283 149.099 137.32 C 149.169 137.357 149.244 137.387 149.322 137.409 C 149.397 137.43 149.476 137.445 149.559 137.45 C 149.703 137.46 149.871 137.464 150.056 137.46 C 150.211 137.456 150.377 137.447 150.551 137.43 C 150.71 137.415 150.876 137.393 151.044 137.365 C 151.205 137.338 151.368 137.305 151.532 137.265 C 151.691 137.225 151.851 137.179 152.009 137.125 C 152.166 137.071 152.32 137.01 152.47 136.941 C 152.621 136.87 152.767 136.792 152.906 136.704 C 153.046 136.614 153.18 136.515 153.302 136.406 C 153.426 136.296 153.54 136.175 153.64 136.042 C 153.739 135.912 153.825 135.771 153.896 135.617 C 153.992 135.408 154.094 135.17 154.191 134.91 C 154.276 134.682 154.357 134.437 154.427 134.181 C 154.492 133.94 154.548 133.689 154.587 133.433 C 154.626 133.182 154.648 132.926 154.65 132.67 C 154.651 132.415 154.63 132.16 154.583 131.908 C 154.536 131.66 154.463 131.415 154.358 131.177 C 154.258 130.951 154.128 130.731 153.964 130.522 C 153.814 130.332 153.636 130.15 153.425 129.98 C 153.239 129.829 153.027 129.688 152.787 129.557 C 152.576 129.442 152.344 129.337 152.089 129.24 C 151.89 129.166 151.702 129.108 151.522 129.065 C 151.315 129.016 151.12 128.986 150.937 128.974 C 150.725 128.961 150.528 128.97 150.345 129 C 150.138 129.033 149.95 129.091 149.778 129.169 C 149.593 129.253 149.427 129.361 149.278 129.484 C 149.124 129.612 148.989 129.757 148.869 129.912 C 148.747 130.071 148.642 130.241 148.552 130.412 C 148.457 130.594 148.378 130.778 148.314 130.955 C 148.239 131.159 148.184 131.353 148.143 131.522 C 148.059 131.868 148.035 132.106 148.035 132.106" id="path2915" class="yBkjpjYu_3"></path>
    <path style="fill: none; stroke: rgb(4, 15, 34); stroke-width: 0.5; stroke-linecap: butt; stroke-linejoin: miter; stroke-opacity: 1; stroke-miterlimit: 4;" d="M 136.805 130.738 C 136.805 130.738 136.783 130.84 136.774 131.004 C 136.769 131.081 136.768 131.171 136.772 131.271 C 136.776 131.355 136.784 131.445 136.799 131.538 C 136.812 131.623 136.831 131.711 136.856 131.8 C 136.88 131.883 136.909 131.967 136.946 132.051 C 136.98 132.131 137.021 132.21 137.07 132.288 C 137.115 132.361 137.168 132.434 137.227 132.504 C 137.283 132.569 137.346 132.633 137.416 132.693 C 137.481 132.749 137.552 132.803 137.629 132.853 C 137.701 132.9 137.779 132.943 137.863 132.984" id="path2917" class="yBkjpjYu_4"></path>
    <path style="fill: none; stroke: rgb(4, 15, 34); stroke-width: 0.5; stroke-linecap: butt; stroke-linejoin: miter; stroke-opacity: 1; stroke-miterlimit: 4;" d="M 136.34 131.977 C 136.34 131.977 136.3 132.072 136.275 132.226 C 136.263 132.299 136.254 132.386 136.255 132.481 C 136.256 132.561 136.263 132.647 136.279 132.738 C 136.294 132.817 136.317 132.9 136.349 132.985 C 136.379 133.061 136.416 133.138 136.463 133.215 C 136.505 133.285 136.555 133.355 136.614 133.424 C 136.667 133.486 136.728 133.547 136.797 133.608 C 136.858 133.661 136.926 133.714 137 133.766 C 137.067 133.812 137.14 133.857 137.219 133.901 C 137.291 133.941 137.368 133.979 137.45 134.017" id="path2919" class="yBkjpjYu_5"></path>
    <path style="fill: none; stroke: rgb(4, 15, 34); stroke-width: 0.5; stroke-linecap: butt; stroke-linejoin: miter; stroke-opacity: 1; stroke-miterlimit: 4;" d="M 150.023 138.767 C 150.023 138.767 150.082 138.813 150.185 138.873 C 150.232 138.901 150.289 138.933 150.355 138.964 C 150.408 138.99 150.467 139.016 150.531 139.04 C 150.589 139.062 150.65 139.082 150.714 139.099 C 150.774 139.116 150.837 139.13 150.902 139.14 C 150.964 139.15 151.029 139.156 151.094 139.159 C 151.157 139.161 151.221 139.159 151.286 139.152 C 151.349 139.146 151.412 139.135 151.476 139.119 C 151.536 139.104 151.597 139.084 151.658 139.059 C 151.716 139.036 151.773 139.007 151.83 138.973" id="path2921" class="yBkjpjYu_6"></path>
    <path style="fill: none; stroke: rgb(4, 15, 34); stroke-width: 0.5; stroke-linecap: butt; stroke-linejoin: miter; stroke-opacity: 1; stroke-miterlimit: 4;" d="M 149.791 139.8 C 149.791 139.8 149.845 139.841 149.946 139.89 C 149.992 139.913 150.048 139.937 150.113 139.96 C 150.165 139.978 150.223 139.995 150.287 140.01 C 150.342 140.022 150.401 140.033 150.464 140.041 C 150.521 140.048 150.581 140.052 150.644 140.053 C 150.701 140.055 150.762 140.053 150.824 140.049 C 150.882 140.045 150.941 140.038 151.002 140.028 C 151.059 140.018 151.118 140.006 151.178 139.991 C 151.234 139.977 151.292 139.96 151.351 139.941 C 151.406 139.922 151.463 139.901 151.521 139.877" id="path2923" class="yBkjpjYu_7"></path>
    <path style="fill: none; stroke: rgb(4, 15, 34); stroke-width: 0.5; stroke-linecap: butt; stroke-linejoin: miter; stroke-opacity: 1; stroke-miterlimit: 4;" d="M 154.98 120.927 C 155.051 120.958 155.121 120.982 155.191 121.004 C 155.263 121.027 155.335 121.048 155.406 121.071 C 155.476 121.094 155.546 121.12 155.614 121.153 C 155.679 121.185 155.742 121.223 155.804 121.271 C 155.859 121.314 155.912 121.365 155.964 121.427 C 156.008 121.48 156.051 121.54 156.093 121.611 C 156.127 121.67 156.161 121.736 156.194 121.81 C 156.222 121.874 156.25 121.943 156.276 122.019 C 156.299 122.085 156.322 122.157 156.344 122.234 C 156.363 122.302 156.382 122.374 156.4 122.451" id="path2925" class="yBkjpjYu_8"></path>
    <path style="fill: none; stroke: rgb(4, 15, 34); stroke-width: 0.5; stroke-linecap: butt; stroke-linejoin: miter; stroke-opacity: 1; stroke-miterlimit: 4;" d="M 155.858 120.204 C 155.858 120.204 155.942 120.222 156.061 120.286 C 156.116 120.316 156.179 120.355 156.244 120.407 C 156.297 120.448 156.352 120.498 156.406 120.558 C 156.452 120.608 156.498 120.665 156.541 120.731 C 156.58 120.788 156.617 120.851 156.652 120.921 C 156.683 120.984 156.712 121.051 156.739 121.124 C 156.762 121.189 156.784 121.259 156.803 121.334 C 156.82 121.401 156.836 121.473 156.848 121.549 C 156.86 121.618 156.87 121.691 156.877 121.767 C 156.883 121.837 156.888 121.91 156.891 121.986" id="path2927" class="yBkjpjYu_9"></path>
  </g>
<style data-made-with="vivus-instant">.yBkjpjYu_0{stroke-dasharray:154 156;stroke-dashoffset:155;animation:yBkjpjYu_draw_0 15200ms linear 0ms infinite,yBkjpjYu_fade 15200ms linear 0ms infinite;}.yBkjpjYu_1{stroke-dasharray:67 69;stroke-dashoffset:68;animation:yBkjpjYu_draw_1 15200ms linear 0ms infinite,yBkjpjYu_fade 15200ms linear 0ms infinite;}.yBkjpjYu_2{stroke-dasharray:50 52;stroke-dashoffset:51;animation:yBkjpjYu_draw_2 15200ms linear 0ms infinite,yBkjpjYu_fade 15200ms linear 0ms infinite;}.yBkjpjYu_3{stroke-dasharray:21 23;stroke-dashoffset:22;animation:yBkjpjYu_draw_3 15200ms linear 0ms infinite,yBkjpjYu_fade 15200ms linear 0ms infinite;}.yBkjpjYu_4{stroke-dasharray:3 5;stroke-dashoffset:4;animation:yBkjpjYu_draw_4 15200ms linear 0ms infinite,yBkjpjYu_fade 15200ms linear 0ms infinite;}.yBkjpjYu_5{stroke-dasharray:3 5;stroke-dashoffset:4;animation:yBkjpjYu_draw_5 15200ms linear 0ms infinite,yBkjpjYu_fade 15200ms linear 0ms infinite;}.yBkjpjYu_6{stroke-dasharray:2 4;stroke-dashoffset:3;animation:yBkjpjYu_draw_6 15200ms linear 0ms infinite,yBkjpjYu_fade 15200ms linear 0ms infinite;}.yBkjpjYu_7{stroke-dasharray:2 4;stroke-dashoffset:3;animation:yBkjpjYu_draw_7 15200ms linear 0ms infinite,yBkjpjYu_fade 15200ms linear 0ms infinite;}.yBkjpjYu_8{stroke-dasharray:3 5;stroke-dashoffset:4;animation:yBkjpjYu_draw_8 15200ms linear 0ms infinite,yBkjpjYu_fade 15200ms linear 0ms infinite;}.yBkjpjYu_9{stroke-dasharray:3 5;stroke-dashoffset:4;animation:yBkjpjYu_draw_9 15200ms linear 0ms infinite,yBkjpjYu_fade 15200ms linear 0ms infinite;}@keyframes yBkjpjYu_draw{100%{stroke-dashoffset:0;}}@keyframes yBkjpjYu_fade{0%{stroke-opacity:1;}97.36842105263158%{stroke-opacity:1;}100%{stroke-opacity:0;}}@keyframes yBkjpjYu_draw_0{5.263157894736842%{stroke-dashoffset: 155}25%{ stroke-dashoffset: 0;}100%{ stroke-dashoffset: 0;}}@keyframes yBkjpjYu_draw_1{5.263157894736842%{stroke-dashoffset: 68}25%{ stroke-dashoffset: 0;}100%{ stroke-dashoffset: 0;}}@keyframes yBkjpjYu_draw_2{5.263157894736842%{stroke-dashoffset: 51}25%{ stroke-dashoffset: 0;}100%{ stroke-dashoffset: 0;}}@keyframes yBkjpjYu_draw_3{5.263157894736842%{stroke-dashoffset: 22}25%{ stroke-dashoffset: 0;}100%{ stroke-dashoffset: 0;}}@keyframes yBkjpjYu_draw_4{5.263157894736842%{stroke-dashoffset: 4}25%{ stroke-dashoffset: 0;}100%{ stroke-dashoffset: 0;}}@keyframes yBkjpjYu_draw_5{5.263157894736842%{stroke-dashoffset: 4}25%{ stroke-dashoffset: 0;}100%{ stroke-dashoffset: 0;}}@keyframes yBkjpjYu_draw_6{5.263157894736842%{stroke-dashoffset: 3}25%{ stroke-dashoffset: 0;}100%{ stroke-dashoffset: 0;}}@keyframes yBkjpjYu_draw_7{5.263157894736842%{stroke-dashoffset: 3}25%{ stroke-dashoffset: 0;}100%{ stroke-dashoffset: 0;}}@keyframes yBkjpjYu_draw_8{5.263157894736842%{stroke-dashoffset: 4}25%{ stroke-dashoffset: 0;}100%{ stroke-dashoffset: 0;}}@keyframes yBkjpjYu_draw_9{5.263157894736842%{stroke-dashoffset: 4}25%{ stroke-dashoffset: 0;}100%{ stroke-dashoffset: 0;}}</style></svg>
