<?xml version="1.0" standalone="no"?><svg xmlns="http://www.w3.org/2000/svg" viewBox="0 0 1440 320"><path fill="#6700ee" fill-opacity="1" d="M0,160L24,154.7C48,149,96,139,144,144C192,149,240,171,288,192C336,213,384,235,432,250.7C480,267,528,277,576,282.7C624,288,672,288,720,272C768,256,816,224,864,192C912,160,960,128,1008,101.3C1056,75,1104,53,1152,64C1200,75,1248,117,1296,117.3C1344,117,1392,75,1416,53.3L1440,32L1440,0L1416,0C1392,0,1344,0,1296,0C1248,0,1200,0,1152,0C1104,0,1056,0,1008,0C960,0,912,0,864,0C816,0,768,0,720,0C672,0,624,0,576,0C528,0,480,0,432,0C384,0,336,0,288,0C240,0,192,0,144,0C96,0,48,0,24,0L0,0Z"></path></svg>